<?xml version="1.0" encoding="UTF-8"?>
<svg id="Calque_1" data-name="Calque 1" xmlns="http://www.w3.org/2000/svg" viewBox="0 0 1080 1080">
  <defs>
    <style>
      .cls-1 {
        fill: #ff9330;
      }

      .cls-1, .cls-2, .cls-3 {
        stroke: #000;
        stroke-miterlimit: 10;
        stroke-width: 3px;
      }

      .cls-2 {
        fill: none;
      }

      .cls-3 {
        fill: #6ab42d;
      }
    </style>
  </defs>
  <path class="cls-1" d="M516.82,344.22c-10.56-.24-21.13,1.16-31.15,4.49-73.33,24.37-57.45,121.25-49.17,263.79,6.72,115.81,30.01,237.76,38.58,283.42,2.58,13.73,5.54,27.39,8.9,40.96,8.97,36.12,18.6,68.51,30.91,85.99,9.46,13.43,29.79,12.34,38.08-1.84,53.38-91.37,91.34-249.64,121.17-443.23,1.72-11.18,3.75-22.31,5.96-33.41,16.34-82,11.03-149.45-45.05-182.83-17.15-10.21-36.77-15.5-56.72-15.95l-61.52-1.38Z"/>
  <path class="cls-3" d="M596.5,347.5c29-136,82-267-3-262-10.17-59.31-50.48-69.08-74.12-42.71-7.22,8.06-11.42,18.34-12.54,29.1-1.49,14.36-1.29,30.99-.34,48.61-55,13-13,112,1.23,224.04,35.35,0,70.23.1,88.77,2.96Z"/>
  <line class="cls-2" x1="506.5" y1="149.5" x2="524.5" y2="305.5"/>
  <line class="cls-2" x1="594.5" y1="114.5" x2="574.5" y2="291.5"/>
  <path class="cls-2" d="M432.5,549.5c0,21,76,51,146,38"/>
  <path class="cls-2" d="M647.5,728.5c0,9.95-54,29-111,18"/>
  <path class="cls-2" d="M468.5,860.5c0,12.16,19,25,49,28"/>
  <path class="cls-2" d="M686.5,445.5c0,17.13-76,43-137,26"/>
</svg>