<?xml version="1.0" encoding="UTF-8"?>
<svg id="Calque_1" data-name="Calque 1" xmlns="http://www.w3.org/2000/svg" viewBox="0 0 1080 1080">
  <defs>
    <style>
      .cls-1 {
        fill: #000;
      }

      .cls-1, .cls-2 {
        stroke-width: 0px;
      }

      .cls-3 {
        fill: none;
        stroke: #fff3e1;
        stroke-miterlimit: 10;
        stroke-width: 7px;
      }

      .cls-2 {
        fill: #fffcf8;
      }
    </style>
  </defs>
  <g>
    <path class="cls-2" d="M557,963.5c-58.39,0-115.03-11.44-168.35-33.99-51.5-21.78-97.75-52.97-137.48-92.69s-70.91-85.97-92.69-137.48c-22.55-53.32-33.99-109.96-33.99-168.35s11.44-115.03,33.99-168.35c21.78-51.5,52.97-97.75,92.69-137.48s85.97-70.91,137.48-92.69c53.32-22.55,109.96-33.99,168.35-33.99s115.03,11.44,168.35,33.99c51.5,21.78,97.75,52.97,137.48,92.69s70.91,85.97,92.69,137.48c22.55,53.32,33.99,109.96,33.99,168.35s-11.44,115.03-33.99,168.35c-21.78,51.5-52.97,97.75-92.69,137.48s-85.97,70.91-137.48,92.69c-53.32,22.55-109.96,33.99-168.35,33.99Z"/>
    <path class="cls-1" d="M557,100c58.19,0,114.63,11.4,167.76,33.87,51.32,21.71,97.42,52.78,137,92.37,39.58,39.58,70.66,85.68,92.37,137,22.47,53.13,33.87,109.58,33.87,167.76s-11.4,114.63-33.87,167.76c-21.71,51.32-52.78,97.42-92.37,137s-85.68,70.66-137,92.37c-53.13,22.47-109.58,33.87-167.76,33.87s-114.63-11.4-167.76-33.87c-51.32-21.71-97.42-52.78-137-92.37-39.58-39.58-70.66-85.68-92.37-137-22.47-53.13-33.87-109.58-33.87-167.76s11.4-114.63,33.87-167.76c21.71-51.32,52.78-97.42,92.37-137,39.58-39.58,85.68-70.66,137-92.37,53.13-22.47,109.58-33.87,167.76-33.87M557,97c-239.69,0-434,194.31-434,434s194.31,434,434,434,434-194.31,434-434S796.69,97,557,97h0Z"/>
  </g>
  <line class="cls-3" x1="326.5" y1="216.5" x2="326.5" y2="814.5"/>
  <line class="cls-3" x1="453.5" y1="191.5" x2="453.5" y2="882.5"/>
  <line class="cls-3" x1="566.5" y1="142.5" x2="563.5" y2="924.5"/>
  <line class="cls-3" x1="670.5" y1="184.5" x2="670.5" y2="873.5"/>
  <line class="cls-3" x1="791.5" y1="218.5" x2="791.5" y2="827.5"/>
  <line class="cls-3" x1="880.5" y1="302.5" x2="880.5" y2="725.5"/>
  <line class="cls-3" x1="211.5" y1="333.5" x2="211.5" y2="718.5"/>
  <line class="cls-3" x1="366.5" y1="224.5" x2="760.5" y2="224.5"/>
  <line class="cls-3" x1="251.5" y1="318.5" x2="849.5" y2="318.5"/>
  <line class="cls-3" x1="176.5" y1="417.5" x2="920.5" y2="417.5"/>
  <line class="cls-3" x1="136.5" y1="508.5" x2="960.5" y2="508.5"/>
  <line class="cls-3" x1="180.5" y1="592.5" x2="922.5" y2="592.5"/>
  <line class="cls-3" x1="251.5" y1="672.5" x2="842.5" y2="672.5"/>
  <line class="cls-3" x1="382.5" y1="770.5" x2="729.5" y2="770.5"/>
</svg>