<?xml version="1.0" encoding="UTF-8"?>
<svg id="Calque_1" data-name="Calque 1" xmlns="http://www.w3.org/2000/svg" viewBox="0 0 1080 1080">
  <defs>
    <style>
      .cls-1, .cls-2, .cls-3, .cls-4, .cls-5 {
        stroke-width: 0px;
      }

      .cls-1, .cls-6 {
        fill: none;
      }

      .cls-2 {
        fill: #7bae1a;
      }

      .cls-3 {
        fill: #648717;
      }

      .cls-6 {
        stroke: #000;
        stroke-miterlimit: 10;
        stroke-width: 3px;
      }

      .cls-4 {
        fill: #b0d844;
      }

      .cls-5 {
        fill: #2c4c17;
      }
    </style>
  </defs>
  <path class="cls-1" d="M352.57,180.35c-.31.02-.62.04-.94.07.29.03.58.05.87.08.02-.05.05-.1.07-.15Z"/>
  <path class="cls-3" d="M231.73,632.49c4.07,2.23,9.09-.56,9.41-5.19l10.3-149.87c-3.12,8.31-7.39,15.49-12.93,21.39-11.32,12.04-17.75,26.92-20.5,43.18,1.13-.18-.71.4-.5.5-.21-.1-.42-.21-.63-.32-.13.76-.26,1.52-.37,2.28-5.02,35.77-6.57,56.95-.94,70.79-.02-.25-.04-.51-.06-.76.02.25.04.5.06.76,3.06,7.54,8.24,12.9,16.17,17.24Z"/>
  <path class="cls-3" d="M717.29,544.73c-10.58,13.93-19.71,26.35-27.83,37.41-.96,16.41-3.34,31.65-7.1,45.82l14.48-9.11c.44-.23.87-.49,1.3-.75,7.88-4.72,18.09-2.21,29.15,2.92,7.22,3.35,15.64-1.18,16.93-9.03l8.28-50.39c.61-3.72,2.02-7.25,3.96-10.48,5.42-9.03,7.33-19.17,2.05-31.62-.76-1.79-1.33-3.64-1.72-5.53l-24.76,16.33c-5.59,4.07-10.56,8.93-14.74,14.43Z"/>
  <path class="cls-2" d="M605.47,661.57c-4.24,1.17-7.05,5.32-8.47,9.48-3.78,11.1-13.08,16.71-25.87,18.84-3.04.51-6.03,1.36-8.88,2.52-14.95,6.08-27.16,3.9-37.26-4.6-1.58-1.33-3.24-2.56-4.99-3.64-3.8-2.36-7.94-4.38-12.34-6.15-.05.16-.11.31-.16.47.05-.16.11-.31.16-.47-6.63-2.66-13.87-4.71-21.58-6.3-4.82-.99-8.1-3.83-12.08-6.73-25.14-18.33-46-41.67-62.48-67.59-18.53,2.4-35.48,2.2-49.94-2.11,6.44,72.84,33.93,120.81,91.43,130.9,5.56.97,9.79,5.57,10.33,11.18,3.99,41.72,13.49,71.88,37.26,72.14.64-.34,1.27-.67,1.91-1.02-.64.35-1.27.68-1.91,1.02,1.33.01,2.69-.04,4.11-.22,4.87-.6,9.68,1.23,12.98,4.86,7.92,8.71,14.27,8.35,19.22-.13,1.94-3.33,5.14-5.78,8.92-6.52,33.93-6.7,55.26-33.75,68.87-73.28,1.94-5.62,5.34-10.63,9.84-14.51,28.44-24.51,47.93-54.44,57.83-91.76l-.86.54.86-.54c3.76-14.17,6.14-29.41,7.1-45.82-35.26,48.03-51.45,70.43-83.98,79.43Z"/>
  <path class="cls-3" d="M463.33,738.38c-.54-5.62-4.77-10.21-10.33-11.18-57.5-10.09-84.99-58.05-91.43-130.9-10.42-3.11-19.56-8.35-27.04-16.31-1.86-1.98-3.86-3.81-5.8-5.72-12.62-12.4-3.29-41.13,21.43-81.33-12.37-20.28-20.98-42.76-23.77-65.52-.81-6.6-2.33-13.08-4.28-19.44-4.21-13.71-5.37-26.79-4.04-39.37-42.82,11.22-55.3,47.56-60.59,88.88-1.11,7.22-2.79,13.88-5.06,19.94l-10.3,149.87c-.32,4.63-5.34,7.42-9.41,5.19-7.92-4.34-13.1-9.7-16.17-17.24,7.04,87.8,129.06,237.96,251.22,207.9-.09-.22-.19-.44-.28-.65.09.22.19.44.28.65,10.96-2.7,21.93-6.86,32.81-12.63-23.77-.26-33.27-30.42-37.26-72.14Z"/>
  <path class="cls-3" d="M450.79,452.43c3.76,1.52,7.92,1.46,11.82.35,14.06-3.99,31.02,9.36,46.91,38.15.32-.15.65-.29.98-.43-.34.14-.66.29-.98.43,1.34,2.42,2.66,4.93,3.98,7.57,3.05,5.38-.06,11.23-7.85,17.45,11.58,2.38,25.33-1.31,33.85-12.45,9.03-11.8,17.5-32.5-1.5-43.5-22.26-12.89-43.63-27.47-54-44-13.43,5.43-27.77,8.23-41.13,7.33-4.4,13.06-4.52,24.07,7.93,29.1Z"/>
  <path class="cls-3" d="M558.51,383.82c4.07-11.35.11-22.82-10.2-34.38-5.47-6.13-11.99-11.21-19.05-15.43-9.82-5.87-18.35-12.81-26.03-20.12,1.53,35.39,6.72,63.47,19.56,76.3.24-.23.47-.45.71-.69-.24.24-.47.46-.71.69,3.46,3.46,7.47,5.82,12.12,6.91,10.02,2.34,20.12-3.59,23.6-13.27Z"/>
  <path class="cls-5" d="M514.5,497.5c-1.32-2.64-2.65-5.15-3.98-7.57-13.37,6.01-15.06,16.09-9.11,28.82,1.94-1.28,3.68-2.55,5.24-3.8-.12-.02-.24-.04-.36-.07.12.03.24.04.36.07,7.79-6.22,10.89-12.07,7.85-17.45Z"/>
  <path class="cls-2" d="M502.23,313.89c0-.15-.01-.3-.02-.45,0,.15.01.3.02.45,7.69,7.31,16.21,14.25,26.03,20.12,7.05,4.21,13.58,9.3,19.05,15.43,10.31,11.56,14.27,23.03,10.2,34.38-3.47,9.68-13.58,15.61-23.6,13.27-4.65-1.09-8.66-3.45-12.12-6.91-12.62,12.5-25.19,20.83-37.74,25.91,10.37,16.53,31.19,30.52,53.45,43.41,19,11,13.53,32.7,4.5,44.5-8.52,11.14-22.42,14.38-34,12-1.57,1.25-3.06,2.72-5,4,1.39,2.98,1.54,4.53,3.49,7.18,19.61,26.66,30.84,49.26,5.73,54.31-3.79.76-5.22,5.4-2.45,8.09l21.62,21.05c6.2,6.03,5.49,16.31-1.63,21.22-9.31,6.41-21.79,7.16-37.27,2.59-1.94-.57-3.92-1.04-5.89-1.49-18.31-4.16-22.59-19.01-21.86-37.66.19-4.76-4.29-8.35-8.9-7.11-15.41,4.13-30.32,7.42-44.32,9.24,16.48,25.91,37.34,49.25,62.48,67.59,3.97,2.9,7.26,5.74,12.08,6.73,7.71,1.58,14.95,3.64,21.58,6.3,4.64-14.56,12.12-23.71,22.66-24.99,4.75-.58,8.44-4.24,9.17-8.97,1.42-9.12,7.44-17.19,21.01-23.56,15.18-7.38,17.83-15.54,11.31-24.27-1.78-2.39-3.14-5.09-3.69-8.02-2.1-11.25,4.28-12.57,18.06-5.24,5.72,3.04,12.83,1.32,16.59-3.96,30.46-42.77,33.82-90.56,8.36-143.7-2.95-6.15-7.69-11.4-13.78-14.48-18.89-9.54-8.84-58.25,3.32-109.84-12.17,51.59-22.21,100.3-3.32,109.84,6.09,3.07,10.83,8.33,13.78,14.48,25.46,53.14,22.1,100.94-8.36,143.7-3.76,5.27-10.87,7-16.59,3.96-13.78-7.33-20.16-6-18.06,5.24.55,2.93,1.91,5.63,3.69,8.02,6.51,8.73,3.86,16.9-11.31,24.27-13.56,6.37-19.59,14.45-21.01,23.56-.74,4.73-4.42,8.39-9.17,8.97-10.55,1.28-18.02,10.44-22.66,24.99,4.4,1.76,8.54,2.62,12.34,4.97,1.75,1.09,6.42,3.67,8,5,10.11,8.51,19.05,12.08,34,6,2.86-1.16,6.09-3.6,9.13-4.11,12.79-2.13,22.09-7.74,25.87-18.84,1.42-4.16,4.23-8.3,8.47-9.48,32.53-9,48.72-31.41,83.98-79.43.01-.21.03-.43.04-.64-.01.22-.03.43-.04.64,8.12-11.06,17.25-23.48,27.83-37.41,4.18-5.5,9.15-10.37,14.74-14.43l24.76-16.33c-.61-2.89-.8-5.87-.59-8.84,1.81-24.42.95-46.13-12.29-55.26-3.69-2.55-5.97-6.8-5.38-11.25.05-.42.12-.83.21-1.24.82-3.99.73-8.11-.53-11.99l-35.56-110.16c-1.94-6.02-7.22-10.4-13.51-11.11-26.84-3.07-51.72-1.82-72.42,8.6-5.24,2.64-11.52,2.01-16.03-1.74l-15.39-12.83c-8.51-7.1-18.94-11.5-29.95-12.73-32.14-3.58-61.09-3-71.2,9.42,5.62,6.33,11.55,12.82,18.1,19.05Z"/>
  <path class="cls-2" d="M328.74,573.28c1.94,1.9,3.94,3.74,5.8,5.72,7.48,7.96,16.62,13.2,27.04,16.31-.02-.27-.05-.53-.08-.8.02.27.05.53.08.8,14.46,4.31,31.41,4.52,49.94,2.11-.19-.3-.39-.59-.57-.89.19.3.38.6.57.89,14.01-1.82,28.91-5.11,44.32-9.24,4.6-1.23,9.08,2.35,8.9,7.11-.73,18.66,3.54,33.5,21.86,37.66,1.97.45,3.95.91,5.89,1.49,15.48,4.57,27.96,3.82,37.27-2.59,7.12-4.9,7.83-15.19,1.63-21.22l-21.62-21.05c-2.77-2.69-1.33-7.33,2.45-8.09,25.11-5.04,13.88-27.65-5.73-54.31-1.95-2.65-3.69-5.46-5.08-8.43-5.95-12.73-4.26-22.8,9.11-28.82-15.89-28.78-32.84-42.13-46.91-38.15-3.9,1.11-8.06,1.17-11.82-.35-12.45-5.03-12.33-16.05-7.93-29.1-6.58-.44-13.16-1.51-19.73-3.08-3.12-.75-6.14-1.84-9.14-2.97-11.57-4.35-22.4,8.92-32.99,27.68-1.84,3.26-3.87,6.42-6.05,9.47-9.83,13.76-18.47,26.63-25.78,38.52.11.18.22.37.33.55-.11-.18-.22-.37-.33-.55-24.73,40.2-34.05,68.93-21.43,81.33Z"/>
  <path class="cls-2" d="M179.5,500.5c-.08.21-.16.41-.24.62,8.91,18.27,21.37,32.48,38.61,41.06,2.75-16.26,10.31-31.32,21.63-43.36,5.55-5.9,9.81-13.08,12.93-21.39l.06-.94-.06.94c2.28-6.06,3.95-12.72,5.06-19.94,5.28-41.32,17.76-77.67,60.59-88.88,2.91-27.33,17.64-52.27,38.68-75.92,3.22-3.62,6.72-6.98,10.42-10.1,33.36-28.07,55.13-32.91,72.92-25.97,13.3-19.51,34.16-27.8,64.86-21.47,6.36,1.31,13.33,2.23,18.54-1.65,5.52-4.12,12.89-9.3,18.5-13.5-11.56-23.55-25.81-37.65-41.12-26.38-1.78,1.31-3.28,2.94-4.65,4.67-5.75,7.31-14.91,8.71-25.73,7.21-41.03-10.22-85.07-27.24-116.93-25.15-.02.05-.05.1-.07.15-.29-.03-.21.53-.5.5-.38.03-.63-.03-1,0,.37-.03.62.03,1,0-14.39-1.5-27.37,1.9-38.5,10.5-17.72-1.23-32.76,2.85-42.5,17.5-35,31-67.16,66.03-95.37,100.76-15.63,19.24-19.75,45.46-17.63,76.24-.16,0-.32.01-.49.01,1.09,44.7,6.21,85.31,20.75,115.11.08-.21.16-.41.24-.62Z"/>
  <path class="cls-3" d="M128.89,596.24c1.67-11.81,6.74-22.87,14.48-31.95,13.74-16.1,25.99-38.81,34.89-62.18-14.54-29.8-19.66-70.41-20.75-115.11-22.84.08-39.06,24.56-50.51,64.99,3,29.48,1.88,59.84-3,91,.91,10.7,7.44,26.85,15,44,2.29,7.76,5.1,14.99,9.62,20.51.13-3.72-.25-7.58.27-11.27Z"/>
  <path class="cls-2" d="M497,868c-11.32-10.95-21.19-27.67-28.22-43.85-122.16,30.07-244.19-120.09-251.22-207.9-5.62-13.84-4.08-35.03.94-70.79.11-.76.37-3.71.5-4.46-17.24-8.59-29.83-20.61-38.74-38.88-8.9,23.37-21.15,46.07-34.89,62.18-7.74,9.08-12.81,20.14-14.48,31.95-.52,3.69-.76,7.03-.89,10.76.13.16-.13.84,0,1-7,29-1,84,24,132,48,54,116,126,140,135l35.98,7.53c4.62.97,10.34,1.52,14.02,4.47l12.66,10.13c49.03,24.86,96.43,16.58,140.34-29.13Z"/>
  <path class="cls-4" d="M863.5,693.94c-.33.18-.67.37-1,.56.33-.18.67-.37,1-.56-1.39-11.83-2.77-23.84-3.97-35.71-.58-5.74-5.97-9.73-11.63-8.59-24.92,4.99-45.89,8.72-59.26,5.11-7.3-1.97-11.99-9.07-10.96-16.57,9.49-69,8.55-124.96-2.15-168.71-.01,0-.02.02-.03.03.01,0,.02-.02.03-.03-1.51-6.18-3.22-12.12-5.12-17.81-1.78-5.34-2.83-10.88-3.11-16.49-2.77-55.2-33.96-117.56-65.41-179.97-3.7-7.35-6.2-15.26-7.11-23.44-.44-3.94-1.08-7.68-1.91-11.25-.12,0-.25,0-.37,0,.12,0,.25,0,.37,0-6.96-30.05-27.95-46.62-67.7-45.13-1.44.05-2.87.05-4.3-.04-18.18-1.13-49.49,21.33-80.64,44.63.09.18.18.35.26.53-.09-.18-.18-.35-.26-.53-5.61,4.2-11.21,8.42-16.74,12.53-5.2,3.88-12.18,2.96-18.54,1.65-30.7-6.33-51.56,1.96-64.86,21.47,16.07,6.27,28.89,22.16,44.03,39.23,10.11-12.42,39.06-13,71.2-9.42,11.02,1.23,21.44,5.63,29.95,12.73l15.39,12.83c4.51,3.75,10.79,4.38,16.03,1.74,20.71-10.42,45.59-11.67,72.42-8.6,6.29.72,11.56,5.09,13.51,11.11l37.36,109.76c1.25,3.88.82,8.01,0,12-.08.41.05,1.58,0,2-.58,4.45,2.31,7.45,6,10,13.24,9.13,13.81,31.58,12,56-.22,2.97-.61,5.11,0,8l-.5.5.5.5c.4,1.89,2.24,3.21,3,5,5.28,12.44.87,23.09-4.55,32.11-1.94,3.23-2.84,7.16-3.45,10.89l-7,50c-1.29,7.85-11.78,11.35-19,8-11.06-5.13-20.99-6.62-28.87-1.9-.43.26-.86.52-1.3.75l-12.84,9.15c-9.9,37.31-31.04,67.21-59.47,91.72-4.5,3.88-6.59,8.66-8.53,14.28-13.6,39.53-36.26,66.8-70.18,73.51-3.78.75-6.98,3.2-8.92,6.52-4.95,8.48-8.98,7.68-16.9-1.03-3.3-3.63-10.43-4.3-15.3-3.7-1.42.18-2.78.23-4.11.22-10.88,5.78-21.84,9.93-32.81,12.63,7.02,16.18,16.25,34.55,27.57,45.5.05-.05.1-.1.15-.15-.05.05-.1.1-.15.15.07.07.14.15.21.21-.07-.07-.14-.14-.21-.21-43.91,45.71-90.66,52.33-139.69,27.48l-.66,1.87c64,53,130.68,66.79,189,46,68.47,32.45,141,31,209-9,58.71-48.76,86.31-75.67,96-90,.14-.04.27-.08.4-.12,7.61-10.58,13.69-21.79,18.1-33.38,8.08-18.15,1.98-65.62-4-116.56Z"/>
  <path class="cls-2" d="M963.05,572.08c-16.84,61.34-55.02,98.67-99.05,122.92,5.98,50.94,12.08,99.85,4,118-4.41,11.58-11.98,21.3-19.6,31.88,58.7-17.17,81.59-80.06,80.6-157.88-.06-4.41,3.59-10.19,8-10,23,1,47.15-4.95,46-11,8.73-36.84-2.06-66.65-19.95-93.92Z"/>
  <path class="cls-2" d="M875.08,351.13c-3.13,3.32-5.2,7.55-5.54,12.1-2.48,33.79-44.34,68.81-93.54,105.78,10.7,43.75,10.18,101.18.69,170.18-1.03,7.49,3.66,14.59,10.96,16.57,13.36,3.61,34.34-.12,59.26-5.11,5.66-1.13,12.52,1.62,13.1,7.36,1.2,11.88,3.61,25.17,5,37,44.04-24.25,81.21-61.57,98.05-122.92-.02-.03-.04-.06-.05-.08,22.46-139.87-13.46-215.76-76-246,1.53,7.43-4.04,16.75-11.92,25.13Z"/>
  <path class="cls-2" d="M469.5,205.5c10.83,1.51,19.98.1,25.73-7.21,1.37-1.73,2.87-3.36,4.65-4.67,15.31-11.27,29.55,2.83,41.12,26.38,31.15-23.3,60.82-46.13,79-45,1.43.09,2.56.05,4,0,39.75-1.49,63.04,14.95,70,45,9.04.28,17.63-1.08,25.74-.55-21.56-46.23-44.13-77.88-67.74-94.45-74-38-73-49-127-27-74.49-19.96-134.95-.81-172.43,82.35,31.86-2.09,75.9,14.93,116.93,25.15Z"/>
  <path class="cls-4" d="M367.18,282.59c-3.7,3.12-7.2,6.49-10.42,10.1-21.04,23.65-35.77,48.59-38.68,75.92.14-.04.27-.08.41-.12-.14.04-.27.08-.41.12-1.34,12.58-.18,25.67,4.04,39.37,1.95,6.35,3.47,12.84,4.28,19.44,2.79,22.77,11.4,45.24,23.77,65.52,7.31-11.88,15.95-24.75,25.78-38.52,2.18-3.05,4.21-6.21,6.05-9.47,10.59-18.76,21.42-32.03,32.99-27.68,3,1.13,6.02,2.22,9.14,2.97,6.57,1.57,13.15,2.63,19.73,3.08.03-.1.06-.2.1-.3-.03.1-.07.2-.1.3,13.37.9,26.76-.8,40.19-6.23-.11-.17-.22-.34-.33-.52.11.17.22.34.33.52,12.55-5.07,25.12-13.4,37.74-25.91-12.84-12.83-18.04-40.9-19.56-76.3-6.54-6.22-12.48-12.72-18.1-19.05-.04.05-.09.1-.13.15.04-.05.09-.1.13-.15-15.15-17.07-27.96-32.96-44.03-39.23-.2.29-.41.58-.6.88.2-.3.4-.59.6-.88-17.79-6.94-39.57-2.1-72.92,25.97Z"/>
  <path class="cls-3" d="M694,220c.83,3.57.56,8.06,1,12,.91,8.17,4.3,16.65,8,24,31.45,62.42,62.23,125.8,65,181,.28,5.62,1.22,10.66,3,16,1.9,5.7,3.49,9.82,5,16,49.2-36.97,92.52-72.21,95-106,.33-4.55.96-8.55,4.08-11.87,7.88-8.38,13.45-17.69,11.92-25.13-.24-.12-.76-.89-1-1-7.05-16.33-26-15-46-17-31.54-9.76-37.89-33.75-42-59-11.54-17.75-41.01-25.48-78-29-.09-.18-.91,1.18-1,1-8.12-.53-15.96-.72-25-1Z"/>
  <path class="cls-6" d="M352.5,180.5c32.72-72.13,88.13-103.51,167.08-82.37,3.23.87,6.66.69,9.79-.49,9.33-3.54,18.27-6.75,26.37-9.24,8.92-2.75,18.56-1.94,26.87,2.31l65.44,33.52c4.1,2.1,7.99,4.57,11.58,7.45,22.84,18.31,42.77,53.6,60.86,88.83"/>
  <path class="cls-6" d="M157.5,387.5c-21.8,1.11-37.85,18.99-48.17,53.54-1.84,6.17-2.63,12.6-2.34,19.03,1.08,23.88.02,51.54-2.17,81.22-.24,3.25-.02,6.52.67,9.71,2.25,10.37,6.68,21.12,12.58,32.11,1.45,2.7,2.5,5.61,2.97,8.64,1.19,7.68,3.49,13.26,8.46,13.75"/>
  <path class="cls-6" d="M344.5,888.5c55.09,48.66,116.65,79.06,199,55"/>
  <path class="cls-6" d="M848.5,846.5c53.4-14.95,80.2-67.69,80.12-158.63,0-5.61,4.63-10.1,10.24-9.96,25.99.64,46.46-2.25,46.1-18.43-.08-3.56-.04-7.13.23-10.68,2.16-29.02-6.57-54.77-22.69-78.3"/>
  <path class="cls-6" d="M219.5,541.5c-52.13-25.38-62.72-97.95-61.45-183.98.2-13.49,4.25-26.66,11.81-37.84,22.34-33.03,59.23-70.61,99.7-109.32,1.02-.97,2.01-1.98,2.91-3.07,8.03-9.75,19.87-15.01,36.24-14.95,3.05.01,6-.95,8.55-2.61,30.86-20.05,94.67-.07,154.25,14.78,10.83,1.51,19.98.1,25.73-7.21,1.37-1.73,2.87-3.36,4.65-4.67,15.43-11.36,27.98,4.02,39.62,27.88"/>
  <path class="cls-6" d="M863.5,694.5c52.04-28.38,93.52-71.17,104.96-154.92,5.19-37.97,2.84-76.65-6.76-113.75-14.91-57.61-41.86-87.68-75.2-99.33"/>
  <path class="cls-6" d="M694.5,219.5c62.85,2.57,102.4,13.81,104.98,38.81.71,6.86,2.79,13.52,5.77,19.74,11.58,24.1,29.13,34.86,53.17,31.17,6.79-1.04,13.76.79,19.16,5.04,13.23,10.44,12.07,22.5-.5,35.87-3.13,3.32-5.2,7.55-5.54,12.1-2.48,33.8-44.83,70.3-94.04,107.28"/>
  <path class="cls-6" d="M179.5,501.5c-8.91,23.58-20.27,44.55-34.13,60.79-7.74,9.08-12.81,20.14-14.48,31.95-6.83,48.32-2.02,94.82,18.85,138.81,2.85,6,6.67,11.5,11.23,16.34,37.88,40.2,69.02,71.68,92.93,93.81,2.18,2.02,4.28,4.14,6.28,6.34,19.42,21.41,39.84,31.12,61.05,31.57,7.81.17,15.45,2.43,22.09,6.53,53.96,33.27,105.26,29.84,153.17-20.14"/>
  <path class="cls-6" d="M468.5,823.5c7.59,17.56,17.66,35.34,30.49,46.59,4.91,4.31,7.39,10.73,6.57,17.21-2.4,18.86,1.49,34.18,17.95,42.43,2.88,1.44,5.61,3.15,8.14,5.15,54.78,43.31,159.88,37.6,219.85.61,48-39,98.64-76.76,117-125,9.96-22.36-1.61-89.24-7.97-152.27-.58-5.74-5.97-9.73-11.63-8.59-24.92,4.99-45.89,8.72-59.25,5.11-7.3-1.97-11.99-9.07-10.96-16.57,10.83-78.74,8.08-140.51-7.27-186.52-1.78-5.34-2.83-10.88-3.12-16.49-2.77-55.2-33.96-117.56-65.41-179.97-3.7-7.35-6.2-15.26-7.11-23.44-4.13-37.13-25.13-58.05-69.6-56.38-1.43.05-2.87.05-4.3-.04-21.45-1.33-61.19,30.19-97.38,57.16-5.2,3.88-12.18,2.96-18.54,1.65-31.17-6.43-52.19,2.2-65.46,22.35"/>
  <path class="cls-6" d="M503.5,809.5c-133,73-279-100-286-196"/>
  <path class="cls-6" d="M362.5,595.5c6.31,73.3,33.79,120.57,91.51,130.7,5.56.98,9.79,5.57,10.33,11.18,4.21,44.05,14.56,75.23,41.37,71.92,4.87-.6,9.68,1.23,12.98,4.86,7.92,8.71,14.27,8.35,19.22-.13,1.94-3.33,5.14-5.78,8.92-6.52,33.93-6.7,55.26-33.75,68.87-73.28,1.94-5.62,5.34-10.63,9.84-14.51,39.38-33.94,61.61-77.27,64.97-137.22"/>
  <path class="cls-6" d="M485.5,293.5c9.99-12.57,38.55-11.67,70.83-8.07,11.02,1.23,21.44,5.63,29.95,12.73l15.39,12.83c4.51,3.75,10.79,4.38,16.03,1.74,20.71-10.42,45.59-11.67,72.42-8.6,6.29.72,11.56,5.09,13.51,11.11l35.56,110.16c1.25,3.88,1.34,8,.53,11.99-.08.41-.15.82-.21,1.24-.58,4.45,1.69,8.7,5.38,11.25,13.24,9.13,14.1,30.84,12.29,55.26-.36,4.9.39,9.84,2.31,14.36,5.28,12.44,3.36,22.59-2.05,31.62-1.94,3.23-3.35,6.76-3.96,10.48l-8.28,50.39c-1.29,7.85-9.71,12.38-16.93,9.03-11.06-5.13-21.27-7.64-29.15-2.92-.43.26-.86.52-1.3.75l-14.34,9.65"/>
  <path class="cls-6" d="M318.5,367.5c-43.16,11.09-54.7,47.54-60,89-2.63,17.13-8.41,31.12-18,41.32-11.85,12.6-19.59,28.51-22,45.64-7.75,55.24-7.24,75.73,15.22,88.03,4.07,2.23,9.09-.56,9.41-5.19l10.36-149.81"/>
  <path class="cls-6" d="M503.21,313.45c1.9,45.16,9.73,78.51,31.7,83.65,10.02,2.34,20.13-3.59,23.6-13.27,4.07-11.35.11-22.82-10.2-34.38-5.47-6.13-11.99-11.21-19.05-15.43-65.69-39.26-73.28-126.32-161.08-52.42-3.7,3.12-7.2,6.49-10.42,10.1-30.72,34.54-48.01,71.81-34.64,115.3,1.95,6.35,3.47,12.84,4.28,19.44,2.81,22.97,10.55,44.65,23.1,65.08"/>
  <path class="cls-6" d="M512.5,489.5c-14.28,5.96-16.19,16.21-10.09,29.25,1.39,2.98,3.13,5.79,5.08,8.43,19.61,26.66,30.84,49.26,5.73,54.31-3.79.76-5.22,5.4-2.45,8.09l21.62,21.05c6.2,6.03,5.49,16.32-1.63,21.22-9.31,6.41-21.79,7.16-37.27,2.59-1.94-.57-3.92-1.04-5.89-1.49-18.31-4.16-22.59-19.01-21.86-37.66.19-4.76-4.29-8.35-8.9-7.11-50.5,13.54-95.61,18.17-121.31-9.18-1.86-1.98-3.86-3.81-5.8-5.72-16.35-16.06,4.11-59.53,47.21-119.85,2.18-3.05,4.21-6.21,6.05-9.47,10.59-18.76,21.42-32.03,32.99-27.68,3,1.13,6.02,2.22,9.14,2.97,32.62,7.8,65.36,3.37,98.36-29.75"/>
  <path class="cls-6" d="M601.68,310.98c-12.17,51.59-22.21,100.3-3.32,109.84,6.09,3.07,10.83,8.33,13.78,14.48,25.46,53.14,22.1,100.94-8.36,143.7-3.76,5.27-10.87,7-16.59,3.96-13.78-7.33-20.16-6-18.06,5.24.55,2.93,1.91,5.63,3.69,8.02,6.51,8.73,3.86,16.9-11.31,24.27-13.56,6.37-19.59,14.45-21.01,23.56-.74,4.73-4.42,8.39-9.17,8.97-10.66,1.3-18.19,9.63-22.82,24.47"/>
  <path class="cls-6" d="M444.96,422.03c-4.5,13.19-4.71,24.33,7.83,29.4,3.76,1.52,7.92,1.46,11.82.35,15.24-4.32,33.89,11.72,50.89,45.72,3.66,6.46-1.54,13.61-13.09,21.25"/>
  <path class="cls-6" d="M484.73,415.58c10.26,16.75,31.28,30.9,53.77,43.92,19,11,12.03,31.2,3,43-8.61,11.25-21.56,14.91-33.21,12.38"/>
  <path class="cls-6" d="M411.95,597.52c16.6,26.25,36.38,49.73,61.81,68.27,3.97,2.9,8.51,4.95,13.32,5.94,12.82,2.63,24.37,6.53,33.92,12.44,1.75,1.09,3.42,2.31,4.99,3.64,10.11,8.51,22.31,10.68,37.26,4.6,2.86-1.16,5.84-2.02,8.88-2.52,12.79-2.13,22.09-7.74,25.87-18.84,1.42-4.16,4.23-8.3,8.47-9.48,40.03-11.07,55.31-42.44,111.81-116.84,4.18-5.5,9.15-10.37,14.74-14.43l23.7-17.25"/>
</svg>