<?xml version="1.0" encoding="UTF-8"?>
<svg id="Calque_1" data-name="Calque 1" xmlns="http://www.w3.org/2000/svg" viewBox="0 0 1080 1080">
  <defs>
    <style>
      .cls-1 {
        fill: #b22b2b;
      }

      .cls-1, .cls-2, .cls-3 {
        stroke-width: 0px;
      }

      .cls-4 {
        fill: red;
      }

      .cls-4, .cls-5, .cls-6 {
        stroke: #000;
        stroke-miterlimit: 10;
        stroke-width: 3px;
      }

      .cls-5 {
        fill: #866612;
      }

      .cls-2 {
        fill: #3f3726;
      }

      .cls-6 {
        fill: none;
      }

      .cls-3 {
        fill: #fff;
      }

      .cls-7 {
        fill: #000;
        font-family: Fredoka-Bold, Fredoka;
        font-size: 25px;
        font-variation-settings: 'wght' 700, 'wdth' 100;
        font-weight: 700;
      }
    </style>
  </defs>
  <path class="cls-2" d="M488.73,247.82l-.82,32.43c-.02.78.4,1.53,1.17,2.09l3.46,2.49c.85.61,1.27,1.46,1.15,2.31l-6.95,51.66c-.24,1.76-1.29,3.42-2.99,4.7-28.25,21.25-42.39,25.61-42.87,58.75l-3,333.56c-1.45,22.23,2.18,39.34,24,38.1h130c20.7,1.45,25.81-14.44,22-40.26l1.96-324.52c.04-6.71-.54-13.41-1.87-20.05-5.87-29.28-19.32-28.57-39.08-46.12-1.31-1.16-2.13-2.58-2.37-4.06l-8.36-52.09c-.17-1.07.51-2.12,1.75-2.72l2.18-1.05c1.11-.53,1.78-1.43,1.78-2.39v-32.5c0-3.61-3.39-6.78-8.26-7.66-16.98-3.07-46.6-2.8-64.11-.27-5.05.73-8.69,3.9-8.78,7.6Z"/>
  <path class="cls-1" d="M565,287h-72c.27-1.83,1.15-3.33-4-5l-.12-33.58c0-4.72,5.4-8.57,12-8.57,17.22-1.88,35.67-1.68,55,0,6.6,0,13,3.14,13,7.86l1.12,34.3c-8.88,2.8-4.26.23-5,5Z"/>
  <path class="cls-6" d="M488.73,247.82l-.82,32.43c-.02.78.4,1.53,1.17,2.09l3.46,2.49c.85.61,1.27,1.46,1.15,2.31l-6.95,51.66c-.24,1.76-1.29,3.42-2.99,4.7-28.25,21.25-42.39,25.61-42.87,58.75l-3,333.56c-1.45,22.23,2.18,39.34,24,38.1h130c20.7,1.45,25.81-14.44,22-40.26l1.96-324.52c.04-6.71-.54-13.41-1.87-20.05-5.87-29.28-19.32-28.57-39.08-46.12-1.31-1.16-2.13-2.58-2.37-4.06l-8.36-52.09c-.17-1.07.51-2.12,1.75-2.72l2.18-1.05c1.11-.53,1.78-1.43,1.78-2.39v-32.5c0-3.61-3.39-6.78-8.26-7.66-16.98-3.07-46.6-2.8-64.11-.27-5.05.73-8.69,3.9-8.78,7.6Z"/>
  <rect class="cls-4" x="472.38" y="487.88" width="110" height="175.62" rx="12" ry="12"/>
  <line class="cls-5" x1="493.7" y1="287.25" x2="564.16" y2="286.81"/>
  <text class="cls-7" transform="translate(487.86 566.29)"><tspan x="0" y="0">SAUCE </tspan><tspan x="8.21" y="30">SOJA</tspan></text>
  <path class="cls-3" d="M556.38,369.88c24.19-2,42.66,21.95,39,45-2.02-5.17-3.9-10.07-6.2-14.66-7.13-14.79-17.79-23.76-32.8-30.34h0Z"/>
</svg>