<?xml version="1.0" encoding="UTF-8"?>
<svg id="Calque_1" data-name="Calque 1" xmlns="http://www.w3.org/2000/svg" viewBox="0 0 1080 1080">
  <defs>
    <style>
      .cls-1 {
        fill: none;
      }

      .cls-1, .cls-2, .cls-3 {
        stroke: #000;
        stroke-miterlimit: 10;
        stroke-width: 4px;
      }

      .cls-2 {
        fill: #fcf0e3;
      }

      .cls-3 {
        fill: #efe7e6;
      }
    </style>
  </defs>
  <path class="cls-3" d="M523,177c-7.62-1.36,5.09,135.13-22,169-25.06,31.33-200.21,110.85-224.25,192.49-1.52,5.08-27.26,98.22,29.63,173.42,37.6,49.61,90.26,64.52,124.64,74.35,43.02,12.2,77.23,11.01,133.11,8.81,44.04-1.69,74.01-6.78,127.18-16.25,29.3-5.25,43.7-8.81,60.62-16.25,14.57-6.44,42.34-18.79,65.03-45.9,49.61-59.27,33.7-139.89,29.29-158-.03-.1-.06-.21-.09-.33-1.41-5.29-3.3-10.45-5.78-15.33-87.39-171.97-193.82-135.81-224.69-193.27-22.65-42.16-29.76-119.59-32.69-136.7-.76-4.45-54.14-34.99-60-36.03Z"/>
  <path class="cls-1" d="M758.15,522.77c12.54,10.67,42.34,38.95,56.05,86.7,16.1,55.54,0,101.44-5.59,116"/>
  <path class="cls-1" d="M356.33,522.58c-11.52,11.69-38.95,42.34-48.76,90.94-11.35,56.56,8.48,103.61,15.43,117.48"/>
  <path class="cls-1" d="M431.68,568.48c-11.52,11.69-38.95,42.34-48.76,90.94-11.35,56.56,8.3,101.1,15.25,114.98"/>
  <path class="cls-1" d="M662,564c56,29,71,140,43,212"/>
  <g>
    <path class="cls-2" d="M578.03,758.26c21.9-24.87,58.09-30.72,102.7-25.38,5.67.68,11.39,1.03,17.1,1.12l97.96,1.62c8.22.14,15.74,4.71,19.61,11.96,4.98,9.3,9.32,17.98,12.32,25.34,3.42,8.4,3.96,17.71,1.5,26.44-34.51,122.27-202.19,118.76-256.37-8.88-4.6-10.83-2.59-23.39,5.18-32.21Z"/>
    <path class="cls-2" d="M809,749.84c-3.88,15.21,1.51,26.8,13,36"/>
  </g>
</svg>