<?xml version="1.0" encoding="UTF-8"?>
<svg id="Calque_1" data-name="Calque 1" xmlns="http://www.w3.org/2000/svg" viewBox="0 0 1080 1080">
  <defs>
    <style>
      .cls-1 {
        fill: #117222;
        stroke: #000;
        stroke-miterlimit: 10;
        stroke-width: 2px;
      }
    </style>
  </defs>
  <path class="cls-1" d="M478.08,217.34c1.53,4.69,1.93,8.99,2.49,13.24,2.08,15.85,2.77,31.78,2.09,47.76-.14,3.38-.13,6.77-.05,10.15.09,3.71.2,7.41-.86,11.03-.08.26.14.6.33,1.28.62-.7,1.21-1.18,1.56-1.8,4.22-7.54,7.09-15.5,7.86-24.18.49-5.62,1.19-11.21,1.88-16.81.2-1.59.6-3.17,1.05-4.71.29-.99,1.05-1.69,2.15-1.55.95.12,1.13,1,1.29,1.8.03.16.04.32.05.48.02.32.05.64.04.97-.28,6.92-.29,13.87-.9,20.76-.74,8.33-3.99,15.9-8.14,23.08-2.33,4.03-4.76,8.01-7.29,12.24.49,1.47.8,3.08,1.54,4.46,3.31,6.21,4.78,12.97,6.17,19.77,1.29,6.32,2.51,12.65,3.92,18.93,2.02,8.99,2.9,18.14,3.92,27.26.75,6.72,1.23,13.47,1.86,20.21.04.42.29.83.43,1.21.97,0,1.18-.74,1.32-1.29.73-2.8,1.61-5.6,1.98-8.45,1.38-10.71,2.42-21.42,2.18-32.28-.25-11.59-.01-23.24,1.87-34.72,1.12-6.83,2.77-13.57,4.28-20.34.25-1.12.46-2.53,1.83-2.97,1.2.78.9,1.81.92,2.7.19,6.79-.71,13.52-1.53,20.23-1.69,13.8-1.88,27.64-1.53,41.51,0,.25.28.48.44.75,1.04-.05,1.17-.95,1.48-1.63,2.52-5.64,3.99-11.56,4.72-17.68.4-3.36.82-6.72,1.17-10.09.6-5.82,2.3-11.36,4.28-16.82.37-1.03.99-2.02,1.67-2.88.3-.38,1.05-.41,1.91-.7,0,1.31.11,2.26-.02,3.18-1.3,9.91-2.63,19.81-3.98,29.71-.77,5.65-2.75,10.94-5.13,16.06-1.56,3.35-3.08,6.85-7.05,7.99-.39,3.4-.85,6.42-1.06,9.45-.57,7.96-2.52,15.62-5.58,22.92-2.94,7-3.98,14.06-3.57,21.66.41,7.57.39,15.15,2.26,22.54.86,3.43,1.8,6.87,3.12,10.14,3.37,8.38,6.63,16.78,8.92,25.53.18.68.52,1.33.92,2.31,1.32-1.58,1.09-3.08,1.18-4.46.61-9.49,1.13-18.98,1.76-28.47.82-12.23,2.07-24.4,3.98-36.51,1.08-6.84,1.82-13.74,2.9-20.58,1.6-10.18,2.99-20.41,5.8-30.36,1.71-6.05,3.53-12.06,5.06-18.15,1.53-6.09,2.73-12.26,4.12-18.38.89-3.93,1.86-7.83,2.78-11.76.59-2.51,1.16-5.02,1.71-7.54,1.63-7.5,1.1-15.05.72-22.63-.38-7.57-3.02-14.46-5.62-21.4-2.54-6.79-5.25-13.52-7.72-20.34-4.94-13.6-7.47-27.66-7.73-42.13-.03-1.77.01-3.55-.11-5.32-.07-.93-.3-1.9-.66-2.76-.88-2.07-1.94-4.06-2.84-6.12-1.24-2.83-2.84-5.41-4.95-7.68-1.97-2.13-3.77-4.44-5.86-6.43-6.22-5.92-9.46-13.39-11.2-21.55-1.59-7.43-2.03-15.01-1.72-22.61.07-1.71-.07-3.53,1.06-4.98,1.49-.11,1.79.96,1.94,1.81.45,2.53.73,5.1,1.09,7.65.66,4.63,1.23,9.27,2.02,13.87.79,4.63,2.3,9.08,4.49,13.23,1.27,2.41,2.75,4.76,4.48,6.85,3.08,3.72,6.41,7.24,9.66,10.81.29.32.75.48,1.51.94.09-1.04.25-1.77.2-2.49-.93-13.34-1.82-26.69-2.87-40.02-.51-6.43-1.67-12.78-3.16-19.06-.61-2.58-.73-5.11.31-7.59.46-1.1,1.25-1.87,2.99-1.44.21.5.56,1.18.78,1.9,4.38,13.97,5.67,28.42,6.48,42.91.95,16.9,2.17,33.78,2.25,50.72.03,6.12.92,12.17,2.46,18.72.64-.86,1.15-1.25,1.27-1.74,3.64-14.38,6.89-28.86,8.16-43.67.93-10.92,1.47-21.87,2.17-32.8.13-2.05-.17-4.16.91-6.47.59.52,1.24.83,1.4,1.3.49,1.52,1.03,3.08,1.14,4.65.67,10.13,1.23,20.27.07,30.42-1.12,9.77-2.6,19.49-4.8,29.08-.21.92-.33,1.87-.48,2.71.99.76,1.24-.08,1.57-.48,1.45-1.73,2.74-3.6,4.3-5.22,3.78-3.91,6.47-8.48,8.01-13.64,2.03-6.79,3.77-13.66,5.63-20.5.42-1.55.79-3.12,1.31-4.64.19-.54.75-.96,1.43-1.77.47,1,1.04,1.65,1.04,2.31,0,10.98-2.12,21.49-7.69,31.07-1.36,2.33-3.34,4.32-5.15,6.37-3.84,4.35-7.77,8.61-11.6,12.97-.6.69-1.01,1.66-1.21,2.57-.49,2.2-1.02,4.42-1.14,6.65-.37,7.09-.29,14.17.52,21.24.4,3.43,1.37,6.62,2.89,9.67,3.53,7.08,6.51,14.37,8.7,21.98.48,1.67.96,3.4,2.74,4.49,1.39-2.02,1.87-4.23,2.48-6.36,2.68-9.29,5.44-18.56,7.85-27.92,2.7-10.49,6.37-20.63,10.32-30.67,3.73-9.46,6.47-19.23,9.18-29.01,1.85-6.67,3.72-13.34,5.68-19.98.4-1.35.41-2.58-.3-3.7-4.08-6.44-5.51-13.65-6.3-21.07-.07-.64-.2-1.27-.35-2.2-2.71-.72-4.36-2.8-5.85-5.14-2.26-3.53-4.7-6.93-6.97-10.45-.69-1.07-1.28-2.27-1.58-3.5-1.86-7.84-3.72-15.69-4.46-23.74-.07-.79-.2-1.64-.02-2.39.13-.53.66-1.21,1.15-1.35.48-.14,1.41.15,1.65.55.74,1.22,1.45,2.52,1.81,3.89,1.54,5.76,3.09,11.52,4.37,17.33.6,2.73,1.41,5.24,3,7.56,1.45,2.13,2.71,4.39,4.1,6.56.3.47.79.83,1.42,1.47.28-.8.54-1.21.54-1.62-.02-1.77.11-3.59-.22-5.31-2.35-12.11-1.94-24.41-2.54-36.62-.31-6.4.47-12.87.84-19.3.09-1.65.24-1.64,2.36-2.41,1.15,1.52.96,3.38,1.06,5.09.63,10.62,1.12,21.24,1.75,31.86.26,4.34.73,8.67,1.13,12.99.4,4.33.84,8.66,1.24,12.99.49,5.29.72,10.63,1.54,15.87.62,3.95,1.88,7.81,3.11,11.64.47,1.46,1.63,2.7,2.73,4.44.65-1.1,1.15-1.7,1.39-2.4,4.45-12.79,8.27-25.77,11.77-38.85.08-.31.17-.62.21-.94,1.64-12.28,4.18-24.47,3.36-36.98-.27-4.18-.32-8.37-.38-12.55,0-.53.44-1.31.89-1.54.43-.23,1.27-.08,1.73.22,2.12,1.39,3.45,3.17,3.42,5.95-.05,4.35.22,8.7.35,13.04.16,5.33-.05,10.64-1.24,15.87-.14.63-.26,1.27-.3,1.91-.52,8.42-2.3,16.58-4.78,24.62-.27.88-.29,1.84-.47,3,9.16-4.28,14-11.55,16.14-20.74,2.48-10.67,4.71-21.4,6.99-32.12.8-3.78,1.44-7.6,2.18-11.4.18-.95.41-1.89.7-2.81.28-.89.53-2.09,1.75-1.79.45.11.76,1.24.92,1.95.14.61.01,1.28-.03,1.92-.72,9.65-1.66,19.27-3.55,28.77-.72,3.64-1.43,7.28-2.37,10.86-.9,3.42-2.1,6.75-3.15,10.13-.18.57-.27,1.16-.44,1.93,2.15.22,3.26-1.01,4.35-2.11,2.65-2.66,4.58-5.81,5.95-9.3,1.47-3.75,2.88-7.53,4.42-11.25,1.05-2.53,2.21-5.01,3.46-7.45.57-1.11,1.25-2.32,3.03-2.2,0,.76.18,1.58-.03,2.27-1.88,6.16-3.63,12.38-5.83,18.43-2.05,5.62-5.66,10.09-11.35,12.57-1.18.51-2.27,1.25-3.48,1.68-2.2.78-3.76,2.29-5.45,3.83-2.72,2.48-5.83,4.54-8.78,6.78-2.17,1.65-4.32,3.32-6.54,4.91-1.17.84-1.37,2.12-1.77,3.33-2.39,7.19-4.66,14.42-7.21,21.55-2.11,5.91-4.4,11.78-6.89,17.54-3.34,7.72-5.98,15.66-8.04,23.79-5.47,21.59-12.14,42.78-20.3,63.51-4.44,11.27-7.89,22.84-10.55,34.65-.24,1.07-.37,2.17-.54,3.15,1.12.82,1.73.11,2.24-.4,2.38-2.41,4.78-4.8,7.01-7.33,2.14-2.42,4.31-4.74,6.9-6.72,2.55-1.95,4.85-4.25,7.08-6.57,3.57-3.7,7-7.55,10.48-11.33-.56-1.54-1.29-2.98-1.56-4.5-.24-1.4-.03-2.89.09-4.33.26-3.21.41-6.45.94-9.62.97-5.86,3.42-11.06,7.61-15.35.53-.54,1.2-.92,1.71-1.31,1.04.65.71,1.26.43,1.8-3.1,5.82-4.55,12-4.42,18.6.04,2.08-.3,4.18-.41,6.27-.04.73.08,1.47.13,2.39,4.71-3.31,14.95-16.46,18.75-23.91-.04-.31.04-.72-.12-.92-2.28-2.78-2.8-5.98-2.8-9.5.01-10.19.87-20.28,2.77-30.28.9-4.74,1.81-9.5,3.04-14.16.6-2.29,1.87-4.42,2.97-6.56.52-1,.66-.93,3.16-.91-.07,1.09-.06,2.17-.23,3.22-1.62,10.35-3.38,20.68-4.88,31.04-1.04,7.19-.71,14.44-.79,22.22.99-.48,1.67-.59,1.94-.98,2.82-4.12,5.57-8.29,8.36-12.44.85-1.27.98-2.55.77-4.1-1.03-7.59-.54-15.11,1.4-22.53,2.65-10.13,5.31-20.26,8.01-30.38,2.25-8.41,4.72-16.75,8.47-24.65.61-1.29.95-2.75,2.7-3.64.34.66.93,1.27.93,1.9.02,1.6-.03,3.25-.39,4.8-1.08,4.71-2.26,9.39-3.51,14.06-2.54,9.49-5.16,18.97-7.72,28.45-.97,3.58-1.95,7.16-2.78,10.77-.58,2.51-.98,5.06-1.31,7.61-.18,1.41-.03,2.87-.03,4.3,1.08.14,1.46-.62,1.76-1.34,1.99-4.75,4.16-9.44,5.87-14.29,3.02-8.54,6.9-16.66,11.18-24.62,2.67-4.96,4.96-10.12,7.39-15.21,3.69-7.7,7.33-15.43,11.04-23.12.63-1.29,1.44-2.53,2.35-3.64.79-.97,1.88-1.12,3.16-.19-5.53,13.23-9.55,27.04-16.21,39.79-2.46,4.71-5,9.39-7.41,14.12-.71,1.39-1.66,2.75-1.52,4.57,1.64.79,3.14.15,4.63-.42,6.73-2.57,12.02-6.82,15.25-13.37,1.07-2.17,2.05-4.38,2.99-6.6,2.35-5.53,5.33-10.66,9.4-15.12,1.84-2.02,3.62-4.11,5.45-6.14.44-.49.49-.44,2.71-.59.22,1.37-.47,2.47-1.09,3.54-1.7,2.93-3.55,5.76-5.19,8.72-1.95,3.52-3.76,7.11-5.59,10.7-.73,1.43-1.35,2.93-2,4.4-4.21,9.43-11.66,14.73-21.55,16.93-2.19.49-4.37.99-6.87,1.56-.5,1.17-1.15,2.45-1.61,3.79-3.19,9.34-7.27,18.26-12.31,26.75-1.4,2.35-2.68,4.79-3.89,7.24-2.29,4.65-5.04,8.95-8.49,12.86-2.22,2.52-4.09,5.4-5.77,8.32-2.34,4.07-4.85,7.99-7.95,11.52-.41.46-.69,1.03-1.33,2.01,1,0,1.63.17,2.07-.04,1.01-.47,1.99-1.05,2.87-1.74,3.31-2.57,6.62-5.14,9.84-7.81,7.97-6.62,15.34-13.77,20.59-22.87,3.39-5.88,7.58-11.23,12.16-16.22,5.71-6.21,10.57-12.99,14.82-20.24,1.97-3.35,4.3-6.42,7.11-9.12.9-.86,1.83-1.18,3.28-.53-.31.85-.48,1.59-.83,2.24-1.51,2.85-3.17,5.62-4.58,8.51-2.92,5.99-6.66,11.41-11.14,16.32-6.1,6.69-11.65,13.77-16.33,21.54-5.32,8.84-12.87,15.63-20.82,22.02-2.64,2.12-5.42,4.06-7.94,6.31-3.16,2.82-7.12,3.78-10.96,4.8-3.33.88-5.87,2.37-7.82,5.15-1.85,2.64-3.9,5.13-5.79,7.75-2.57,3.56-5.49,6.73-9.18,9.17-1.33.88-2.51,2.02-3.74,3.06-1.84,1.56-3.72,3.08-5.49,4.71-1.54,1.41-3.09,2.85-4.43,4.45-4.64,5.57-9.25,11.18-13.75,16.86-2.93,3.69-4.93,7.91-6.39,12.39-4.25,13.05-7.43,26.36-9.74,39.89-1.79,10.48-4.05,20.9-5.53,31.42-3.03,21.54-6.15,43.08-7.77,64.8-2.8,37.47-4.3,74.99-3.83,112.57.06,4.84.11,9.67.02,14.51-.15,8.41.85,16.74,1.77,25.06,1.88,16.98,3.48,33.99,4.36,51.05.13,2.49.25,5.01,1.26,8.1.91-1.31,1.52-2.01,1.93-2.81,3.05-5.86,6.08-11.73,9.1-17.6,3.02-5.88,6.04-11.75,8.99-17.66,1.44-2.88,2.72-5.84,4.09-8.76.77-1.65,1.13-3.37.86-5.17-.51-3.34-1.07-6.68-1.65-10.01-.25-1.46-.78-2.78-2.07-3.69-5.9-4.15-9.25-10.34-12.33-16.49-3.39-6.75-6.18-13.83-7.76-21.3-.26-1.24-.4-2.54-.34-3.8.02-.47.69-1.14,1.2-1.29.51-.15,1.41.04,1.72.42.7.85,1.22,1.88,1.66,2.91,2.54,5.92,5.06,11.85,7.52,17.81,1.6,3.87,3.7,7.4,6.2,10.76,1.35-.9.68-1.9.51-2.7-.89-4.26-1.94-8.48-2.82-12.74-.36-1.73-.49-3.51-.63-5.27-.8-10.28-1.51-20.57-2.37-30.84-.39-4.65-.89-9.3-1.64-13.91-.61-3.81-1.75-7.53-2.47-11.33-.57-2.98-1-6.02-.45-9.58.93.56,1.82.78,2.05,1.29,3.58,7.94,7.17,15.92,7.74,24.78.82,12.71,2.67,25.33,2.95,38.08.06,2.72.53,5.46,1.09,8.13,1.6,7.73,3.33,15.44,5.04,23.15.34,1.53.84,3.03,1.34,4.84,1.51-.72,1.69-1.86,1.99-2.82,1.55-4.92,3.06-9.85,4.57-14.78,1.65-5.39,3.24-10.8,4.94-16.18.6-1.9.67-3.68.21-5.67-1.95-8.48-4.03-16.94-5.49-25.5-1.61-9.52-2.77-19.14-2.24-28.87.25-4.66.09-9.35.3-14.02.1-2.28-.56-4.19-2.14-5.67-2.83-2.64-3.94-6.07-5.36-9.53-3.28-8.02-4.77-16.35-5.71-24.87-.46-4.15-1.4-8.25-2.08-12.39-.23-1.42-.43-2.87-.44-4.3,0-.49.54-1.17,1.02-1.43.77-.43,1.6-.16,2.07.62,2.05,3.48,4.01,7.01,4.59,11.09.4,2.87.79,5.75,1.09,8.63.9,8.71,3.04,17.08,6.85,24.98.95.05,1.05-.65,1.03-1.25-.12-4.83-.31-9.66-.44-14.49-.1-3.86-.31-7.73-.14-11.59.24-5.5.13-10.96-.76-16.39-1.12-6.86-1.47-13.78-1.54-20.71-.03-2.26-.16-4.51-.2-6.76-.02-.96-.03-1.94.13-2.88.06-.37.55-.86.92-.93.37-.07,1.04.17,1.23.49,1.88,3.05,3.4,6.33,3.6,9.9.53,9.5,2.2,18.93,2.48,28.39.32,10.78.26,21.58.83,32.36.08,1.44-.08,2.9-.24,4.34-1.11,9.95-.85,19.96-1.22,29.94-.04,1.2.13,2.41.22,3.9.46-.54.76-.74.82-1,2.33-9.37,5.66-18.47,7.35-28.04,1.07-6.05,1.76-12.11,2.14-18.23.64-10.29,1.03-20.62,2.73-30.81.85-5.07,2.13-10.07,3.27-15.09.08-.34.6-.57,1.35-1.25.14,1.84.47,3.24.31,4.58-.7,6.11-.25,12.22-.26,18.34,0,5.95-.69,11.9-1.08,17.85-.13,1.93-.35,3.86-.41,5.79-.37,12.02-2.83,23.64-6.27,35.12-1.38,4.62-2.56,9.33-3.46,14.06-.85,4.46-1.72,8.86-3.72,12.96-1.19,2.45-1.23,4.87-.53,7.5.96,3.57,1.59,7.24,2.39,10.85.2.9.54,1.78.78,2.55,1.23.16,1.22-.63,1.38-1.16,3.27-10.96,6.98-21.8,9.45-32.99.21-.94.48-1.87.77-2.8,2.2-7.08,3.99-14.26,5.71-21.48,2.51-10.52,5.95-20.77,10.55-30.57,1.51-3.22,1.99-6.25,1.05-9.77-1.99-7.5-2.42-15.26-3.46-22.92-1-7.38-1.13-14.78-.55-22.19.16-1.98-.15-3.76-1.12-5.56-2.21-4.11-4.11-8.39-6.32-12.5-3.39-6.3-5.9-12.9-7.03-19.97-.38-2.37-1.37-4.35-3-5.91-3.65-3.47-5.88-7.6-6.62-12.58-.14-.94-.49-1.89-.92-2.75-2.41-4.86-3.1-10.14-3.88-15.4-.48-3.23-.08-6.43.44-9.62.13-.81.5-1.61,1.46-1.66.96-.06,1.44.65,1.58,1.5.21,1.27.36,2.55.45,3.84.45,6.67,2.41,12.96,4.69,19.18,1,2.72,1.99,5.43,3,8.14.25.68.58,1.33.85,1.96,1.17-.33,1.03-1.08,1.06-1.67.26-7.25.37-14.5.77-21.74.41-7.4,1.05-14.78,1.68-22.16.11-1.26.51-2.53,1-3.7.19-.44.98-.79,1.55-.88.88-.14,1.74.38,1.81,1.22.33,3.52.79,7.06.67,10.58-.42,12.88-1.1,25.76-1.58,38.64-.5,13.28,3.18,25.41,10.37,36.75.42-.47.89-.76.96-1.12,2.36-12.23,6.91-23.82,10.39-35.72,1.54-5.26,2.99-10.54,4.63-15.76.96-3.06,2.21-6.04,3.37-9.04.39-1.01,1.15-1.51,2.27-1.33,1.19.19,1.73,1,1.65,2.51-.02.32-.06.64-.11.96-.61,3.33-1.12,6.68-1.88,9.97-.69,2.98-1.58,5.92-2.5,8.84-2.86,9.07-5.88,18.08-8.62,27.19-1.35,4.46-2.24,9.07-3.29,13.61-.13.56-.02,1.18-.02,1.76,1.46.1,1.9-.89,2.43-1.63,3.67-5.1,7.38-10.18,10.91-15.38,3.37-4.96,5.53-10.54,7.96-15.99,2.96-6.62,5.98-13.2,9.04-19.77.75-1.6,1.69-3.11,2.67-4.59.32-.48.99-.93,1.53-.98.48-.04,1.35.41,1.45.79.18.73.07,1.61-.15,2.37-.81,2.78-1.49,5.63-2.61,8.29-3.36,8.02-6.86,15.99-10.41,23.94-.98,2.2-2.13,4.37-3.51,6.33-4.37,6.19-8.83,12.3-13.36,18.37-3.21,4.31-5.47,9.1-7.51,14.01-.42,1-.49,2.21-.48,3.32.02,3.38-.08,6.78.28,10.14.66,6.1,1.08,12.19.84,18.33-.08,2.07.08,4.15.13,6.13,1.45.36,1.63-.56,1.95-1.22,4.1-8.58,7.94-17.29,12.32-25.72,5.79-11.15,11.89-22.15,18.1-33.07,2.46-4.33,5.49-8.34,8.42-12.39,2.66-3.68,4.93-7.55,6.63-11.76,4.04-10.01,8.02-20.05,12.13-30.03.93-2.25,1.09-4.33.14-6.53-.96-2.22-1.8-4.49-2.88-6.64-2.74-5.42-3.12-11.09-2.11-16.95.05-.32.17-.62.25-.93,3.31-12.29,6.62-24.57,9.93-36.86.17-.62.31-1.25.5-1.87.26-.82.75-1.56,1.68-1.35.72.16,1.57.58,1.95,1.15.5.76.86,1.8.82,2.7-.09,2.07-.24,4.19-.76,6.19-2.5,9.67-5.06,19.32-7.75,28.94-1.29,4.59-1.74,9.18-.86,13.86.44,2.37,1.03,4.72,3.16,6.76.61-1.03,1.22-1.88,1.64-2.82,3.63-8.26,7.02-16.64,10.87-24.8,4.26-9.03,8.95-17.87,13.4-26.81,2.99-6,7.59-10.78,11.86-15.81.3-.35.75-.61,1.18-.8.26-.12.62-.02,1.23-.02-.06.96.02,1.91-.21,2.77-.93,3.46-2.77,6.5-4.6,9.55-1.99,3.32-3.98,6.63-5.79,10.05-11.17,21.11-20.73,42.95-29.28,65.24-1.27,3.31-2.65,6.58-3.96,9.87-.28.71-.44,1.47-.87,2.9,1.1-.63,1.67-.81,2.01-1.19,1.52-1.67,3.04-3.34,4.45-5.1,6.96-8.69,13.22-17.86,18.81-27.51,4.87-8.41,10.76-16.06,18.26-22.37,1.6-1.34,2.94-2.98,4.47-4.41.79-.73,1.73-1.29,3.15-2.32-.09,1.38.08,2.21-.23,2.8-.96,1.85-1.98,3.7-3.2,5.39-1.88,2.61-3.87,5.16-5.95,7.62-4.93,5.79-9.33,11.96-13,18.6-5.1,9.22-11.54,17.47-18.07,25.66-5.52,6.93-10.94,13.96-16.7,20.68-3.62,4.22-6.33,8.88-8.78,13.8-1.15,2.3-2.57,4.47-3.9,6.67-4.75,7.86-9.81,15.55-14.2,23.62-3.92,7.21-7.21,14.77-10.58,22.26-9.82,21.8-17.1,44.5-24,67.35-4.33,14.36-7.66,28.97-11.44,43.47-4.79,18.41-10.23,36.62-16.68,54.53-.37,1.03-.65,2.09-.95,3.08,1.07.84,1.65.03,2.28-.27,1.16-.55,2.24-1.27,3.4-1.83,4.83-2.3,9.28-5.07,13.2-8.82,2.54-2.43,5.55-4.41,8.51-6.35,2-1.31,3.4-2.9,4.12-5.14,2.1-6.48,5.33-12.4,8.63-18.32,2.34-4.2,3.93-8.82,5.76-13.29,2.93-7.18,5.43-14.49,6.71-22.17.35-2.06.65-4.14.83-6.23.62-7.33,3.14-14.13,5.65-20.94.06-.15.09-.35.2-.43.6-.45,1.17-1.1,1.85-1.23.79-.15,1.56.97,1.42,2.12-.33,2.71-.79,5.41-1.22,8.11-.55,3.5-1.28,6.98-1.66,10.49-.67,6.1-1.53,12.15-3.29,18.05-.23.76-.35,1.55-.52,2.34,1.04.45.99-.48,1.27-.86.38-.51.72-1.08.98-1.66,2.91-6.79,7.67-12.26,12.53-17.66.32-.35.66-.8,1.07-.93.56-.18,1.24-.24,1.78-.07.27.09.45.8.47,1.24.02.46-.12.97-.32,1.4-.4.88-.79,1.78-1.33,2.57-5.71,8.25-9.8,17.4-14.65,26.13-3.14,5.65-6.94,10.8-11.87,15.06-.6.52-1.17,1.14-1.53,1.83-1.62,3.15-3.17,6.33-4.69,9.53-.18.37-.02.91-.02,1.71.7-.31,1.3-.45,1.72-.8,4.34-3.6,8.65-7.24,12.96-10.86,4.19-3.52,8.4-7.02,12.58-10.57,2.95-2.5,5.97-4.94,8.74-7.62,5.79-5.61,11.43-11.37,17.13-17.06.34-.34.63-.75,1.01-1.04,4.47-3.51,4.53-8.22,3.51-13.17-.15-.74-.55-1.54-1.07-2.08-3.61-3.72-5.88-8.4-9.09-12.41-1.58-5.06-4.27-9.7-5.59-14.86-1.21-4.74-1.54-9.53-1.09-14.39.63-6.74,1.17-13.48,1.92-20.2.28-2.54.97-5.06,1.63-7.54.22-.83.93-1.54,1.38-2.24,1.76.6,1.48,1.91,1.49,2.94.07,5.96.13,11.93.03,17.89-.06,3.7-.3,7.41-.68,11.1-.53,5.24.3,10.34,1.75,15.28,1.21,4.14,3.1,8.09,4.81,12.07.41.95,1.3,1.7,2.26,2.9.84-1.62.54-2.86.41-4.04-1.15-10.18-.63-20.33,1.47-30.3,1.22-5.8,3.4-11.41,5.2-17.08.49-1.53,1.12-3.02,1.75-4.51.78-1.83.92-3.62.5-5.63-.79-3.8-1.47-7.54-3.97-10.75-1.54-1.99-1.75-4.48-1.35-6.95,1.32-8.09,1.82-16.35,5.09-24.05.75-1.76.93-3.75,1.55-5.58.29-.87.88-1.71,1.55-2.35.25-.24,1.12.06,1.65.26.2.07.31.55.34.86.46,4.19.63,8.35-.78,12.43-2.27,6.61-2.56,13.6-3.7,20.42-.57,3.41.71,6.3,3.17,8.56,1.24.12,1.48-.74,1.77-1.44,2.08-4.9,4.09-9.82,6.2-14.7,3.71-8.58,7.32-17.21,11.28-25.67,1.69-3.62,4.15-6.88,6.31-10.27.32-.5.95-.81,1.65-1.4.43.62,1.05,1.12,1.02,1.57-.08,1.27-.36,2.54-.7,3.77-1.33,4.83-3.25,9.43-5.22,14.03-7.09,16.6-14.11,33.23-21.13,49.85-.42.99-.65,2.06-1.01,3.2.64-.06,1.01.02,1.2-.13,5.96-4.79,11.12-10.32,14.88-17,3.16-5.61,6.08-11.36,9.08-17.07,2.33-4.42,4.6-8.87,6.94-13.28.52-.98,1.19-1.91,1.91-2.76.23-.27.92-.39,1.28-.25.36.13.83.7.8,1.02-.17,1.59-.36,3.19-.8,4.72-2.21,7.79-5.49,15.14-9.45,22.19-1.9,3.37-3.72,6.79-5.82,10.03-2.99,4.62-6.65,8.69-10.84,12.29-5.43,4.66-9.92,10.1-13.54,16.28-1.09,1.85-1.78,3.77-2.01,5.88-.92,8.35-1.47,16.7-.41,25.08.47,3.68.81,7.36,1.3,11.04.09.72.56,1.38.93,2.26,1.82-1.26,2.44-2.98,3.34-4.46,7.28-11.99,14.46-24.03,21.79-35.98,2.78-4.53,5.88-8.86,8.83-13.28,4.39-6.56,8.98-13,13.13-19.71,5.96-9.64,12.71-18.63,20.38-26.95,1.27-1.37,2.35-3.06,4.35-3.4.86.83.61,1.55.15,2.27-2.23,3.55-4.49,7.08-6.69,10.64-8.88,14.4-17.76,28.81-26.59,43.24-2.02,3.3-3.82,6.72-5.7,10.1-.28.51-.43,1.09-.89,2.31,1.28-.51,2-.7,2.62-1.06,2.92-1.71,5.81-3.48,8.72-5.21,3.48-2.07,6.71-4.46,9.59-7.3,7.16-7.05,15.15-13,23.7-18.25,5.38-3.3,11.11-5.86,16.97-8.15.59-.23,1.24-.34,1.87-.4.26-.02.54.24,1.09.5-.43.67-.72,1.44-1.27,1.9-1.86,1.54-3.74,3.07-5.73,4.42-5.86,3.99-11.8,7.87-17.67,11.85-1.55,1.05-3.31,1.92-4.74,4.05,1.2.02,1.92.15,2.6.03,4.28-.78,8.55-1.61,12.82-2.42,1.32-.25,2.58-.36,3.16,1.43-.85,1.52-2.44,1.88-3.98,2.29-4.51,1.22-9.02,2.43-13.54,3.64-1.56.42-3.1.91-4.67,1.26-3.85.85-7.25,2.41-10.17,5.21-1.6,1.54-3.65,2.64-5.6,3.77-6.42,3.7-12.87,7.36-19.36,10.92-2.33,1.27-4.06,2.88-5.48,5.19-3.69,6.05-7.6,11.98-11.61,17.82-7.84,11.43-15.59,22.93-23.79,34.09-7.67,10.44-17.04,19.31-27.39,27.12-3.99,3.01-7.96,6.03-11.87,9.14-1.49,1.18-2.77,2.61-4.48,4.24,3.24,1.42,6.18,1.88,9.17,1.49,3.99-.52,8.05-.96,11.9-2.04,3.68-1.04,7.39-2.46,10.66-4.43,9.58-5.75,18.1-12.83,25.79-20.98,4.89-5.19,8.92-10.99,13.16-16.68,6.17-8.26,12.55-16.37,19.11-24.33,3.68-4.46,7.85-8.53,11.87-12.7,1.09-1.13,2.2-2.42,4.23-2.36.73.85,1.54,1.78,2.52,2.91-.31.48-.55,1.1-.98,1.48-8.47,7.38-14.87,16.49-21.35,25.53-.27.37-.37.86-.55,1.29.89.79,1.55.07,2.19-.28,4.98-2.65,9.89-5.43,14.93-7.96,3.74-1.88,7.62-3.46,11.47-5.13.52-.23,1.17-.17,2.38-.32-.76,1.12-1.04,1.89-1.59,2.3-1.68,1.25-3.45,2.38-5.21,3.51-9.07,5.86-18.12,11.74-27.23,17.54-1.73,1.1-3.67,1.88-5.33,2.72-6.73,7.72-13.41,15.36-20.07,23.02-4.83,5.55-10.55,9.91-17.17,13.12-.53.25-1,.61-1.32,1.55.86,0,1.74.09,2.59-.01,10.57-1.22,20.38-4.55,29.32-10.44,4.03-2.66,8.26-5.02,12.37-7.57,1.51-.93,3.04-1.86,4.38-3.01,5.97-5.09,13.06-8.24,19.98-11.68.71-.35,1.5-.64,2.28-.74.37-.05.94.34,1.16.69.21.34.27.97.09,1.32-.28.55-.76,1.05-1.26,1.44-1.65,1.29-3.3,2.58-5.04,3.75-5.2,3.53-10.38,7.06-15.29,11.02-3.24,2.61-7.03,4.54-10.54,6.82-.9.58-1.69,1.31-2.28,2.57,3.77-.72,7.63-1.14,11.3-2.21,7.97-2.32,16.14-3,24.35-3.46,3.21-.18,6.45-.18,9.66-.08,1.81.05,2.03.47,2.84,3.4-.69.25-1.39.67-2.12.75-4.48.51-8.99.8-13.46,1.44-5.42.77-10.88,1.49-16.17,2.81-9.87,2.47-19.83,4.23-29.94,5.32-5.12.55-10.22,1.39-15.29,2.27-3.67.63-7.29,1.03-11.04.65-6.17-.63-12.17.15-17.98,2.64-3.53,1.52-7.32,2.45-11,3.61-3.53,1.11-7.09,2.16-10.62,3.25-2.15.67-4.27,1.45-6.45,2.04-7.63,2.06-14.04,6.37-20.36,10.86-.52.37-.96.86-1.4,1.33-4.04,4.38-8.23,8.64-12.08,13.19-6.26,7.41-11.64,15.47-16.04,24.11-3.88,7.6-7.38,15.4-10.92,23.17-2.34,5.13-4.5,10.35-6.65,15.56-1.11,2.68-2.18,5.39-3.01,8.16-2.91,9.72-5.98,19.42-7.54,29.48-.47,3.02-.64,6.09-.77,9.14-.34,8.37-.64,16.75-.82,25.13-.08,3.86,0,7.74.27,11.59.65,9.65,1.42,19.29,2.17,28.93.11,1.4.39,2.8.69,4.88,1.15-1.36,1.99-2.1,2.52-3.01,5.89-9.99,11.81-19.98,17.58-30.05,2.97-5.18,5.15-10.72,6.94-16.45,1.72-5.53,3.73-11,6.04-16.31,2.03-4.67,1.77-9.42,1.56-14.23-.08-1.85-1.01-3.38-2.14-4.78-2.15-2.67-3.59-5.67-4.73-8.91-.85-2.41-2.04-4.75-3.43-6.9-3.15-4.89-3.31-9.99-1.47-15.29.69-1.97,1.51-3.92,2.49-5.75.37-.7,1.36-1.08,2.29-1.77.88,2.71,1.15,5.07.8,7.5-.3,2.07-.58,4.16-1.02,6.2-.64,2.99-.23,5.86,1.24,8.43,2.5,4.35,4.64,8.83,6.33,13.55.13.36.65.59,1.3,1.14.12-.89.31-1.47.25-2.02-.21-1.92-.44-3.85-.79-5.75-.85-4.64-1.09-9.27-.36-13.95.27-1.74.36-3.54.32-5.3-.16-7.52,2.19-14.27,6.1-20.56,2.04-3.29,4.22-6.48,6.24-9.78,2.44-3.99,4.76-8.04,7.17-12.05,1.64-2.73,3.23-5.51,6.06-8.36.08,1.26.28,1.83.12,2.27-2,5.62-3.95,11.25-6.13,16.8-.94,2.38-2.33,4.59-3.65,6.8-1.65,2.76-3.51,5.41-5.17,8.17-3.38,5.63-5.41,11.68-5.27,18.34.03,1.29.08,2.61-.16,3.86-1.4,7.28-.18,14.45.89,21.62.09.6.41,1.16.81,2.25.72-1.21,1.27-1.96,1.65-2.79,2.13-4.7,4.33-9.37,6.29-14.14,3.2-7.81,7.44-15,12.21-21.92,2.19-3.19,4.38-6.38,6.6-9.55,1.24-1.76,1.84-3.67,2.09-5.82,1.5-12.7,5.68-24.47,12.85-35.06,5.34-7.88,11.41-15.21,18-22.09.65-.68,1.24-1.54,2.41-1.22.85.23,1.19,1.39.55,2.97-.72,1.78-1.52,3.58-2.61,5.14-2.94,4.23-5.92,8.45-9.11,12.49-6.89,8.71-12.16,18.21-14.81,29.06-.11.45-.14.91-.21,1.36,1.04.78,1.5-.14,1.98-.63,2.14-2.19,4.11-4.57,6.37-6.61,8.97-8.1,18.02-16.11,27.06-24.13.34-.3.86-.4,1.27-.58.88.73.52,1.5.06,2.13-1.51,2.09-2.95,4.25-4.65,6.17-5.23,5.91-10.58,11.72-15.86,17.59-.5.55-.88,1.22-1.55,2.16,1,.26,1.58.57,2.13.54,5.46-.37,10.93-.65,16.37-1.28,2.03-.23,3.96-1.28,5.92-2.01.6-.22,1.13-.61,1.69-.93,4.59-2.66,9.18-5.33,13.76-7.98,0-3.06.16-6.11-.05-9.14-.19-2.66.07-5.18,1.32-7.51,1.9-3.54,3.78-7.12,5.98-10.48,2.2-3.36,4.8-6.47,7.2-9.7.38-.52.64-1.13.7-1.24,2.03.08,2.49.94,2.26,1.96-.31,1.4-.78,2.8-1.42,4.08-1.15,2.3-2.49,4.51-3.74,6.76-2.19,3.94-4.38,7.89-6.58,11.83-1.81,3.23-2.39,6.63-1.36,10.54.76-.21,1.54-.27,2.16-.62,3.23-1.86,6.15-4.11,8.8-6.75,2.74-2.73,5.47-5.49,8.41-7.98,1.56-1.31,3.54-2.15,5.41-3.03.36-.17,1.31.28,1.58.7.25.4.17,1.33-.15,1.7-4,4.64-7.9,9.37-12.17,13.75-2.33,2.39-5.18,4.35-8.02,6.16-3.39,2.17-7.01,3.96-10.53,5.93-.66.37-1.28.8-2.76,1.74,1.51.11,2.07.28,2.56.16,5.48-1.3,10.96-2.62,16.43-3.97,7.79-1.94,14.67-5.75,21.09-10.46,1.43-1.05,2.89-2.06,4.37-3.03.53-.35,1.15-.64,1.76-.74.4-.07,1.04.12,1.25.42.21.3.21,1.04-.02,1.32-1.14,1.35-2.41,2.59-3.59,3.9-7.31,8.13-16.61,12.59-27.16,14.66-5.85,1.15-11.7,2.18-17.73,2.12-3.79-.03-7.64.07-11.25,1.81-1.54.74-3.43.94-5.18,1.05-5.3.35-10.61.65-15.92.76-10.31.2-8.77.12-14.99,6.6-3.14,3.27-5.82,6.9-8.11,10.8-5.71,9.73-11.46,19.44-17.02,29.25-2.14,3.77-3.87,7.79-5.7,11.73-2.18,4.68-4.31,9.37-6.37,14.1-.95,2.19-2.25,4.3-2.14,6.86.02.44-.18.96-.45,1.32-2.99,4.16-3.43,9.17-5.01,13.85,1.58.34,2.01-.73,2.58-1.38,4.25-4.85,8.6-9.61,12.61-14.65,8.56-10.74,8.32-8.99,11.88-18.56,3.53-9.51,9.41-17.97,14.52-26.73,2.3-3.93,5.33-7.28,8.97-10.03,2.7-2.04,5.42-4.06,8.13-6.08.26-.19.54-.44.83-.47.44-.05,1.15-.08,1.3.16.29.46.56,1.32.33,1.66-.99,1.46-2.02,2.94-3.3,4.13-8.66,8.07-14.07,18.36-19.69,28.51-.15.27-.17.61-.26.93.63.81,1.17.2,1.58-.2,7.02-6.95,15.18-12.48,22.89-18.58,2.14-1.69,4.47-3.16,6.8-4.59,1.49-.91,3.13-1.62,5.39-1.29-.41.76-.57,1.34-.95,1.72-3.42,3.42-6.83,6.84-10.32,10.19-1.74,1.67-3.54,3.3-5.47,4.75-7.88,5.93-15.16,12.53-21.8,19.81-4.67,5.12-9.25,10.32-13.82,15.53-.82.94-1.45,2.05-2.14,3.06.97.87,1.71.36,2.39.03,5.98-2.94,11.39-6.69,15.93-11.6,5.7-6.17,11.82-11.87,18.46-17.02,4.12-3.19,8.66-5.58,13.44-7.55,1.32-.55,2.66-1.25,4.41-.37-.22.52-.31,1.18-.69,1.54-1.77,1.64-3.51,3.34-5.45,4.76-9.25,6.78-17.97,14.15-25.78,22.59-4.64,5.02-10.21,8.89-16.49,11.62-4.03,1.75-7.68,4.05-11.04,6.86-1.73,1.45-3.55,2.79-5.35,4.14-.64.48-1.34,1.16-2.05,1.22-2.95.25-4.39,2.42-6,4.41-1.02,1.25-1.98,2.54-3.05,3.75-4.95,5.64-8.44,12.05-11.15,19.06-3.14,8.11-7.07,15.9-10.5,23.9-3.69,8.59-7.17,17.26-10.78,25.88-1.72,4.1-2.29,8.31-2.07,12.75.28,5.63.1,11.28.33,16.92.45,11.11.9,22.22,1.59,33.32.98,15.78,1.01,31.57.79,47.37,0,.48-.04.97-.08,1.45-.36,3.87-1.64,5.66-5.38,6.36-2.3.43-4.74,1.16-7.1-.07-2.11-1.1-3.65-2.65-4.1-5.06-.35-1.9-.79-3.8-.92-5.72-1-14.63-2.23-29.26-2.83-43.9-.71-17.23-.7-34.49-1.31-51.72-.46-12.88-1.37-25.75-2.17-38.62-.43-6.92-1.12-13.82-1.58-20.73-.19-2.8-.95-5.21-2.46-7.66-2.36-3.82-4.11-8.02-6.09-12.07-1.91-3.91-24.8-32.81-26.94-34.98-2.26-2.29-4.68-4.42-6.96-6.71-2.95-2.96-5.86-5.97-8.71-9.03-3.74-4-7.54-7.96-11.1-12.12-3.75-4.39-8.76-5.73-14.11-6.47-2.71-.38-5.42-.75-8.12-1.19-2.73-.45-5.24-1.5-7.71-2.74-2.58-1.3-5.24-2.51-7.96-3.49-9.79-3.54-18.63-8.83-27.1-14.74-2.35-1.64-4.4-3.79-6.28-5.98-4.3-5.01-8.45-10.16-12.59-15.31-1.72-2.13-3.4-4.32-4.84-6.64-2.74-4.42-5.96-8.4-9.77-11.93-1.16-1.08-2.18-2.3-3.19-3.37.7-1.98,2.08-1.87,3.27-1.42,3.35,1.25,6.46,2.98,8.84,5.72,1.58,1.82,3.13,3.71,4.43,5.73,3.06,4.76,6.44,9.25,10.18,13.5,2.55,2.9,4.99,5.92,7.32,9,4.6,6.07,10.73,10.14,17.4,13.52.22.11.58-.03,1.23-.07-.23-.93-.26-1.91-.7-2.64-2.45-3.97-4.59-8.13-7.62-11.75-3.22-3.85-5.67-8.21-7.63-12.84-.37-.88-.63-1.84-.78-2.78-.06-.38.2-1.01.51-1.2.31-.19.97-.14,1.31.08.52.33.94.86,1.34,1.36,3.34,4.13,6.59,8.34,10.01,12.41,4.08,4.85,7.36,10.13,9.82,15.98.99,2.35,2.36,4.56,3.73,6.73.47.74,1.38,1.38,2.22,1.66,4.92,1.59,9.56,3.81,14.24,5.99,3.34,1.56,7.04,2.16,11.24,2.25-.46-.96-.64-1.72-1.1-2.21-3.18-3.43-6.39-6.82-9.64-10.18-3.47-3.59-7.03-7.09-10.49-10.69-2.45-2.56-4.75-5.27-7.21-7.82-4.39-4.53-8.24-9.47-11.87-14.63-2.97-4.21-6.12-8.3-9.31-12.35-3.4-4.32-6.46-8.82-9.15-13.63-4.16-7.46-8.48-14.83-12.82-22.19-3.63-6.15-6.41-12.63-8.27-19.52-.88-3.27-1.92-6.49-2.74-9.78-.38-1.54-.49-3.17-.55-4.76-.02-.44.58-.91,1.23-1.86,8.6,20.24,18.14,39.35,29.84,57.28,1.06,0,.94-.79.9-1.35-.58-6.9-1-13.82-1.86-20.69-1.02-8.17-3.02-16.15-5.88-23.89-3.07-8.31-6.16-16.62-9.33-24.9-1.8-4.69-2.95-9.53-3.87-14.45-.51-2.75-.35-5.46.37-8.14.1-.38.48-.7.7-1.01,1.15.29,1.13,1.18,1.33,1.92.46,1.71.78,3.47,1.4,5.11,5.01,13.27,10.06,26.51,15.12,39.76.43,1.13,1.02,2.2,1.59,3.43,1.51-1.4,1.14-2.92,1.2-4.32.28-6.96-.65-13.83-1.39-20.72-.32-3.03-.27-6.1-.3-9.15,0-.28.6-.65.99-.81.19-.08.58.2.81.41.23.21.41.5.54.79.26.59.47,1.2.7,1.8,3.78,9.5,4.73,19.37,3.62,29.45-.42,3.83-1.18,7.64-1.98,11.42-.67,3.19-1.01,6.3-.33,9.56.49,2.35.36,4.81.59,7.22.56,5.77,1.12,11.55,1.79,17.31.59,5.06,2.47,9.5,5.7,13.61,6.78,8.63,13.8,17.03,21.6,24.76,1.94,1.93,3.84,3.92,5.56,6.05,4.38,5.41,9.37,10.18,14.45,14.91,7.67,7.13,15.18,14.44,22.65,21.78,2.17,2.14,4.09,4.56,5.94,6.99,2.94,3.86,6.51,7.04,10.1,10.18.39-.34.8-.52.8-.71,0-5.13-4.27-31.27-5.97-36.64-6.03-3.77-11.46-8.21-16.05-13.7-3-3.58-6.12-7.07-9.35-10.44-2.16-2.25-3.9-4.73-5.04-7.6-1.8-4.51-4.22-8.68-6.49-12.95-3.26-6.11-6.11-12.43-9.12-18.67-.54-1.12-.51-2.14.75-3.02,3.83,2.13,6.74,5.13,8.48,9,3.77,8.39,9.18,15.93,12.44,24.57.86,2.29,2.43,4.14,4.09,5.93,3.61,3.91,7.12,7.9,10.66,11.86,1.7,1.91,3.34,3.89,5.97,5.32,0-.92.15-1.57-.03-2.09-.53-1.52-1.14-3.01-1.81-4.48-.79-1.76-1.78-3.44-2.49-5.24-5.93-14.99-13.59-29.21-19.55-44.19-3.41-8.57-5.78-17.45-7.51-26.47-.81-4.24-.79-8.65-.98-12.99-.08-1.73.12-3.55,2.29-4.68.44,1.32.93,2.49,1.23,3.7,1.91,7.66,3.77,15.34,5.68,23,3.11,12.42,8.16,24.09,13.82,35.52.44.89.55,2.29,2.09,2.33,1.04-.85.63-2.06.72-3.11,1.15-13.11-.16-26.08-2.31-38.99-.7-4.18-.64-8.35-.43-12.53.07-1.43.41-2.87.79-4.26.15-.53.72-1.2,1.21-1.3.97-.21,1.33.68,1.54,1.46.34,1.24.68,2.5.88,3.77,1.64,10.67,3.65,21.32,4.09,32.11.3,7.39-.04,14.82-.38,22.22-.16,3.51-.84,7.03-2.75,10.45,1.72,3.75,3.28,7.65,5.25,11.32,5.02,9.33,8.26,19.26,10,29.65,1.62,9.69,2.78,19.46,4.13,29.2.47,3.35.9,6.71,1.36,10.06.47,3.47,1.73,6.62,4.48,8.86,7.12,5.81,11.78,13.57,16.89,20.98.73,1.06,1.44,2.14,2.23,3.16.37.48.89.84,1.65,1.54.3-.86.65-1.41.65-1.95-.03-3.87-.06-7.73-.22-11.6-.21-5.31-.59-10.62-.79-15.94-.62-16.59-1.13-33.18-1.85-49.76-.16-3.68-.86-7.36-1.54-10.99-2.73-14.57-5.44-29.15-8.4-43.67-1.19-5.83-3.03-11.53-4.51-17.3-4.86-19.05-9.69-38.11-14.52-57.17-1.27-5.02-3.1-9.81-5.31-14.5-1.99-4.22-3.66-8.59-5.27-12.97-1.28-3.48-2.69-6.87-4.31-9.96-7.33-.62-13.77-2.9-19.52-7-7.8-5.56-14.55-12.21-20.23-19.94-.76-1.04-1.61-2.01-2.5-3.12-6.39.28-11.32-3.04-15.77-7.06-4.06-3.67-7.78-7.71-11.6-11.64-1-1.03-1.8-2.26-2.69-3.41-2.47-3.18-4.93-6.37-7.39-9.55-.69-.89-1.44-1.74-2.09-2.66-1.05-1.5-1.13-2.4-.38-3,.97-.77,1.88-.27,2.67.24,4.36,2.79,8.5,5.78,11.3,10.36,1.33,2.18,3.07,4.14,4.82,6.01,2.87,3.05,5.89,5.96,8.87,8.91,1.94,1.91,4.04,3.58,6.41,4.65,1.06-.85.48-1.44.17-1.89-5.7-8.21-10.79-16.81-16.32-25.12-5.19-7.78-11.73-14.54-18.25-21.25-2.81-2.9-5.57-5.83-7.62-9.34-.59-1-1.01-2.02-.08-3.38.66.37,1.4.64,1.95,1.12,3.79,3.25,7.59,6.49,11.3,9.84,9.02,8.15,16.86,17.25,22.88,27.91,3.08,5.45,6.9,10.49,10.41,15.69.15.23.55.29,1.13.57-1.88-9.85-4.11-19.38-10.14-27.42-3.91-5.21-6.87-10.88-9.4-16.82-.17-.39-.13-.86-.24-1.72.84.42,1.47.56,1.84.96,1.21,1.29,2.31,2.68,3.47,4.02,1.47,1.71,2.75,3.64,4.45,5.08,6.05,5.12,9.11,11.97,11.53,19.22.41,1.22.71,2.48.98,3.74,1.3,6.18,3.44,12.07,5.93,17.86,1.26,2.95,2.3,6.03,3.09,9.14,1.08,4.25,3.27,7.66,6.63,10.39,2.75,2.24,5.48,4.5,8.24,6.72,3.33,2.68,7.22,4.2,11.28,5.34.41.12.9-.07,1.71-.14-.46-1.17-.73-2.23-1.26-3.13-1.7-2.93-3.53-5.77-5.24-8.69-2.85-4.86-5.87-9.64-8.42-14.66-3-5.92-6.54-11.48-10.33-16.9-2.88-4.11-5.27-8.45-7.48-12.95-3.13-6.36-6.74-12.47-10.06-18.73-2.72-5.12-5.3-10.32-8.03-15.44-.66-1.25-1.42-2.61-2.5-3.45-5.5-4.29-10.08-9.5-14.86-14.51-1.61-1.69-3.21-3-5.53-3.6-4.74-1.22-9.04-3.35-12.67-6.75-1.17-1.1-2.47-2.08-3.79-3-3.51-2.43-6.18-5.56-8.51-9.12-2.29-3.5-4.89-6.8-7.5-10.08-3.16-3.98-5.09-8.57-6.95-13.21-.18-.46.03-1.39.39-1.66.35-.26,1.21-.09,1.69.17.54.28.95.85,1.35,1.35.6.76,1.17,1.54,1.69,2.36,2.32,3.7,5.07,7.05,7.98,10.3,2.78,3.11,5.17,6.58,7.83,9.81,1.73,2.1,3.57,4.13,5.5,6.05,2.28,2.27,4.75,4.35,7.05,6.6,1.59,1.55,3.2,3.01,5.29,3.86.67-1.49-.36-2.12-.88-2.78-7.23-9.17-12.29-19.65-18.09-29.68-2.43-4.19-4.13-8.72-5.7-13.31-2.09-6.1-4.74-11.97-8.1-17.52-1.32-2.18-2.28-4.6-3.25-6.97-.25-.62.07-1.47.12-2.13,1.31-.4,1.72.43,2.18,1.02,2.09,2.66,4.21,5.3,6.17,8.05,3.57,5.02,6.25,10.55,8.51,16.24,3.17,7.97,7.43,15.33,11.5,22.85,4.63,8.56,10.45,16.25,15.87,24.23,1.52,2.25,3.48,4.21,5.29,6.26.37.41.97.62,2.2,1.36-1.24-3.64-2.68-6.3-4.01-8.97-2.39-4.78-4.22-9.76-5.69-14.88-3.48-12.1-7.63-23.95-13.28-35.24-1.08-2.16-2.03-4.41-2.74-6.71-3.97-12.97-8.97-25.53-14.59-37.87-2.02-4.42-3.28-9.11-3.74-13.95-.18-1.9-.1-3.85.11-5.75.1-.91.74-1.81,2.32-1.42,1.57,4.17,3.94,8.2,5,12.77.95,4.11,2.47,8.01,4.27,11.8,4.22,8.9,7.52,18.16,10.62,27.49,1.52,4.57,3.23,9.13,5.34,13.46,4.17,8.57,7.73,17.37,10.76,26.39.92,2.75,1.89,5.49,2.9,8.21.26.69.75,1.29,1.27,2.16.92-1.78.49-3.21.18-4.57-.67-2.98-1.43-5.95-2.26-8.9-3.06-10.86-6.25-21.68-9.23-32.56-1.57-5.75-2.81-11.59-4.21-17.38-.79-3.29-1.45-6.62-2.43-9.85-1.86-6.13-1.92-12.39-1.76-18.69,0-.32.03-.64.08-.96.15-.97.4-1.92,1.48-2.25.8-.24,1.94.76,2.22,2.13.51,2.52.8,5.1,1.35,7.61,1.49,6.93,2.94,13.87,4.65,20.75,2.8,11.26,5.79,22.47,8.71,33.69.28,1.06.69,2.09,1.08,3.26,1.38-.58.93-1.69.93-2.47.02-6.93.09-13.87-.09-20.79-.21-7.87,1.84-15.32,3.89-22.78.24-.88.39-.91,2.34-1.36.06.96.32,1.92.16,2.8-2.17,11.54-.91,23.14-.74,34.73.09,6.12.1,12.25-.19,18.36-.2,4-1.01,7.98-1.56,11.96-.52,3.83-.98,7.67-1.61,11.47-.29,1.73.32,3.17.95,4.64,2.3,5.33,4.64,10.63,6.92,15.96,1.33,3.11,2.57,6.26,3.86,9.39.61,1.49,1.16,3.02,1.9,4.44,5.91,11.44,10.89,23.37,18.26,34.04,2.27,3.29,3.85,7.05,5.78,10.59.96,1.77,1.45,3.87,3.59,5.4.23-.88.5-1.44.51-2,.01-1.77-.02-3.55-.13-5.31-.28-4.83-.78-9.64-.87-14.47-.11-5.9-1.83-11.05-5.87-15.42-2.31-2.5-3.98-5.44-5.41-8.54-3.17-6.88-6.51-13.68-9.02-20.84-1.01-2.89-1.94-5.8-2.99-8.68-2.55-6.98-2.6-14.21-2.16-21.49.05-.89.49-1.75.88-3.04.75.69,1.4,1.01,1.57,1.49.47,1.36.83,2.78,1.09,4.2,3,16.66,9.22,32.18,16.69,47.25.27.54.68,1.02,1.03,1.54,1.14-.62.69-1.48.55-2.13-1.15-5.52-2.33-11.04-3.57-16.54-2.2-9.77-4.12-19.58-3.76-29.65.17-4.98.74-9.96,1.27-14.93.37-3.52.95-7.02,1.47-10.53.11-.77.21-1.63,1.53-1.74.64,1.94.6,3.97.64,6,.14,7.73.21,15.47.54,23.19.35,8.23,1.73,16.32,3.5,24.37,2.21,10.07,4.56,20.12,5.7,30.39.46,4.16.65,8.35.99,12.53.14,1.72-.18,3.52.94,5.41,1.16-2.51,1.42-4.87,1.52-7.28.38-9.18.93-18.34.25-27.54-.32-4.32.11-8.7.33-13.04.09-1.72.12-3.58,1.72-4.82.27.21.63.35.69.57,2.72,11.23,3.24,22.61,2.23,34.09-.13,1.44-.22,2.89-.27,4.34-.28,7.98-1.65,15.7-5.45,22.83-.95,1.79-1.09,3.67-1.1,5.62-.03,3.54-.11,7.08-.18,11.11.27.36.76,1.2,1.43,1.86,4.56,4.47,7.74,9.84,10.56,15.51,3.59,7.21,7.32,14.36,11.01,21.52.66,1.29,1.37,2.56,2.13,3.79,3.55,5.78,6.52,11.83,8.87,18.22,2.23,6.04,4.69,12.02,7.45,17.84,4.46,9.4,7.21,19.31,9.44,29.39,2.08,9.44,4.02,18.91,6.07,28.36.99,4.57,2.09,9.11,3.16,13.66.18.75.47,1.47,1.05,2.18.21-.42.33-.55.33-.68-.2-10.95.46-21.89-.51-32.84-.68-7.7-.94-15.44-1-23.17-.06-8.05.34-16.11.54-24.17.12-4.99.44-9.99.31-14.98-.23-8.21-.8-16.42-1.13-24.63-.13-3.37-1.19-6.26-3.44-8.79-1.39-1.56-2.55-3.33-3.89-4.94-.59-.71-1.36-1.27-2.14-1.99-.7.39-1.27.65-1.78,1-2.78,1.92-5.27,1.28-8.07-.3-7.85-4.42-13.18-11.2-18.12-18.41-1.18-1.72-2.22-3.54-3.47-5.54.41-.41.76-.99,1.25-1.17.55-.2,1.31-.19,1.84.04.72.31,1.38.84,1.93,1.41,3.46,3.58,7.31,6.79,10.16,10.98,1.91,2.8,4.42,5.07,7.46,6.76,2.24,1.24,4.29,2.82,6.39,4.23.97-.79.21-1.17-.16-1.57-2.97-3.17-6.01-6.28-8.94-9.5-1.98-2.18-3.25-4.83-4.04-7.64-2.07-7.34-5.31-14.12-9.55-20.43,2.05-1.2,2.48-1.28,3.85-.57,2.05,1.06,3.76,2.58,4.94,4.52,1.5,2.47,2.82,5.05,4.06,7.67.68,1.45,1.07,3.04,1.51,4.59,1.26,4.43,3.51,8.17,6.71,11.56,3.1,3.29,6.35,6.39,9.76,9.35.34.29.81.43,1.59.83-.49-5.07-.99-9.78-2.87-14.24-4.29-10.14-7.3-20.65-8.91-31.54-.33-2.23-.57-4.49-.56-6.73,0-3.58-.54-7.05-1.38-10.51-1.71-7.07-2.58-14.24-2.67-21.54-.1-7.41-.68-14.81-.94-22.22-.11-3.12-1.38-5.61-3.51-7.71-7.93-7.78-15.52-15.92-24.75-22.3-5.36-3.71-9.55-8.63-12.41-14.57-1.89-3.92-3.78-7.84-5.62-11.78-2.19-4.68-4.44-9.31-8.03-13.14-.17-.18-.15-.56-.22-.86.87-1.14,2.02-.82,3.05-.42,3.25,1.24,5.94,3.27,7.69,6.32,1.2,2.09,2.18,4.31,3.23,6.48,2.04,4.2,3.98,8.46,6.11,12.61,2.23,4.35,5.34,8.04,9.1,11.18.47.39,1.04.66,1.48.94,1.25-.44.9-1.36.91-2.08,0-.64-.1-1.29-.26-1.91-1.88-7.16-3.56-14.37-7.03-21.03-2.67-5.14-4.93-10.5-7.33-15.78-1.9-4.16-2.67-8.6-3.1-13.11-.06-.64-.07-1.29.01-1.93.11-.85.53-1.62,1.46-1.63.55,0,1.18.35,1.65.71.35.27.54.79.74,1.23.59,1.32,1.26,2.63,1.71,4,3.08,9.55,7.97,18.3,11.87,27.49,3.91,9.22,6.86,18.76,6.39,29.2,2.53,2.34,5.13,4.73,7.7,7.16,2.44,2.3,4.84,4.64,7.16,6.87,1.52-.68,1.14-1.76,1.03-2.62-.93-7.35-1.88-14.71-2.89-22.05-.33-2.39-.94-4.75-1.22-7.15-.9-7.65-3.71-14.64-7.21-21.4-.89-1.72-1.9-3.4-2.56-5.2-2.23-6.11-5.44-11.7-9.13-17-6.45-9.25-10.49-19.5-13.73-30.22-2.66-8.78-5.94-17.38-9.07-26.01-1.71-4.72-2.93-9.55-3.66-14.5-.11-.75.12-1.55.23-2.32.01-.1.24-.18.61-.42.37.36.86.7,1.16,1.17.51.82.96,1.68,1.33,2.57,4.41,10.73,9.73,21.07,13.33,32.14,1.64,5.06,3.29,10.11,4.91,15.18,1.63,5.09,3.84,9.9,6.78,14.39,2.38,3.64,4.62,7.38,6.94,11.06.5.79,1.07,1.54,1.57,2.25,1.21-.37.72-1.07.6-1.58-2.8-12.08-4.34-24.45-8.18-36.29-1.79-5.52-3.73-10.99-5.65-16.46-2.67-7.63-4.49-15.45-5.72-23.44-1.42-9.24-3.04-18.44-4.58-27.66-.29-1.73-.81-3.46-.1-5.19,1.07-.47,1.51.17,1.76.98.99,3.24,2.07,6.45,2.89,9.73,2.62,10.47,5.01,21,7.73,31.45,1.58,6.07,3.54,12.05,5.44,18.04,1.51,4.76,3.19,9.47,4.81,14.2.25.73.53,1.46.75,2.07,1.21.11,1.3-.56,1.32-1.18.31-10.15.67-20.3-.27-30.44-.54-5.77-1.14-11.54-1.45-17.33-.18-3.36.07-6.76.32-10.13.14-1.89.5-3.83,2.81-5.56Z"/>
</svg>