<?xml version="1.0" encoding="UTF-8"?>
<svg id="Calque_1" data-name="Calque 1" xmlns="http://www.w3.org/2000/svg" viewBox="0 0 1080 1080">
  <defs>
    <style>
      .cls-1 {
        fill: #fffbca;
        stroke-width: 0px;
      }

      .cls-2 {
        fill: #ffed6e;
      }

      .cls-2, .cls-3, .cls-4 {
        stroke: #000;
        stroke-miterlimit: 10;
        stroke-width: 5px;
      }

      .cls-3 {
        fill: #ffd933;
      }

      .cls-4 {
        fill: #ffbd17;
      }
    </style>
  </defs>
  <path class="cls-4" d="M331.73,630.23c-3.2,10.7-5.21,21.57-6.14,32.62-1.05,12.44,3.4,24.78,12.16,33.68,11.39,11.56,25.96,19.83,43.39,25.18,10.57,3.24,21.92,2.94,32.4-.58l23.33-7.83"/>
  <path class="cls-3" d="M396,222c-112.47,47.64-154,287-68,402,63.17,86.67,152.79,117.72,258,116,84.17-3.28,165.36-64.95,244.59-164.86"/>
  <path class="cls-2" d="M363.33,261.91c-5.83,89.59,71.64,182.03,280,292.45,1.44.76,2.93,1.47,4.43,2.11,137.18,57.99,205.94,48.8,194.05-39.52-4.11-30.52-16.53-59.34-35.36-83.71-110.03-142.44-236.85-222.39-387.17-214.85-25.97,1.3-54.27,17.58-55.96,43.53Z"/>
  <path class="cls-1" d="M596.98,384.86c-4.74-2.36-7.51-8.13-6.39-13.3,7.97,2.23,14.29,9.5,15.38,17.71-4.33,1.81-9.74.6-12.89-2.88s-3.81-8.99-1.57-13.11c7.62,5.46,12.68,14.33,13.51,23.67"/>
  <path class="cls-1" d="M605.84,372.44c-.68-5.94,3.91-11.31,9.1-14.29,5.19-2.98,11.15-4.41,16.34-7.39,3.84-2.2,7.15-5.2,10.43-8.18,5.84-5.3,11.68-10.59,17.52-15.89"/>
  <path class="cls-1" d="M571.21,358.86c-15.08-18.51-32.02-38.19-55.39-43.05-11.98-2.49-25.93-1.31-34.66-9.89-7.48-7.36-8.3-19.59-15.66-27.07-9.55-9.7-27.91-9.3-33.66-21.64"/>
  <path class="cls-1" d="M591.78,351.59c-8.02-11.33-3.91-27.16-8.09-40.39-1.88-5.97-5.42-11.26-7.98-16.97-3.96-8.81-5.71-18.82-11.75-26.36-2.06-2.57-4.57-4.78-6.31-7.58s-2.6-6.47-1.02-9.36"/>
  <path class="cls-1" d="M620.53,392.81c22.38,16.98,56.27,18.59,71.8,41.99,4.33,6.53,6.78,14.27,11.83,20.26,4.52,5.36,10.77,8.89,16.76,12.54,26.58,16.18,50.53,36.66,70.64,60.41,7.76,9.17,15.28,19.1,25.92,24.69"/>
  <path class="cls-1" d="M577.22,399.73c-19.31,3.95-37.65,12.57-53.02,24.91-7.63,6.13-15.71,13.6-25.49,13.06"/>
  <path class="cls-1" d="M559.65,373.38c-24.53.57-49.11-.72-73.45-3.84-8.48-1.09-17.1-2.45-24.75-6.27-6.31-3.15-11.72-7.85-17.99-11.09-6.26-3.24-14.06-4.85-20.25-1.47"/>
  <path class="cls-1" d="M632.74,381.57c28.46-6.32,59.28-1.31,84.28,13.7,9.66,5.8,18.7,13.12,29.56,16.15,2.8.78,5.7,1.27,8.34,2.5,7.69,3.59,12.73,13.2,21.22,13.16"/>
  <path class="cls-1" d="M605.26,418.16c1.5,8.69-2.22,18.17,1.49,26.16,1.34,2.89,3.54,5.27,5.32,7.91,5.73,8.56,6.71,19.43,6.37,29.72-.34,10.3-1.81,20.66-.27,30.85"/>
</svg>