<?xml version="1.0" encoding="UTF-8"?>
<svg id="Calque_1" data-name="Calque 1" xmlns="http://www.w3.org/2000/svg" viewBox="0 0 1080 1080">
  <defs>
    <style>
      .cls-1 {
        stroke: #168726;
        stroke-width: 5px;
      }

      .cls-1, .cls-2 {
        fill: none;
        stroke-miterlimit: 10;
      }

      .cls-2 {
        stroke: #000;
        stroke-width: 4px;
      }

      .cls-3 {
        fill: #117222;
        stroke-width: 0px;
      }
    </style>
  </defs>
  <path class="cls-3" d="M519.13,844.28c9.61-230.76,10.36-454.18,0-668.41,0-27.46-13.82-53.35-37.2-67.76-20.32-12.52-39.74-11.52-58.42.39-22.59,14.4-35.88,39.68-35.88,66.46-11.97,204.59-10.23,430.69,0,670.08,0,26.33,11.12,51.62,31.08,68.78,22.39,19.25,44.85,19.5,67.39,1.12,21.14-17.25,33.03-43.38,33.03-70.66Z"/>
  <path class="cls-1" d="M409.5,120.5c18,16,12.09,106.02,13.75,160.27,1.26,40.94-9.24,81.59-7.68,122.52,1.03,26.93,7.26,53.45,8.49,80.37,1.11,24.08-1.79,48.43,2.34,72.18,3.33,19.18,11.14,37.35,14.7,56.48,12.63,67.82-29.13,136.68-18,204.77,2.76,16.91,8.78,33.73,6.64,50.73-1.99,15.77,3.39,39.71-9.24,47.69"/>
  <path class="cls-1" d="M461.5,926.5c-1.98-30.77-4.32-59.53,2.63-89.56,2.68-11.57,6.66-22.84,8.85-34.52,2.98-15.86,2.62-32.14,2.24-48.27-4.39-186.41-9.83-372.79-16.31-559.14-.28-8.05-.61-16.33-3.89-23.69-3.34-7.5-9.64-13.87-10.7-22.01-2.46-18.91,15.64-33.01,16.17-49.8"/>
  <path class="cls-1" d="M485.99,111.39c-11.52,38.1,10.57,77.5,15.14,117.04,2.88,24.91-1.29,50.02-4.29,74.92-9.65,80.16-7.12,161.78,7.47,241.19,3.96,21.53,8.8,42.97,10.53,64.79,2.02,25.57-.28,51.27-2.57,76.82-4.73,52.66-9.46,105.32-14.19,157.97-1.63,18.15-13.59,47.39-1.59,58.39"/>
  <path class="cls-1" d="M396.5,884.5c13-6-3.26-91,6.27-133.85,5.34-24.02,14.39-47.64,14.05-72.24-.32-23.19-8.96-45.34-14.37-67.89-5.34-22.29-7.55-45.21-9.46-68.05-1.58-18.9-2.97-37.97-.59-56.78,4.22-33.47,20-68.48,6.36-99.34-1.77-4-4.01-7.84-4.93-12.11-1.52-7.05.74-14.27,2.07-21.36,2.01-10.74,1.88-21.76,1.74-32.69-.3-23.36-.61-46.72-.91-70.07-.48-37.12,4.33-108.12-1.45-111.37"/>
  <path class="cls-2" d="M518.5,844c9.61-230.76,10.36-454.18,0-668.41,0-27.46-13.82-53.35-37.2-67.76-20.32-12.52-39.74-11.52-58.42.39-22.59,14.4-35.88,39.68-35.88,66.46-11.97,204.59-10.23,430.69,0,670.08,0,26.33,11.12,51.62,31.08,68.78,22.39,19.25,44.85,19.5,67.39,1.12,21.14-17.25,33.03-43.38,33.03-70.66Z"/>
</svg>