<?xml version="1.0" encoding="UTF-8"?><svg xmlns="http://www.w3.org/2000/svg" xmlns:xlink="http://www.w3.org/1999/xlink" viewBox="0 0 1156 596"><defs><style>.cls-1{fill:#351a0c;stroke:#c97926;stroke-width:1.55px;}.cls-1,.cls-2,.cls-3,.cls-4,.cls-5,.cls-6,.cls-7,.cls-8,.cls-9,.cls-10,.cls-11,.cls-12,.cls-13,.cls-14,.cls-15,.cls-16,.cls-17,.cls-18,.cls-19,.cls-20,.cls-21,.cls-22,.cls-23,.cls-24,.cls-25{stroke-miterlimit:10;}.cls-26{filter:url(#drop-shadow-4);}.cls-27{filter:url(#drop-shadow-8);}.cls-2,.cls-3,.cls-4,.cls-5,.cls-6,.cls-7,.cls-8,.cls-9,.cls-10,.cls-11,.cls-12,.cls-13,.cls-14,.cls-15,.cls-16,.cls-17,.cls-18,.cls-19,.cls-20,.cls-21,.cls-22,.cls-23,.cls-24{stroke:#000;stroke-width:.96px;}.cls-2,.cls-4,.cls-5,.cls-6,.cls-7,.cls-8,.cls-9,.cls-10,.cls-11,.cls-12,.cls-13,.cls-14,.cls-15,.cls-16,.cls-17,.cls-18,.cls-19,.cls-20,.cls-21,.cls-22,.cls-23,.cls-24,.cls-25{fill:#c97926;}.cls-3{fill:#a86120;}.cls-4{filter:url(#drop-shadow-9);}.cls-5{filter:url(#drop-shadow-5);}.cls-6{filter:url(#drop-shadow-6);}.cls-7{filter:url(#drop-shadow-7);}.cls-8{filter:url(#drop-shadow-1);}.cls-9{filter:url(#drop-shadow-3);}.cls-10{filter:url(#drop-shadow-2);}.cls-11{filter:url(#drop-shadow-16);}.cls-12{filter:url(#drop-shadow-13);}.cls-13{filter:url(#drop-shadow-12);}.cls-14{filter:url(#drop-shadow-28);}.cls-15{filter:url(#drop-shadow-10);}.cls-16{filter:url(#drop-shadow-19);}.cls-17{filter:url(#drop-shadow-27);}.cls-18{filter:url(#drop-shadow-23);}.cls-19{filter:url(#drop-shadow-24);}.cls-20{filter:url(#drop-shadow-17);}.cls-21{filter:url(#drop-shadow-14);}.cls-22{filter:url(#drop-shadow-26);}.cls-23{filter:url(#drop-shadow-20);}.cls-24{filter:url(#drop-shadow-21);}.cls-28{filter:url(#drop-shadow-18);}.cls-29{filter:url(#drop-shadow-25);}.cls-30{filter:url(#drop-shadow-29);}.cls-31{filter:url(#drop-shadow-22);}.cls-32{filter:url(#drop-shadow-11);}.cls-33{filter:url(#drop-shadow-15);}.cls-34{fill:#f6f2e6;}.cls-34,.cls-35,.cls-36,.cls-37,.cls-38,.cls-39,.cls-40,.cls-41{stroke-width:0px;}.cls-35{fill:#abd9bd;}.cls-36{fill:#bd9009;}.cls-37{fill:#b9dfc9;}.cls-38{fill:#f1ebd8;}.cls-39{fill:#fff;}.cls-40{fill:#e6bd45;}.cls-41{fill:#eee4cb;}.cls-25{stroke:#351a0c;stroke-width:1.44px;}</style><filter id="drop-shadow-1" filterUnits="userSpaceOnUse"><feOffset dx="1.07" dy="1.07"/><feGaussianBlur result="blur" stdDeviation="0"/><feFlood flood-color="#341159" flood-opacity=".3"/><feComposite in2="blur" operator="in"/><feComposite in="SourceGraphic"/></filter><filter id="drop-shadow-2" filterUnits="userSpaceOnUse"><feOffset dx="1.07" dy="1.07"/><feGaussianBlur result="blur-2" stdDeviation="0"/><feFlood flood-color="#341159" flood-opacity=".3"/><feComposite in2="blur-2" operator="in"/><feComposite in="SourceGraphic"/></filter><filter id="drop-shadow-3" filterUnits="userSpaceOnUse"><feOffset dx="1.07" dy="1.07"/><feGaussianBlur result="blur-3" stdDeviation="0"/><feFlood flood-color="#341159" flood-opacity=".3"/><feComposite in2="blur-3" operator="in"/><feComposite in="SourceGraphic"/></filter><filter id="drop-shadow-4" filterUnits="userSpaceOnUse"><feOffset dx="1.07" dy="1.07"/><feGaussianBlur result="blur-4" stdDeviation="0"/><feFlood flood-color="#341159" flood-opacity=".3"/><feComposite in2="blur-4" operator="in"/><feComposite in="SourceGraphic"/></filter><filter id="drop-shadow-5" filterUnits="userSpaceOnUse"><feOffset dx="1.07" dy="1.07"/><feGaussianBlur result="blur-5" stdDeviation="0"/><feFlood flood-color="#341159" flood-opacity=".3"/><feComposite in2="blur-5" operator="in"/><feComposite in="SourceGraphic"/></filter><filter id="drop-shadow-6" filterUnits="userSpaceOnUse"><feOffset dx="1.07" dy="1.07"/><feGaussianBlur result="blur-6" stdDeviation="0"/><feFlood flood-color="#341159" flood-opacity=".3"/><feComposite in2="blur-6" operator="in"/><feComposite in="SourceGraphic"/></filter><filter id="drop-shadow-7" filterUnits="userSpaceOnUse"><feOffset dx="1.07" dy="1.07"/><feGaussianBlur result="blur-7" stdDeviation="0"/><feFlood flood-color="#341159" flood-opacity=".3"/><feComposite in2="blur-7" operator="in"/><feComposite in="SourceGraphic"/></filter><filter id="drop-shadow-8" filterUnits="userSpaceOnUse"><feOffset dx="1.07" dy="1.07"/><feGaussianBlur result="blur-8" stdDeviation="0"/><feFlood flood-color="#341159" flood-opacity=".3"/><feComposite in2="blur-8" operator="in"/><feComposite in="SourceGraphic"/></filter><filter id="drop-shadow-9" filterUnits="userSpaceOnUse"><feOffset dx="1.07" dy="1.07"/><feGaussianBlur result="blur-9" stdDeviation="0"/><feFlood flood-color="#341159" flood-opacity=".3"/><feComposite in2="blur-9" operator="in"/><feComposite in="SourceGraphic"/></filter><filter id="drop-shadow-10" filterUnits="userSpaceOnUse"><feOffset dx="1.07" dy="1.07"/><feGaussianBlur result="blur-10" stdDeviation="0"/><feFlood flood-color="#341159" flood-opacity=".3"/><feComposite in2="blur-10" operator="in"/><feComposite in="SourceGraphic"/></filter><filter id="drop-shadow-11" filterUnits="userSpaceOnUse"><feOffset dx="1.07" dy="1.07"/><feGaussianBlur result="blur-11" stdDeviation="0"/><feFlood flood-color="#341159" flood-opacity=".3"/><feComposite in2="blur-11" operator="in"/><feComposite in="SourceGraphic"/></filter><filter id="drop-shadow-12" filterUnits="userSpaceOnUse"><feOffset dx="1.07" dy="1.07"/><feGaussianBlur result="blur-12" stdDeviation="0"/><feFlood flood-color="#341159" flood-opacity=".3"/><feComposite in2="blur-12" operator="in"/><feComposite in="SourceGraphic"/></filter><filter id="drop-shadow-13" filterUnits="userSpaceOnUse"><feOffset dx="1.07" dy="1.07"/><feGaussianBlur result="blur-13" stdDeviation="0"/><feFlood flood-color="#341159" flood-opacity=".3"/><feComposite in2="blur-13" operator="in"/><feComposite in="SourceGraphic"/></filter><filter id="drop-shadow-14" filterUnits="userSpaceOnUse"><feOffset dx="1.07" dy="1.07"/><feGaussianBlur result="blur-14" stdDeviation="0"/><feFlood flood-color="#341159" flood-opacity=".3"/><feComposite in2="blur-14" operator="in"/><feComposite in="SourceGraphic"/></filter><filter id="drop-shadow-15" filterUnits="userSpaceOnUse"><feOffset dx="1.07" dy="1.07"/><feGaussianBlur result="blur-15" stdDeviation="0"/><feFlood flood-color="#341159" flood-opacity=".3"/><feComposite in2="blur-15" operator="in"/><feComposite in="SourceGraphic"/></filter><filter id="drop-shadow-16" filterUnits="userSpaceOnUse"><feOffset dx="1.07" dy="1.07"/><feGaussianBlur result="blur-16" stdDeviation="0"/><feFlood flood-color="#341159" flood-opacity=".3"/><feComposite in2="blur-16" operator="in"/><feComposite in="SourceGraphic"/></filter><filter id="drop-shadow-17" filterUnits="userSpaceOnUse"><feOffset dx="1.07" dy="1.07"/><feGaussianBlur result="blur-17" stdDeviation="0"/><feFlood flood-color="#341159" flood-opacity=".3"/><feComposite in2="blur-17" operator="in"/><feComposite in="SourceGraphic"/></filter><filter id="drop-shadow-18" filterUnits="userSpaceOnUse"><feOffset dx="1.07" dy="1.07"/><feGaussianBlur result="blur-18" stdDeviation="0"/><feFlood flood-color="#341159" flood-opacity=".3"/><feComposite in2="blur-18" operator="in"/><feComposite in="SourceGraphic"/></filter><filter id="drop-shadow-19" filterUnits="userSpaceOnUse"><feOffset dx="1.07" dy="1.07"/><feGaussianBlur result="blur-19" stdDeviation="0"/><feFlood flood-color="#341159" flood-opacity=".3"/><feComposite in2="blur-19" operator="in"/><feComposite in="SourceGraphic"/></filter><filter id="drop-shadow-20" filterUnits="userSpaceOnUse"><feOffset dx="1.07" dy="1.07"/><feGaussianBlur result="blur-20" stdDeviation="0"/><feFlood flood-color="#341159" flood-opacity=".3"/><feComposite in2="blur-20" operator="in"/><feComposite in="SourceGraphic"/></filter><filter id="drop-shadow-21" filterUnits="userSpaceOnUse"><feOffset dx="1.07" dy="1.07"/><feGaussianBlur result="blur-21" stdDeviation="0"/><feFlood flood-color="#341159" flood-opacity=".3"/><feComposite in2="blur-21" operator="in"/><feComposite in="SourceGraphic"/></filter><filter id="drop-shadow-22" filterUnits="userSpaceOnUse"><feOffset dx="1.07" dy="1.07"/><feGaussianBlur result="blur-22" stdDeviation="0"/><feFlood flood-color="#341159" flood-opacity=".3"/><feComposite in2="blur-22" operator="in"/><feComposite in="SourceGraphic"/></filter><filter id="drop-shadow-23" filterUnits="userSpaceOnUse"><feOffset dx="1.07" dy="1.07"/><feGaussianBlur result="blur-23" stdDeviation="0"/><feFlood flood-color="#341159" flood-opacity=".3"/><feComposite in2="blur-23" operator="in"/><feComposite in="SourceGraphic"/></filter><filter id="drop-shadow-24" filterUnits="userSpaceOnUse"><feOffset dx="1.07" dy="1.07"/><feGaussianBlur result="blur-24" stdDeviation="0"/><feFlood flood-color="#341159" flood-opacity=".3"/><feComposite in2="blur-24" operator="in"/><feComposite in="SourceGraphic"/></filter><filter id="drop-shadow-25" filterUnits="userSpaceOnUse"><feOffset dx="1.07" dy="1.07"/><feGaussianBlur result="blur-25" stdDeviation="0"/><feFlood flood-color="#341159" flood-opacity=".3"/><feComposite in2="blur-25" operator="in"/><feComposite in="SourceGraphic"/></filter><filter id="drop-shadow-26" filterUnits="userSpaceOnUse"><feOffset dx="1.07" dy="1.07"/><feGaussianBlur result="blur-26" stdDeviation="0"/><feFlood flood-color="#341159" flood-opacity=".3"/><feComposite in2="blur-26" operator="in"/><feComposite in="SourceGraphic"/></filter><filter id="drop-shadow-27" filterUnits="userSpaceOnUse"><feOffset dx="1.07" dy="1.07"/><feGaussianBlur result="blur-27" stdDeviation="0"/><feFlood flood-color="#341159" flood-opacity=".3"/><feComposite in2="blur-27" operator="in"/><feComposite in="SourceGraphic"/></filter><filter id="drop-shadow-28" filterUnits="userSpaceOnUse"><feOffset dx="1.07" dy="1.07"/><feGaussianBlur result="blur-28" stdDeviation="0"/><feFlood flood-color="#341159" flood-opacity=".3"/><feComposite in2="blur-28" operator="in"/><feComposite in="SourceGraphic"/></filter><filter id="drop-shadow-29" filterUnits="userSpaceOnUse"><feOffset dx="1.07" dy="1.07"/><feGaussianBlur result="blur-29" stdDeviation="0"/><feFlood flood-color="#341159" flood-opacity=".3"/><feComposite in2="blur-29" operator="in"/><feComposite in="SourceGraphic"/></filter></defs><g id="COULEUR_NAPPE"><rect class="cls-35" x="280" y="-280" width="596" height="1156" transform="translate(876 -280) rotate(90)"/></g><g id="PATTERN_NAPPE"><path class="cls-37" d="M143.03,596c-.53-.28-1.07-.55-1.6-.83,5.14-2.66,10.29-5.32,15.46-7.97,23.51-12.08,47.03-24.15,70.54-36.23,29.08,14.96,58.19,29.91,87.3,44.85-.11.06-.23.12-.34.18h57.5c-.42-.22-.85-.44-1.27-.66,3.64-1.87,7.28-3.74,10.92-5.61,25.16-12.92,50.31-25.84,75.47-38.75,28.96,14.86,57.93,29.73,86.89,44.6-.27.14-.55.28-.82.43h57.5c-.27-.14-.55-.28-.82-.43,28.95-14.87,57.91-29.74,86.86-44.61,28.8,14.79,57.59,29.57,86.38,44.36-.43.22-.86.45-1.3.67h57.55c-.12-.06-.25-.13-.37-.19.65-.34,1.31-.67,1.96-1.01,28.45-14.61,56.86-29.25,85.26-43.88,7.36,3.78,14.72,7.56,22.08,11.34,21.26,10.92,42.26,22.06,63.48,33.09-.42.22-.85.44-1.27.66h57.68s-.08-.04-.12-.06c29.02-14.97,58-29.95,86.96-44.95,3.68,1.85,7.39,3.69,11.09,5.52v-40.64c-4.04,2.07-8.1,4.14-12.14,6.21-5.19-2.67-10.37-5.33-15.54-8.01-23.46-12.14-46.92-24.28-70.37-36.43,28.98-15.01,57.93-30.04,86.87-45.07,3.73,1.92,7.46,3.83,11.19,5.75v-40.09c-3.83,1.96-7.65,3.91-11.48,5.87-3.76-1.95-7.53-3.9-11.29-5.84-25.15-13.02-50.3-26.04-75.45-39.05,28.77-14.96,57.52-29.94,86.26-44.92,3.99,2.05,7.98,4.1,11.96,6.14v-39.71c-3.56,1.81-7.13,3.61-10.68,5.43-29.3-15.16-58.59-30.33-87.89-45.49,28.58-14.88,57.24-29.74,85.8-44.66,4.26,2.19,8.51,4.37,12.77,6.56v-38.68c-3.08,1.55-6.18,3.1-9.26,4.65-1.23-.63-2.45-1.27-3.68-1.9-28.68-14.85-57.41-29.67-86.14-44.49,28.35-14.9,56.54-29.89,84.38-45.03,4.9,2.52,9.81,5.04,14.71,7.56v-36.59c-2.34,1.13-4.68,2.25-7.01,3.38-31.48-16.23-63.01-32.43-94.55-48.63,1.68-.93,3.36-1.87,5.04-2.8h-67.5c4.34,2.25,8.66,4.5,12.99,6.75-29.33,14.45-58.38,29.04-87.41,43.65-30.04-15.41-60.1-30.81-90.19-46.2,2.66-1.4,5.31-2.8,7.97-4.2h-71.55c3.6,1.87,7.2,3.74,10.8,5.62-2.4,1.21-4.8,2.42-7.21,3.62-26.96,13.52-53.77,27.12-80.53,40.75-29.48-15.07-58.98-30.13-88.5-45.17,3.08-1.6,6.17-3.21,9.25-4.81h-71.75c3.06,1.6,6.11,3.2,9.17,4.8-29.5,15.06-58.97,30.13-88.46,45.19-29.09-14.85-58.15-29.75-87.32-44.59,3.46-1.8,6.91-3.6,10.37-5.4h-70.43c2.46,1.3,4.92,2.61,7.38,3.91-30.14,15.36-60.21,30.76-90.25,46.17-28.97-14.65-58.09-29.21-87.53-43.59C142.96,4.33,147.12,2.16,151.29,0h-66.8c1.57.86,3.13,1.73,4.7,2.59C59.42,17.89,29.7,33.22,0,48.55v29.62c.85-.44,1.7-.87,2.55-1.31,27.96,15.09,56.21,30.04,84.49,44.97-29.03,15-58.04,30.02-87.04,45.04v29.3c.23-.12.46-.23.68-.35,2.21,1.17,4.42,2.33,6.62,3.5,26.13,13.85,52.42,27.62,78.75,41.38-28.68,14.86-57.37,29.72-86.06,44.57v29.38c28.57,14.88,57.16,29.74,85.74,44.61-28.58,14.79-57.16,29.58-85.74,44.38v29.69c28.44,14.83,56.95,29.63,85.49,44.42-7.36,3.81-14.71,7.62-22.07,11.42-20.93,10.83-42.28,21.54-63.42,32.35v30.35c28.36,14.66,56.76,29.31,85.19,43.94-.12.07-.25.13-.37.2h58.21ZM343.14,581.12c-.68-.35-1.35-.7-2.03-1.05-28.28-14.64-56.6-29.25-84.92-43.86,3.6-1.85,7.19-3.69,10.79-5.54,25.08-12.88,50.16-25.76,75.25-38.64,28.93,14.88,57.89,29.75,86.85,44.62-28.64,14.83-57.29,29.65-85.93,44.48ZM686.49,433.03c28.69,14.72,57.38,29.44,86.06,44.17-28.82,14.9-57.63,29.81-86.42,44.72-28.64-14.83-57.28-29.65-85.93-44.48.5-.26,1-.52,1.51-.77,28.29-14.53,56.54-29.08,84.79-43.64ZM571.78,462.74c-.51-.27-1.03-.53-1.55-.8-28.13-14.56-56.3-29.09-84.47-43.63.46-.24.92-.47,1.37-.71,28.22-14.49,56.4-29.01,84.57-43.52,28.66,14.74,57.33,29.47,86.02,44.19-28.66,14.82-57.31,29.64-85.94,44.47ZM714.85,418.43c28.73-14.82,57.43-29.66,86.11-44.51,28.72,14.74,57.43,29.47,86.14,44.21-28.9,14.86-57.76,29.74-86.6,44.63-28.55-14.78-57.1-29.56-85.65-44.33ZM686.17,403.58c-.45-.24-.91-.47-1.36-.71-28.1-14.54-56.24-29.06-84.38-43.58,28.61-14.76,57.19-29.54,85.76-44.32,28.69,14.75,57.39,29.49,86.1,44.23-28.74,14.78-57.44,29.57-86.12,44.38ZM571.7,344.46c-28.61-14.74-57.27-29.47-85.92-44.19,28.64-14.77,57.25-29.57,85.84-44.36,28.61,14.79,57.25,29.56,85.92,44.32-28.65,14.73-57.25,29.48-85.84,44.24ZM799.37,343.8c-28.15-14.57-56.34-29.12-84.53-43.66,28.55-14.79,57.08-29.6,85.59-44.41,28.92,14.87,57.87,29.74,86.82,44.6-28.86,14.71-57.66,29.46-86.43,44.22-.48-.25-.96-.5-1.44-.75ZM686.34,285.44c-28.69-14.79-57.42-29.55-86.16-44.31,28.58-14.81,57.13-29.62,85.67-44.45,28.85,14.91,57.73,29.81,86.64,44.69-28.77,14.66-57.48,29.36-86.15,44.08ZM571.62,226.45c-28.75-14.75-57.53-29.49-86.33-44.23,28.82-14.93,57.61-29.87,86.39-44.82,28.72,14.98,57.51,29.92,86.33,44.85-28.85,14.7-57.64,29.44-86.39,44.2ZM714.36,181.86c28.53-14.83,57.03-29.68,85.52-44.53,29.2,15.1,58.45,30.18,87.71,45.24-28.75,14.68-57.47,29.37-86.21,44.05-28.98-14.93-57.99-29.85-87.02-44.76ZM686.66,167.63c-29.04-14.9-58.11-29.79-87.19-44.67,28.76-14.96,57.51-29.93,86.23-44.91,29.08,15.16,58.22,30.3,87.4,45.41-28.83,14.72-57.62,29.45-86.44,44.16ZM456.67,167.58c-28.81-14.72-57.64-29.44-86.48-44.14,29.18-15.11,58.33-30.24,87.46-45.38,28.74,14.97,57.52,29.92,86.27,44.89-29.14,14.85-58.21,29.73-87.25,44.64ZM428.96,181.81c-29.01,14.92-57.98,29.85-86.93,44.8-28.73-14.68-57.48-29.36-86.25-44.02,29.24-15.08,58.44-30.18,87.63-45.29,28.51,14.84,57.04,29.67,85.56,44.51ZM457.44,196.64c28.48,14.85,57.03,29.68,85.61,44.48-28.73,14.77-57.41,29.56-86.08,44.36-28.67-14.71-57.38-29.41-86.09-44.11,28.88-14.9,57.72-29.81,86.56-44.73ZM428.49,300.19c-28.65,14.81-57.28,29.63-85.9,44.45-28.77-14.76-57.56-29.51-86.37-44.25.59-.31,1.19-.61,1.78-.92,28.35-14.56,56.65-29.14,84.95-43.72,28.46,14.84,56.98,29.65,85.53,44.44ZM457.13,315.02c28.58,14.78,57.2,29.53,85.84,44.28-28.57,14.77-57.12,29.54-85.67,44.33-28.71-14.79-57.45-29.57-86.2-44.33.49-.25.97-.5,1.46-.75,28.22-14.49,56.39-29.01,84.56-43.52ZM428.63,418.47c-28.54,14.78-57.08,29.57-85.63,44.35-28.87-14.88-57.77-29.73-86.68-44.58,28.7-14.74,57.41-29.48,86.11-44.22,28.7,14.84,57.44,29.66,86.2,44.46ZM457.01,433.08c28.78,14.8,57.57,29.59,86.37,44.37-28.63,14.83-57.26,29.66-85.9,44.49-.6-.31-1.2-.62-1.8-.93-28.2-14.6-56.45-29.17-84.7-43.74,28.68-14.73,57.36-29.45,86.03-44.18ZM571.81,581.12c-28.8-14.91-57.61-29.82-86.41-44.73,28.8-14.79,57.59-29.58,86.39-44.36,28.81,14.78,57.61,29.56,86.41,44.35-28.79,14.91-57.59,29.83-86.39,44.74ZM800.46,581.1c-3.64-1.88-7.28-3.77-10.92-5.65-25-12.94-50-25.88-75-38.82.58-.3,1.15-.59,1.73-.89,28.38-14.57,56.71-29.17,85.04-43.77,28.68,14.73,57.36,29.45,86.03,44.18-28.97,14.98-57.93,29.96-86.87,44.95ZM1052.74,503.19c21.26,10.92,42.25,22.06,63.47,33.08-29.03,14.93-58.03,29.87-86.99,44.83-5.16-2.65-10.32-5.31-15.46-7.97-23.41-12.12-46.81-24.23-70.22-36.35,29.04-14.98,58.04-29.98,87.04-44.98,7.39,3.79,14.78,7.59,22.17,11.38ZM914.84,521.94c-3.58-1.85-7.16-3.71-10.74-5.56-24.97-12.92-49.94-25.85-74.91-38.77,28.89-14.9,57.74-29.82,86.59-44.75,28.71,14.74,57.41,29.48,86.12,44.22-29.05,14.94-58.06,29.89-87.05,44.86ZM1116.85,418.22c-29.18,14.87-58.29,29.78-87.37,44.7-3.61-1.87-7.21-3.73-10.82-5.6-25.02-12.95-50.04-25.9-75.06-38.85,28.83-14.93,57.63-29.88,86.42-44.84,28.95,14.86,57.89,29.73,86.84,44.59ZM1002.06,359.27c-29.03,14.79-57.99,29.62-86.91,44.47-28.63-14.82-57.26-29.64-85.89-44.46,28.67-14.85,57.31-29.72,85.94-44.59,28.96,14.86,57.91,29.72,86.86,44.58ZM1117.16,300.47c-29.01,14.81-57.98,29.63-86.98,44.44-28.91-14.97-57.83-29.93-86.74-44.9,28.61-14.88,57.21-29.77,85.78-44.67,29.31,15.04,58.63,30.09,87.93,45.13ZM1002.33,241.54c-28.84,14.72-57.66,29.46-86.49,44.19-.64-.33-1.28-.66-1.91-.99-28.28-14.64-56.6-29.25-84.92-43.86,28.5-14.82,56.98-29.65,85.43-44.49,29.28,15.06,58.58,30.11,87.89,45.15ZM1117.92,183c-2.28,1.15-4.56,2.3-6.85,3.44-26.81,13.44-53.47,26.97-80.09,40.52-.83-.43-1.66-.86-2.48-1.29-28.47-14.74-56.98-29.45-85.5-44.16,28.46-14.82,57.01-29.62,85.45-44.48,29.81,15.33,59.63,30.65,89.47,45.96ZM1003.17,124.02c-2.22,1.12-4.44,2.23-6.66,3.35-26.78,13.43-53.41,26.94-79.99,40.47-29.36-15.13-58.76-30.24-88.17-45.35,28.49-14.83,57.06-29.65,85.54-44.52,29.73,15.37,59.49,30.72,89.29,46.05ZM1026.73,18.02c30.87,15.97,61.79,31.91,92.74,47.83-29.25,14.41-58.23,28.97-87.19,43.54-29.97-15.45-59.99-30.87-90.01-46.3,28.38-14.92,56.6-29.92,84.47-45.08ZM799.71,18.7c29.6,15.44,59.26,30.84,88.97,46.22-2.25,1.13-4.49,2.26-6.74,3.39-26.83,13.45-53.51,26.99-80.15,40.55-29.42-15.1-58.87-30.18-88.34-45.26,28.73-14.96,57.54-29.9,86.26-44.9ZM571.66,18.71c29.1,15.16,58.23,30.29,87.34,45.44-29.11,14.86-58.2,29.74-87.3,44.6-29.09-14.87-58.21-29.73-87.34-44.58,29.12-15.14,58.22-30.3,87.3-45.46ZM344.09,18.47c2.3,1.22,4.61,2.43,6.91,3.65,26.19,13.88,52.54,27.68,78.93,41.47-29.52,15.05-58.98,30.13-88.4,45.23-28.8-14.71-57.58-29.46-86.46-44.15,29.7-15.39,59.37-30.79,89.03-46.19ZM24.37,65.63c30.91-15.94,61.79-31.91,92.65-47.88,27.99,15.1,56.27,30.07,84.58,45.02-30.01,15.43-59.98,30.88-89.93,46.34-28.89-14.61-57.94-29.14-87.3-43.48ZM229.85,77.71c2.19,1.16,4.39,2.32,6.58,3.48,26.06,13.81,52.27,27.55,78.53,41.26-29.4,15.11-58.75,30.25-88.08,45.39-28.73-14.67-57.42-29.38-86.23-44.03,29.76-15.35,59.49-30.72,89.2-46.1ZM25.99,182.82c.96-.49,1.93-.99,2.89-1.48,28.86-14.82,57.68-29.67,86.5-44.52,2.16,1.15,4.33,2.29,6.49,3.43,26.06,13.81,52.28,27.55,78.54,41.26-29.32,15.15-58.62,30.32-87.9,45.48-28.82-14.72-57.61-29.47-86.51-44.18ZM143.44,240.4c28.53-14.65,57.01-29.32,85.48-44,28.48,14.83,56.99,29.64,85.47,44.47-28.93,14.96-57.85,29.92-86.76,44.89-28.82-14.73-57.67-29.46-86.53-44.17.78-.4,1.55-.8,2.33-1.2ZM26.32,300.55c29.3-15.05,58.61-30.1,87.91-45.15,28.59,14.89,57.22,29.76,85.82,44.65-28.9,14.97-57.81,29.94-86.72,44.91-28.99-14.82-57.99-29.62-87.01-44.42ZM228.26,314.74c28.57,14.9,57.21,29.77,85.88,44.62-28.62,14.82-57.24,29.65-85.86,44.47-28.93-14.84-57.88-29.67-86.86-44.5,28.94-14.86,57.89-29.73,86.83-44.59ZM26.64,418.29c3.73-1.92,7.47-3.83,11.2-5.75,25.21-12.95,50.42-25.89,75.64-38.84,28.73,14.98,57.53,29.93,86.36,44.87-28.63,14.82-57.26,29.64-85.88,44.45-29.08-14.92-58.19-29.83-87.31-44.73ZM141.53,477.19c3.62-1.86,7.25-3.72,10.87-5.58,25.08-12.88,50.16-25.76,75.24-38.64,28.86,14.92,57.75,29.82,86.67,44.71-28.55,14.78-57.1,29.56-85.65,44.33-29.02-14.95-58.07-29.89-87.14-44.82ZM26.77,536.15c5.17-2.68,10.35-5.35,15.55-8.02,23.51-12.07,47.02-24.15,70.53-36.22,29.01,15,58.05,29.97,87.12,44.94-7.33,3.79-14.66,7.59-21.99,11.38-21.16,10.95-42.76,21.77-64.13,32.71-29-14.94-58.04-29.87-87.08-44.79Z"/></g><g id="Calque_6"><ellipse class="cls-41" cx="560.33" cy="306.49" rx="239.98" ry="234.83"/><ellipse class="cls-34" cx="560.33" cy="302.27" rx="239.98" ry="234.83"/><path class="cls-36" d="M560.33,538.16c-64.39,0-124.92-24.54-170.45-69.09-45.53-44.55-70.6-103.79-70.6-166.79s25.07-122.24,70.6-166.79c45.53-44.55,106.06-69.09,170.45-69.09s124.92,24.54,170.45,69.09c45.53,44.55,70.6,103.79,70.6,166.79s-25.07,122.24-70.6,166.79c-45.53,44.55-106.06,69.09-170.45,69.09ZM560.33,68.5c-63.81,0-123.81,24.32-168.93,68.47-45.12,44.15-69.97,102.86-69.97,165.3s24.85,121.15,69.97,165.3c45.12,44.15,105.12,68.47,168.93,68.47s123.81-24.32,168.93-68.47c45.12-44.15,69.97-102.86,69.97-165.3s-24.85-121.15-69.97-165.3c-45.12-44.15-105.12-68.47-168.93-68.47Z"/><path class="cls-40" d="M560.33,527.88c-61.58,0-119.48-23.47-163.02-66.08-43.55-42.61-67.53-99.26-67.53-159.52s23.98-116.91,67.53-159.52c43.54-42.61,101.44-66.08,163.02-66.08s119.48,23.47,163.02,66.08c43.54,42.61,67.53,99.26,67.53,159.52s-23.98,116.91-67.53,159.52c-43.55,42.61-101.44,66.08-163.02,66.08ZM560.33,78.78c-125.94,0-228.4,100.26-228.4,223.49s102.46,223.5,228.4,223.5,228.4-100.26,228.4-223.5-102.46-223.49-228.4-223.49Z"/><ellipse class="cls-38" cx="560.33" cy="302.28" rx="184.68" ry="180.71"/><path class="cls-41" d="M382.11,307.54c0,54.34,24.5,103.08,63.3,136.2-42.51-33.1-69.76-84.17-69.76-141.46,0-99.8,82.68-180.71,184.68-180.71,46.5,0,89,16.82,121.46,44.58-31.55-24.61-71.52-39.32-115.01-39.32-102,0-184.67,80.92-184.67,180.71Z"/><path class="cls-39" d="M738.55,297.01c0-54.34-24.5-103.08-63.3-136.2,42.51,33.1,69.75,84.17,69.75,141.46,0,99.8-82.68,180.71-184.68,180.71-46.5,0-89-16.82-121.46-44.59,31.55,24.61,71.52,39.32,115.01,39.32,102,0,184.67-80.92,184.67-180.71Z"/><path class="cls-8" d="M663.86,304.77c-3.51,0-1,5.23,1.15,4.31,2.15-.92,2.31-4.31-1.15-4.31Z"/><path class="cls-10" d="M652.26,259.31c-2.69,2.15,1.01,7.16,2.85,4.81,1.85-2.35-.17-6.96-2.85-4.81Z"/><path class="cls-9" d="M601.97,279.11c-2.69,2.15,1.01,7.16,2.85,4.81,1.85-2.35-.17-6.96-2.85-4.81Z"/><g class="cls-26"><path class="cls-2" d="M651.61,278.5c-2.07-3.07-10.4.5-11.63,2.96-1.23,2.46-1.6,9.66,2.22,10.65,3.82.98,16.12-3.64,9.41-13.6Z"/><path class="cls-3" d="M651.61,278.5c-.18,12.06-12.26,9.8-12.26,9.8.36,1.83,1.23,3.38,2.85,3.8,3.82.98,16.12-3.64,9.41-13.6Z"/></g><path class="cls-25" d="M505.61,157.56c1.79-1.02,3.53-2.11,5.22-3.28,5.02-3.49,15.72-10.69,27.34-17,16.05-8.71,55.71-.1,67.42,12.76s12.93,16.62,11.86,23.4c-1.08,6.77,5.59,8.56,6.78,12.25s12.57,21.28-.91,43.55c-10.56,17.45-16.71,23.47-17.29,23.91-6.19,4.66-27.91,20.77-45.34,14.07l-.93-.36c-8.25-3.17-17.03-4.61-25.87-4.61-2.87,0-5.99-.56-8.72-2.29-7.16-4.54-30.27-18.3-31.63-42.86-.17-3.1-.54-6.18-1.17-9.22-1.09-5.21-2.61-14.25-2.9-25.35-.37-13.97,11.19-22.11,16.15-24.96Z"/><circle class="cls-1" cx="568.91" cy="162.82" r="11.74"/><circle class="cls-1" cx="601.02" cy="207.93" r="11.74"/><circle class="cls-1" cx="522.17" cy="191.75" r="11.74"/><circle class="cls-1" cx="545.44" cy="231.41" r="11.74"/><path class="cls-5" d="M696.62,242.38c-3.51,0-1,5.23,1.15,4.31,2.15-.92,2.31-4.31-1.15-4.31Z"/><path class="cls-6" d="M685.03,196.92c-2.69,2.15,1.01,7.16,2.85,4.81,1.85-2.35-.17-6.96-2.85-4.81Z"/><path class="cls-7" d="M634.74,216.72c-2.69,2.15,1.01,7.16,2.85,4.81,1.85-2.35-.17-6.96-2.85-4.81Z"/><g class="cls-27"><path class="cls-2" d="M684.37,216.11c-2.07-3.07-10.4.5-11.63,2.96-1.23,2.46-1.6,9.66,2.22,10.65,3.82.98,16.12-3.64,9.41-13.6Z"/><path class="cls-3" d="M684.37,216.11c-.18,12.06-12.26,9.8-12.26,9.8.36,1.83,1.23,3.38,2.85,3.8,3.82.98,16.12-3.64,9.41-13.6Z"/></g><path class="cls-25" d="M589.99,264.38c1.79-1.02,3.53-2.11,5.22-3.28,5.02-3.49,15.72-10.69,27.34-17,16.05-8.71,55.71-.1,67.42,12.76s12.93,16.62,11.86,23.4c-1.08,6.77,5.59,8.56,6.78,12.25s12.57,21.28-.91,43.55c-10.56,17.45-16.71,23.47-17.29,23.91-6.19,4.66-27.91,20.77-45.34,14.07l-.93-.36c-8.25-3.17-17.03-4.61-25.87-4.61-2.87,0-5.99-.56-8.72-2.29-7.16-4.54-30.27-18.3-31.63-42.86-.17-3.1-.54-6.18-1.17-9.22-1.09-5.21-2.61-14.25-2.9-25.35-.37-13.97,11.19-22.11,16.15-24.96Z"/><circle class="cls-1" cx="653.3" cy="269.65" r="11.74"/><circle class="cls-1" cx="685.41" cy="314.76" r="11.74"/><circle class="cls-1" cx="606.55" cy="298.58" r="11.74"/><circle class="cls-1" cx="629.82" cy="338.24" r="11.74"/><path class="cls-4" d="M642.02,399.37c-3.27,1.27.97,5.24,2.64,3.6,1.67-1.64.59-4.85-2.64-3.6Z"/><path class="cls-15" d="M638.54,443.55c-1.72,2.98,3.54,6.31,4.4,3.45.87-2.86-2.68-6.43-4.4-3.45Z"/><g class="cls-32"><path class="cls-2" d="M640.43,414.18c-2.82,4.14-4.52,11.66-.98,12.93,3.53,1.27,13.06-.13,13.32-5.18.26-5.05-9.41-12.04-12.34-7.74Z"/><path class="cls-3" d="M642.76,427.54c4.21-.04,9.81-1.76,10.01-5.62.14-2.78-2.72-6.15-5.81-7.89,6.07,8.25-3.56,13.2-4.2,13.51Z"/></g><path class="cls-13" d="M480.75,424.3c-3.51,0-1,5.23,1.15,4.31,2.15-.92,2.31-4.31-1.15-4.31Z"/><path class="cls-12" d="M469.16,378.85c-2.69,2.15,1.01,7.16,2.85,4.81,1.85-2.35-.17-6.96-2.85-4.81Z"/><path class="cls-21" d="M418.86,398.65c-2.69,2.15,1.01,7.16,2.85,4.81,1.85-2.35-.17-6.96-2.85-4.81Z"/><g class="cls-33"><path class="cls-2" d="M468.5,398.04c-2.07-3.07-10.4.5-11.63,2.96-1.23,2.46-1.6,9.66,2.22,10.65,3.82.98,16.12-3.64,9.41-13.6Z"/><path class="cls-3" d="M468.5,398.04c-.18,12.06-12.26,9.8-12.26,9.8.36,1.83,1.23,3.38,2.85,3.8,3.82.98,16.12-3.64,9.41-13.6Z"/></g><path class="cls-25" d="M499.41,369.31c1.79-1.02,3.53-2.11,5.22-3.28,5.02-3.49,15.72-10.69,27.34-17,16.05-8.71,55.71-.1,67.42,12.76s12.93,16.62,11.86,23.4,5.59,8.56,6.78,12.25c1.2,3.69,12.57,21.28-.91,43.55-10.56,17.45-16.71,23.47-17.29,23.91-6.19,4.66-27.91,20.77-45.34,14.07l-.93-.36c-8.25-3.17-17.03-4.61-25.87-4.61-2.87,0-5.99-.56-8.72-2.29-7.16-4.54-30.27-18.3-31.63-42.86-.17-3.1-.54-6.18-1.17-9.22-1.09-5.21-2.61-14.25-2.9-25.35-.37-13.97,11.19-22.11,16.15-24.96Z"/><circle class="cls-1" cx="562.72" cy="374.57" r="11.74"/><circle class="cls-1" cx="594.82" cy="419.69" r="11.74"/><circle class="cls-1" cx="515.97" cy="403.5" r="11.74"/><circle class="cls-1" cx="539.24" cy="443.16" r="11.74"/><path class="cls-11" d="M553.46,288.77c-3.27,1.27.97,5.24,2.64,3.6,1.67-1.64.59-4.85-2.64-3.6Z"/><path class="cls-20" d="M549.98,332.95c-1.72,2.98,3.54,6.31,4.4,3.45.87-2.86-2.68-6.43-4.4-3.45Z"/><g class="cls-28"><path class="cls-2" d="M551.88,303.58c-2.82,4.14-4.52,11.66-.98,12.93,3.53,1.27,13.06-.13,13.32-5.18.26-5.05-9.41-12.04-12.34-7.74Z"/><path class="cls-3" d="M554.21,316.95c4.21-.04,9.81-1.76,10.01-5.62.14-2.78-2.72-6.15-5.81-7.89,6.07,8.25-3.56,13.2-4.2,13.51Z"/></g><path class="cls-16" d="M569.1,405.92c-3.51,0-1,5.23,1.15,4.31,2.15-.92,2.31-4.31-1.15-4.31Z"/><path class="cls-23" d="M557.51,360.47c-2.69,2.15,1.01,7.16,2.85,4.81,1.85-2.35-.17-6.96-2.85-4.81Z"/><path class="cls-24" d="M507.22,380.27c-2.69,2.15,1.01,7.16,2.85,4.81,1.85-2.35-.17-6.96-2.85-4.81Z"/><g class="cls-31"><path class="cls-2" d="M556.85,379.66c-2.07-3.07-10.4.5-11.63,2.96-1.23,2.46-1.6,9.66,2.22,10.65,3.82.98,16.12-3.64,9.41-13.6Z"/><path class="cls-3" d="M556.85,379.66c-.18,12.06-12.26,9.8-12.26,9.8.36,1.83,1.23,3.38,2.85,3.8,3.82.98,16.12-3.64,9.41-13.6Z"/></g><path class="cls-25" d="M410.86,258.71c1.79-1.02,3.53-2.11,5.22-3.28,5.02-3.49,15.72-10.69,27.34-17,16.05-8.71,55.71-.1,67.42,12.76,11.71,12.86,12.93,16.62,11.86,23.4s5.59,8.56,6.78,12.25,12.57,21.28-.91,43.55c-10.56,17.45-16.71,23.47-17.29,23.91-6.19,4.66-27.91,20.77-45.34,14.07l-.93-.36c-8.25-3.17-17.03-4.61-25.87-4.61-2.87,0-5.99-.56-8.72-2.29-7.16-4.54-30.27-18.3-31.63-42.86-.17-3.1-.54-6.18-1.17-9.22-1.09-5.21-2.61-14.25-2.9-25.35-.37-13.97,11.19-22.11,16.15-24.96Z"/><circle class="cls-1" cx="474.16" cy="263.98" r="11.74"/><circle class="cls-1" cx="506.27" cy="309.09" r="11.74"/><circle class="cls-1" cx="427.42" cy="292.91" r="11.74"/><circle class="cls-1" cx="450.68" cy="332.57" r="11.74"/><path class="cls-18" d="M642.02,297.98c-3.27,1.27.97,5.24,2.64,3.6,1.67-1.64.59-4.85-2.64-3.6Z"/><path class="cls-19" d="M638.54,342.16c-1.72,2.98,3.54,6.31,4.4,3.45.87-2.86-2.68-6.43-4.4-3.45Z"/><g class="cls-29"><path class="cls-2" d="M640.43,312.79c-2.82,4.14-4.52,11.66-.98,12.93,3.53,1.27,13.06-.13,13.32-5.18.26-5.05-9.41-12.04-12.34-7.74Z"/><path class="cls-3" d="M642.76,326.16c4.21-.04,9.81-1.76,10.01-5.62.14-2.78-2.72-6.15-5.81-7.89,6.07,8.25-3.56,13.2-4.2,13.51Z"/></g><path class="cls-22" d="M657.66,415.13c-3.51,0-1,5.23,1.15,4.31,2.15-.92,2.31-4.31-1.15-4.31Z"/><path class="cls-17" d="M646.07,369.68c-2.69,2.15,1.01,7.16,2.85,4.81,1.85-2.35-.17-6.96-2.85-4.81Z"/><path class="cls-14" d="M595.77,389.48c-2.69,2.15,1.01,7.16,2.85,4.81,1.85-2.35-.17-6.96-2.85-4.81Z"/><g class="cls-30"><path class="cls-2" d="M645.41,388.87c-2.07-3.07-10.4.5-11.63,2.96-1.23,2.46-1.6,9.66,2.22,10.65,3.82.98,16.12-3.64,9.41-13.6Z"/><path class="cls-3" d="M645.41,388.87c-.18,12.06-12.26,9.8-12.26,9.8.36,1.83,1.23,3.38,2.85,3.8,3.82.98,16.12-3.64,9.41-13.6Z"/></g><path class="cls-25" d="M499.41,267.92c1.79-1.02,3.53-2.11,5.22-3.28,5.02-3.49,15.72-10.69,27.34-17,16.05-8.71,55.71-.1,67.42,12.76,11.71,12.86,12.93,16.62,11.86,23.4s5.59,8.56,6.78,12.25,12.57,21.28-.91,43.55c-10.56,17.45-16.71,23.47-17.29,23.91-6.19,4.66-27.91,20.77-45.34,14.07l-.93-.36c-8.25-3.17-17.03-4.61-25.87-4.61-2.87,0-5.99-.56-8.72-2.29-7.16-4.54-30.27-18.3-31.63-42.86-.17-3.1-.54-6.18-1.17-9.22-1.09-5.21-2.61-14.25-2.9-25.35-.37-13.97,11.19-22.11,16.15-24.96Z"/><circle class="cls-1" cx="562.72" cy="273.19" r="11.74"/><circle class="cls-1" cx="594.82" cy="318.3" r="11.74"/><circle class="cls-1" cx="515.97" cy="302.12" r="11.74"/><circle class="cls-1" cx="539.24" cy="341.78" r="11.74"/></g></svg>