<?xml version="1.0" encoding="UTF-8"?>
<svg id="Calque_1" data-name="Calque 1" xmlns="http://www.w3.org/2000/svg" viewBox="0 0 1080 1080">
  <defs>
    <style>
      .cls-1 {
        font-family: Fredoka-Bold, Fredoka;
        font-size: 25px;
        font-variation-settings: 'wght' 700, 'wdth' 100;
        font-weight: 700;
      }

      .cls-1, .cls-2 {
        fill: #fff;
      }

      .cls-3, .cls-4, .cls-2 {
        stroke-width: 0px;
      }

      .cls-3, .cls-5 {
        fill: #866612;
      }

      .cls-6 {
        stroke: #1e1f1d;
      }

      .cls-6, .cls-7, .cls-8, .cls-5, .cls-9, .cls-10, .cls-11 {
        stroke-miterlimit: 10;
      }

      .cls-6, .cls-8 {
        fill: #4b4b4a;
      }

      .cls-4 {
        fill: #233328;
      }

      .cls-7 {
        fill: #74b72b;
      }

      .cls-7, .cls-9 {
        stroke: #1e1f1e;
      }

      .cls-8 {
        stroke: #1e1e1d;
      }

      .cls-5, .cls-10, .cls-11 {
        stroke: #000;
        stroke-width: 3px;
      }

      .cls-9 {
        fill: #2a200d;
      }

      .cls-10 {
        fill: #117222;
      }

      .cls-11 {
        fill: none;
      }
    </style>
  </defs>
  <path class="cls-3" d="M483.85,163.19l-.82,45.11c-.02,1.09.4,2.13,1.17,2.9l3.46,3.46c.85.85,1.27,2.02,1.15,3.21l-6.95,71.86c-.24,2.45-1.29,4.76-2.99,6.54-28.25,29.56-42.39,35.63-42.87,81.72l-3,464c-1.45,30.93,2.18,54.73,24,53h130c20.7,2.02,25.81-20.08,22-56l1.96-451.42c.04-9.33-.54-18.65-1.87-27.89-5.87-40.73-19.32-39.74-39.08-64.15-1.31-1.62-2.13-3.59-2.37-5.65l-8.36-72.46c-.17-1.49.51-2.95,1.75-3.79l2.18-1.46c1.11-.74,1.78-1.99,1.78-3.33v-45.21c0-5.02-3.39-9.43-8.26-10.66-16.98-4.27-46.6-3.9-64.11-.38-5.05,1.02-8.69,5.43-8.78,10.58Z"/>
  <path class="cls-4" d="M557,217l-65,1c-6.6,0-10-13-8-18v-36c0-6.6,5.4-12,12-12,17.22-2.64,35.67-2.35,55,0,6.6,0,13,4.4,13,11l1,37c0,6.6-2,14-8,17Z"/>
  <path class="cls-11" d="M483.85,163.19l-.82,45.11c-.02,1.09.4,2.13,1.17,2.9l3.46,3.46c.85.85,1.27,2.02,1.15,3.21l-6.95,71.86c-.24,2.45-1.29,4.76-2.99,6.54-28.25,29.56-42.39,35.63-42.87,81.72l-3,464c-1.45,30.93,2.18,54.73,24,53h130c20.7,2.02,25.81-20.08,22-56l1.96-451.42c.04-9.33-.54-18.65-1.87-27.89-5.87-40.73-19.32-39.74-39.08-64.15-1.31-1.62-2.13-3.59-2.37-5.65l-8.36-72.46c-.17-1.49.51-2.95,1.75-3.79l2.18-1.46c1.11-.74,1.78-1.99,1.78-3.33v-45.21c0-5.02-3.39-9.43-8.26-10.66-16.98-4.27-46.6-3.9-64.11-.38-5.05,1.02-8.69,5.43-8.78,10.58Z"/>
  <rect class="cls-10" x="467.5" y="399.5" width="110" height="406" rx="12" ry="12"/>
  <line class="cls-5" x1="488.82" y1="217.88" x2="559.28" y2="217.43"/>
  <g>
    <path class="cls-6" d="M524.65,498.08c1.79-5.6-1.39-11.74-6.58-14.23-7.43-3.56-13.28,3.03-13.9,10.09-.54,6.12,3.33,11.25,9.14,12.77,5.1-.58,9.71-3.53,11.34-8.62ZM516.58,486.05c.28-.21.63.15.37.4-.28.3-.64.5-1.03.64.37.67.94,1.25,1.57,1.86.15.15-.03.44-.22.36-.86-.4-1.46-1.19-1.81-2.08-.39.07-.78.09-1.15.05-.22-.03-.21-.34.01-.36.34,0,.66-.07.97-.18-.15-.52-.22-1.04-.22-1.53,0-.22.34-.19.34.03,0,.5.12.95.28,1.35.31-.15.6-.33.9-.53h-.01,0Z"/>
    <path class="cls-8" d="M523.5,497.58c-1.79-5.6,1.39-11.74,6.58-14.23,7.43-3.56,13.28,3.03,13.9,10.09.54,6.12-3.33,11.25-9.14,12.77-5.1-.58-9.71-3.53-11.34-8.62ZM531.57,485.54c-.28-.21-.63.15-.37.4.28.3.64.5,1.03.64-.37.67-.94,1.25-1.57,1.86-.15.15.03.44.22.36.86-.4,1.46-1.19,1.81-2.08.39.07.78.09,1.15.05.22-.03.21-.34-.01-.36-.34,0-.66-.07-.97-.18.15-.52.22-1.04.22-1.53,0-.22-.34-.19-.34.03,0,.5-.12.95-.28,1.35-.31-.15-.6-.33-.9-.53h.01,0Z"/>
    <path class="cls-7" d="M517.45,473.65c-5.32-3.94-12.23-8.31-21.51-13.77-.87-.51-1.08-.79-.73-.82,1.07-.08,7.51,2.28,16.23,7.68,1.69,1.05,3.47,2.21,5.32,3.5-1.31-2.92-3.23-5.59-5.53-7.82-3.04-2.95-6.68-5.18-10.56-6.88-2.04-.9-4.16-1.65-6.29-2.29-1.94-.58-4.13-1.05-5.9-.06-1.49.83-2.33,2.58-2.37,4.29-.04,1.71.62,3.37,1.53,4.82,2.86,4.52,7.93,6.98,12.98,8.9.52.2,1.04.39,1.56.58,4.61,1.68,12.92,6.06,15.58,7.49.28-1.98.27-3.96-.3-5.61h0Z"/>
    <path class="cls-7" d="M534.59,482.96c3.37-3.82,5.6-8.69,7.7-13.4,1.51-3.39,3.03-6.8,3.95-10.39.11-.42.2-.84.29-1.26.85-4.03.8-8.37-.9-12.13l-.03-.06c-.52-1.13-1.43-2.34-2.67-2.29-1.04.04-1.81.95-2.44,1.77-4.35,5.71-11.06,9.73-13.71,16.41-2.4,6.04-.89,13.6,1.7,19.78.63.79,1.22,1.55,1.75,2.24,1.31-.53,2.84-.7,4.35-.68h0Z"/>
    <path class="cls-9" d="M516.23,485.3c-.55-.05-1.11.04-1.63.21-.49.17-1.04.53-1,1.05.03.43.46,1.74,2.39,2.37.59.19,1.29.2,1.8-.16.6-.42.81-1.28.56-1.97-.14-.39-.4-.72-.73-.97l.02-.04c.19-.38.36-.77.52-1.16,1.22-3.05,1.5-6.5.9-9.76,4.25,3.27,7.41,6.28,9.97,9.41.29.36.58.72.86,1.08-.27.48-.44,1.03-.52,1.59-.08.58,0,1.3.54,1.53.44.19,1.97.42,3.57-1.19.49-.49.85-1.18.75-1.87-.12-.81-.86-1.45-1.68-1.55-.62-.08-1.25.12-1.76.49-.17-.23-.35-.47-.54-.71-.53-.69-1.12-1.46-1.75-2.24-2.41-3.02-5.39-6.47-7.78-8.28-1.34-1.02-2.67-1.97-3.96-2.87-1.84-1.28-3.62-2.45-5.32-3.5-8.72-5.4-15.15-7.76-16.23-7.68-.35.03-.13.3.73.82,9.28,5.46,16.19,9.83,21.51,13.77.57,1.65.58,3.63.3,5.61-.25,1.76-.72,3.52-1.2,5.04-.06.19-.12.37-.18.55-.05.15-.1.3-.14.46h0Z"/>
    <path class="cls-9" d="M541.74,451.47c.15-.28.3-.58.29-.89-.01-.32-.25-.65-.57-.65-.23,0-.42.17-.59.33-.75.72-1.48,1.47-2.18,2.24-.33.36-.66.73-.98,1.11-1.71,2-3.27,4.16-4.38,6.54-1.63,3.52-2.09,8.86-2.07,13.28.03,5.85.89,10.08.99,6.28.07-2.67.75-9.85,1-11.67.44-3.1,1.43-7.23,3.06-9.9,1.63-2.67,3.92-3.93,5.41-6.68h0Z"/>
  </g>
  <text class="cls-1" transform="translate(488.3 605.92)"><tspan x="0" y="0">HUILE </tspan><tspan x="-12.49" y="30">D’OLIVE</tspan></text>
  <path class="cls-2" d="M555.5,317.5c24.19-2,42.66,21.95,39,45-2.02-5.17-3.9-10.07-6.2-14.66-7.13-14.79-17.79-23.76-32.8-30.34h0Z"/>
</svg>