<?xml version="1.0" encoding="UTF-8"?>
<svg id="Calque_1" data-name="Calque 1" xmlns="http://www.w3.org/2000/svg" viewBox="0 0 1080 1080">
  <defs>
    <style>
      .cls-1 {
        fill: #f7f7f7;
      }

      .cls-1, .cls-2, .cls-3 {
        stroke: #000;
        stroke-miterlimit: 10;
        stroke-width: 3px;
      }

      .cls-2 {
        fill: red;
      }

      .cls-3 {
        fill: #d1d1d1;
      }
    </style>
  </defs>
  <path class="cls-2" d="M553.45,953.9c-57.7-188.78-29.91-342.4-19.49-497.47,1.28-19.02-2.05-38.14-10.23-55.36-24.19-50.93-74.65-57.11-90.73-69.07-36.2-26.98-40.5-56.5-41.5-86.5l-.87-53.36c-.12-7.05,3.65-13.73,9.96-16.86,4.24-2.1,8.53-2.25,12.93-1.39,6.32,1.24,10.65,7.1,10.14,13.52-7.15,89.69,7,105.56,69.09,127.64,30.93,11,63.8,15.86,96.54,13.51,34.63-2.48,65.85-12.35,91.22-28.06,27.05-14.26,38.58-51.97,34.85-110.11-.44-6.85,4.54-12.81,11.35-13.65,2.93-.36,5.74-.42,8.38-.07,5.4.73,9.59,5.1,10.19,10.52,6.97,62.57,2.21,104.47-15.67,123.25-1.28,1.35-2.58,2.69-3.76,4.12-32.33,38.97-89.69,26.04-115.59,93.85-7.14,18.68-9.78,38.79-8.29,58.73,21.58,289.05,24.45,316.94-22.76,488.82-.71,2.57-2.07,4.95-4.08,6.69-2.71,2.34-5.82,3.04-9.25,2.48-5.93-.98-10.66-5.48-12.42-11.23Z"/>
  <path class="cls-3" d="M444.98,136.89c87.51,7.59,172.49,8.85,254.53,2.76,1.81-.13,3.64.01,5.37.57,5.23,1.7,7.62,5.25,7.62,14.28l-.48,55.75c-.52,16.25-3.52,19.25-18.52,19.25l-250-3c-15,0-17-5-17.51-23.04l-.47-50.74c-.02-2.34.39-4.68,1.38-6.8,1.34-2.85,3.41-4.93,6.09-6.5,3.6-2.11,7.83-2.89,11.98-2.53Z"/>
  <rect class="cls-1" x="451.5" y="160.5" width="235" height="48"/>
</svg>