<?xml version="1.0" encoding="UTF-8"?>
<svg id="Calque_1" data-name="Calque 1" xmlns="http://www.w3.org/2000/svg" viewBox="0 0 1080 1080">
  <defs>
    <style>
      .cls-1 {
        fill: #d8d8d8;
      }

      .cls-1, .cls-2 {
        stroke-width: 0px;
      }

      .cls-2 {
        fill: #686868;
      }

      .cls-3 {
        fill: none;
        stroke: #000;
        stroke-linejoin: round;
        stroke-width: 3px;
      }
    </style>
  </defs>
  <path class="cls-1" d="M614.06,991.25c2.24-335.3,20.38-808.89-20.16-917.31-1.52-4.06-7-4.7-9.42-1.1-64.05,95.42-91.9,295.88-100.09,553.39-.23,7.25,4.93,13.56,12.08,14.77,24.64,4.14,34.76,3.69,48.33,18.01,3.93,4.15,6.32,9.55,6.65,15.26,1.95,33.94-14.18,126.99,2.87,257.56,1.41,10.77-1.5,21.69-8.17,30.26-3.31,4.25-7.51,8.73-12.85,13.55-3.82,3.43-4.81,9.05-2.43,13.59,18.22,34.83,50.23,47.54,70.79,29.71,7.98-6.92,12.34-17.12,12.41-27.68Z"/>
  <path class="cls-2" d="M607.5,1011c-15,23-39.65,18.12-55.5,5-11-10-28.13-27.78-21.5-37,11.5-16,25.02-22.54,23.5-40-12-138-5.5-204-2-264h65.5c-4,165-1,259-4,310-.41,6.99,0,18-6,26Z"/>
  <path class="cls-3" d="M614.06,991.25c2.24-335.3,20.38-808.89-20.16-917.31-1.52-4.06-7-4.7-9.42-1.1-64.05,95.42-91.9,295.88-100.09,553.39-.23,7.25,4.93,13.56,12.08,14.77,24.64,4.14,34.76,3.69,48.33,18.01,3.93,4.15,6.32,9.55,6.65,15.26,1.95,33.94-14.18,126.99,2.87,257.56,1.41,10.77-1.5,21.69-8.17,30.26-3.31,4.25-7.51,8.73-12.85,13.55-3.82,3.43-4.81,9.05-2.43,13.59,18.22,34.83,50.23,47.54,70.79,29.71,7.98-6.92,12.34-17.12,12.41-27.68Z"/>
  <line class="cls-3" x1="551.5" y1="674.5" x2="617.5" y2="674.5"/>
</svg>