<?xml version="1.0" encoding="UTF-8"?>
<svg id="Calque_1" data-name="Calque 1" xmlns="http://www.w3.org/2000/svg" viewBox="0 0 1080 1080">
  <defs>
    <style>
      .cls-1 {
        fill: #fea800;
      }

      .cls-1, .cls-2, .cls-3, .cls-4 {
        stroke-width: 0px;
      }

      .cls-5 {
        fill: none;
        stroke: #000;
        stroke-miterlimit: 10;
        stroke-width: 3px;
      }

      .cls-2 {
        fill: #a03a07;
      }

      .cls-3 {
        fill: #fe5c02;
      }

      .cls-4 {
        fill: #43b55e;
      }
    </style>
  </defs>
  <path class="cls-4" d="M538.76,577.39c-18.29-8.24-32.16-20.73-43.26-35.89,6.39-135.08,19.14-255.34,61.08-307.41,1.2-1.5,3.6-1.01,4.14.83,20.7,69.65,28.01,180.14,29.77,307.57-8.49,14.81-24,26.07-44.19,34.98-2.22,1.76-5.37,1.72-7.56-.09Z"/>
  <path class="cls-4" d="M727.42,520.39l-7.51,25.06c-1.18,3.95-5.9,5.55-9.25,3.15l-32.17-23.09"/>
  <path class="cls-4" d="M495.5,529.5l-39.91,24.49c-2.39,1.47-5.48,1.08-7.44-.93l-33.65-34.56"/>
  <path class="cls-1" d="M226.5,505.5c-49.57-5.12-99.35-5.47-132.63,29.43-2.17,2.27-3.59,5.23-3.68,8.37-.24,8.76,9.03,13.11,25.3,14.2l149,9"/>
  <path class="cls-1" d="M882.01,509.48c64.84-3.27,112.4,7.32,134.8,38.06.7.96,1.18,2.09,1.25,3.28.98,16.98-73.12,16.6-148.39,15.94"/>
  <path class="cls-3" d="M220.11,564.41c-.34,40.94,4.32,80.39,21.39,116.09,22.96,53.82,36.67,96.69,57.72,124.84,10.79,14.43,25.79,25.2,42.85,31.02,146.02,49.8,360.58,45.97,446.71-12.24,10.57-7.14,18.99-17.03,24.71-28.43,47.65-94.95,81.72-179.59,69-228.75"/>
  <path class="cls-2" d="M395.5,476.5c-301.58,20.8-252,113,136,115,670-8,291-117,187.72-111.07"/>
  <path class="cls-1" d="M372.5,581.5c44.06-186.56,76.7-316,166.3-346.28,13.43-4.54,27.99-4.74,41.34.06,76.73,27.59,120.9,166.39,158.36,348.22-111.5,6.5-234.39,11.2-366-2Z"/>
  <path class="cls-5" d="M372.5,580.5c44.06-186.56,76.7-316,166.3-346.28,13.43-4.54,27.99-4.74,41.34.06,76.73,27.59,120.9,166.39,158.36,348.22-112,7-234.39,11.2-366-2Z"/>
  <path class="cls-5" d="M538.76,575.39c-18.29-8.24-32.16-20.73-43.26-35.89,6.39-135.08,19.14-255.34,61.08-307.41,1.2-1.5,3.6-1.01,4.14.83,20.7,69.65,28.01,180.14,29.77,307.57-8.49,14.81-24,26.07-44.19,34.98-2.22,1.76-5.37,1.72-7.56-.09Z"/>
  <path class="cls-5" d="M727.42,530.39l-7.51,25.06c-1.18,3.95-5.9,5.55-9.25,3.15l-32.17-23.09"/>
  <path class="cls-5" d="M385.5,526.5l1.67,16.15c.53,5.08,6.75,7.22,10.29,3.54l17.04-17.69c25.31-143.24,63.27-260.02,139.28-297.21,3.74-1.83,8.07-1.96,11.91-.37,57.92,23.87,93.72,132.28,112.81,304.58l-29.66,35.05c-1.92,2.27-5.21,2.79-7.74,1.23l-50.6-31.28"/>
  <path class="cls-5" d="M495.5,539.5l-39.91,24.49c-2.39,1.47-5.48,1.08-7.44-.93l-33.65-34.56"/>
  <path class="cls-5" d="M395.5,474.5c-301.58,20.8-252,113,136,115,670-8,291-117,187.72-111.07"/>
  <path class="cls-5" d="M226.5,504.5c-49.57-5.12-99.35-5.47-132.63,29.43-2.17,2.27-3.59,5.23-3.68,8.37-.24,8.76,9.03,13.11,25.3,14.2l149,9"/>
  <path class="cls-5" d="M882.01,508.48c64.84-3.27,112.4,7.32,134.8,38.06.7.96,1.18,2.09,1.25,3.28.98,16.98-73.12,16.6-148.39,15.94"/>
  <path class="cls-5" d="M220.11,563.41c-.34,40.94,4.32,80.39,21.39,116.09,22.96,53.82,36.67,96.69,57.72,124.84,10.79,14.43,25.79,25.2,42.85,31.02,146.02,49.8,360.58,45.97,446.71-12.24,10.57-7.14,18.99-17.03,24.71-28.43,47.65-94.95,81.72-179.59,69-228.75"/>
</svg>