<?xml version="1.0" encoding="UTF-8"?>
<svg id="Calque_1" data-name="Calque 1" xmlns="http://www.w3.org/2000/svg" viewBox="0 0 1080 1080">
  <defs>
    <style>
      .cls-1 {
        fill: #a5a5a5;
      }

      .cls-1, .cls-2 {
        stroke: #000;
        stroke-miterlimit: 10;
        stroke-width: 3px;
      }

      .cls-2 {
        fill: #e2e2e2;
      }
    </style>
  </defs>
  <path class="cls-2" d="M554.59,415.07c-5.23-.06-10.33-.39-15.3-.94-.74,94.16-4.66,587.93-4.94,613.99-.13,12.15,16.76,20.49,32.62,20.66,6.52.07,28-1.33,30.96-22.23,4.93-34.85-8.44-503.54-11.68-613.73-9.99,1.55-20.48,2.37-31.64,2.25h-.02Z"/>
  <path class="cls-2" d="M658.65,372c20.28-24.81,31.26-60.12,31.71-102.15,1.08-100.13-60.41-223.11-133.74-223.91-69.1-.75-121.95,110.11-123.03,209.74-.48,44.63,9.02,82.83,27.5,110.48,21.07,31.55,52.53,47.77,93.52,48.22,45.64.49,80.64-13.78,104.05-42.39h-.02Z"/>
  <path class="cls-1" d="M637.09,346.45c15.78-19.31,24.32-46.79,24.67-79.47.84-77.91-47.01-173.61-104.07-174.23-53.77-.58-94.9,85.69-95.74,163.2-.38,34.72,7.03,64.45,21.4,85.98,16.39,24.54,40.87,37.16,72.78,37.51,35.51.38,62.74-10.72,80.96-33v.02Z"/>
</svg>