<?xml version="1.0" encoding="UTF-8"?>
<svg id="Calque_1" data-name="Calque 1" xmlns="http://www.w3.org/2000/svg" viewBox="0 0 1080 1080">
  <defs>
    <style>
      .cls-1 {
        fill: #d8d8d8;
        stroke: #000;
        stroke-miterlimit: 10;
        stroke-width: 3px;
      }
    </style>
  </defs>
  <path class="cls-1" d="M413.38,200.53c81.79,172.49,162.79,343.33,244.09,514.8,17.98-19.66,39.18-31.32,64.6-35.32,56.72-8.92,110.96,32.22,118.44,90.02,7.5,57.88-34.28,111.45-91.44,117.26-63.25,6.42-115.61-40.32-116.8-103.88-.56-29.87-10.28-56.69-29.53-79.67-16.03-19.15-36.89-29.35-61.8-30.68-5.24-.28-7.63-1.99-9.57-6.79-47.57-117.99-95.3-235.91-143.03-353.84-5.25-12.98-5.52-26.34-3.5-39.93,3.81-25.66,14.35-48.62,28.53-71.96ZM737.28,716.37c-37.15-.2-67.34,29.56-67.55,66.59-.21,37.41,29.97,67.89,67.23,67.88,36.56,0,66.88-29.97,67.19-66.38.32-37.63-29.4-67.89-66.87-68.09ZM565.1,581.98c.05-11.33-8.74-20.28-20.07-20.42-11.69-.15-20.85,8.95-20.71,20.56.14,11.11,9.41,20.27,20.47,20.23,11.1-.05,20.26-9.24,20.31-20.37Z"/>
  <path class="cls-1" d="M432.41,714.32c16.63-35.03,33.35-70.22,50.77-106.91,10.84,25.43,21.1,49.47,31.53,73.91-31.91,17.54-47.92,45.88-55.03,79.83-2.49,11.88-2.05,24.33-3.72,36.42-7.84,56.64-57.52,95.29-115.01,89.75-54.33-5.23-96.67-54.43-92.7-109.74,3.13-43.61,25.55-75.33,66.48-91.18,40.85-15.82,78.23-7.26,110.7,22.23,1.92,1.75,3.74,3.61,5.62,5.4.14.13.44.1,1.36.29ZM352.59,716.38c-37.2-.01-67.16,29.76-67.29,66.87-.13,36.99,29.82,67.32,66.76,67.61,37.17.29,67.71-30.14,67.71-67.47,0-37.01-30.07-67-67.18-67.01Z"/>
  <path class="cls-1" d="M676.14,200.57c16.8,26.77,30.04,53.33,30.36,84.32.08,8.13-1.33,16.84-4.34,24.36-31.76,79.41-63.98,158.63-96.09,237.9-.55,1.36-1.35,2.62-2.53,4.87-12.58-26.47-23.67-52.56-37.2-77.31-8.49-15.53-7.85-27.86-.07-43.72,35.71-72.82,69.93-146.37,104.68-219.66,1.52-3.2,3.08-6.39,5.2-10.77Z"/>
</svg>