<?xml version="1.0" encoding="UTF-8"?>
<svg id="Calque_1" data-name="Calque 1" xmlns="http://www.w3.org/2000/svg" viewBox="0 0 1080 1080">
  <defs>
    <style>
      .cls-1 {
        fill: #774d38;
        stroke-miterlimit: 10;
      }

      .cls-1, .cls-2 {
        stroke-width: 4px;
      }

      .cls-1, .cls-2, .cls-3 {
        fill-rule: evenodd;
        stroke: #000;
      }

      .cls-2 {
        fill: #a0a0a0;
      }

      .cls-2, .cls-3 {
        stroke-linecap: round;
        stroke-linejoin: round;
      }

      .cls-3 {
        fill: none;
        stroke-width: 3px;
      }
    </style>
  </defs>
  <path class="cls-1" d="M446.95,174.9c2.74-14.71,11.55-27.48,24.43-35.09,50.3-29.69,156.17-19.09,167.12,32.69,4.18,21.14.71,36.97-14,45,6.53,8.81,7.74,17.8,3,27,1.31,12.95-1.17,22.13-11,24,7.48,6.5-4.89,35.82-18,66-8.52,91.3,13.87,247.35,30.6,391.53.27,2.29,0,4.6-.78,6.77l-3.82,10.7c13.12,14.85,16.48,29.57,0,44,15.89,16.54,14.38,33.63,4,51l2.88,3.84c2.02,2.7,3.08,6,3,9.37l-2.65,107.81c-.14,5.89-3.95,11.1-9.55,12.94-36.73,12.06-125.78,12.61-170.33.43-6.11-1.67-10.3-7.27-10.25-13.61l.87-108.21c.03-3.59,1.35-7.05,3.71-9.76l3.33-3.81c-13.02-19.78-8.26-36.15,3-51-12.26-15.75-13.59-31.43,0-47l-3.37-8.08c-1.07-2.56-1.4-5.38-.97-8.12,24.33-153.19,43.92-297.23,37.33-390.8-12.2-27.2-17.68-53.71-11-63-9.18-6.96-17.13-14.14-17-26-6-8-5.29-19.18,0-29-10.53-12.1-13.19-25.44-10.55-39.6Z"/>
  <path class="cls-2" d="M561.5,93.5c-12.13-11.22-24.12-10.82-36-1v10l7,5v8l-8,3,.24,5.82h36.58l.18-5.82-8-2v-10l7-3,1-10Z"/>
  <path class="cls-3" d="M470.5,218.5c47.27,3.27,95.29,3.52,144,1"/>
  <path class="cls-3" d="M469.5,245.5c47.27,3.27,95.29,3.52,144,1"/>
  <path class="cls-3" d="M468.5,745.5c47.27,6.41,95.29,7.32,144,1"/>
  <path class="cls-3" d="M468.5,789.5c46.98,7.88,95.5,8.69,144,1"/>
  <path class="cls-3" d="M466.5,845.5c47.27,7.7,95.29,8.11,144,1"/>
  <path class="cls-3" d="M490.5,269.5c36.6,3.27,73.78,3.52,111.5,1"/>
</svg>