<?xml version="1.0" encoding="UTF-8"?>
<svg id="Calque_1" data-name="Calque 1" xmlns="http://www.w3.org/2000/svg" viewBox="0 0 1080 1080">
  <defs>
    <style>
      .cls-1 {
        fill: #e4fbff;
      }

      .cls-1, .cls-2, .cls-3, .cls-4, .cls-5, .cls-6 {
        stroke-miterlimit: 10;
      }

      .cls-1, .cls-2, .cls-3, .cls-4, .cls-5, .cls-6, .cls-7, .cls-8 {
        fill-rule: evenodd;
        stroke: #000;
        stroke-width: 3px;
      }

      .cls-2 {
        fill: #bcc8cc;
      }

      .cls-3 {
        fill: #efefef;
      }

      .cls-4 {
        fill: #849da3;
      }

      .cls-5 {
        fill: #dbf1f5;
      }

      .cls-6, .cls-7, .cls-8 {
        fill: #668085;
      }

      .cls-7 {
        stroke-linejoin: round;
      }

      .cls-8 {
        stroke-linejoin: bevel;
      }
    </style>
  </defs>
  <g>
    <path class="cls-5" d="M561.33,922.95c-92.07.26-138.98-9.35-165.61-15.93-32.83-8.11-45.4-21.07-45.97-58.67-.21-20.42,34.59-456.73,44.76-471.3,10.17-14.57,34.1-34.29,34.1-34.29l4.82-46.13,251.29-1.03,5.7,46.1s23.57,18.97,34.29,34.1c3.32,4.93,9.65,55.38,16.63,121.61,14.24,134.98,31.25,335.47,31.29,349.59-.05,37.45-12.39,50.17-45.33,58.47-27.37,7.04-73.92,17.23-165.98,17.5h0Z"/>
    <path class="cls-1" d="M699.24,284.72l-280.23,1.11c-5.38,13.79,4.09,23.35,7.65,24.89,18.75,9.23,80.35,15.24,132.34,14.94,52.61-.15,114.02-6.67,132.72-15.85,3.71-1.71,13.28-11.18,7.51-25.09Z"/>
    <path class="cls-4" d="M559.43,310.65c-117.75.49-147.2-15.98-147.22-23.87-.02-7.89,7.86-10.54,7.86-10.54,0,0-2.05-12.99,1.8-20.59,2.46-4.65,5.09-4.66,6.79-6.21,2.32-1.4,1.22-4.96.91-6.35-1.4-2.32-3.42-4.79-3.27-8.04,1.07-4.34,5.4-5.9,3.37-13.63-1.41-7.58-5.66-32.94-.43-40.85,5.09-7.29,52.52-31.72,129.42-31.78s124.17,24.09,129.61,31.35c2.8,4.63,1.44,15.47,1.62,25.37.03,10.52-3.82,15.48-5.98,18.9-.31,1.24-1.07,4.34.48,6.03,1.87,3.09,4.35,6.33,4.52,10.97.63,5.41-1.99,8.05-2.91,11.77-.46,1.86-.92,3.72,1.1,6.19,3.42,4.79,10.55,10.49,10.57,15.75,0,0,7.9,2.61,7.92,10.5.02,7.89-29.64,24.22-147.39,24.72h0l1.24.31Z"/>
    <path class="cls-6" d="M428.65,249.44c1.54-.93,1.22-4.96.91-6.35,40.7.19,194.51.06,254.64-19.92-.46,1.86-.6,5.11.18,7.27-17.63,4.85-66.03,14.58-130.7,18.32-64.52,3.12-101.04,1.99-125.18,1.29h0l.15-.62Z"/>
    <path class="cls-7" d="M584.87,170.39c15.78-.05,17.66,8.31-.13,8.51-17.17.36-15.65-8.47.13-8.51ZM533.04,172.7c-15.16.2-17.31,8.87-.13,8.51,17.17-.36,15.29-8.71.13-8.51ZM498.81,162.28c-13.92,3.13-11.42,9.01.95,6.81,12.22-1.58,15.29-8.71-.95-6.81ZM618.58,161.63c14.25,3.52,11.63,8.79-.44,7.12-12.07-1.67-15.5-9.09.44-7.12ZM558.53,159.94c5.88.14,10.22,1.21,10.53,2.6-.31,1.24-4.63,2.8-10.51,2.66s-10.22-1.21-10.53-2.6c.31-1.24,4.63-2.8,10.51-2.66ZM528.34,154.46c5.88.14,10.22,1.21,10.53,2.6-.31,1.24-4.63,2.8-10.51,2.66s-10.22-1.21-10.53-2.6c.31-1.24,4.63-2.8,10.51-2.66ZM589,156.3c5.88.14,10.22,1.21,10.53,2.6-.31,1.24-4.63,2.8-10.51,2.66-5.88-.14-10.22-1.21-10.53-2.6.31-1.24,4.63-2.8,10.51-2.66h0Z"/>
    <path class="cls-2" d="M413.73,280.59c1.85-2.17,3.55-3.72,4.94-4.04,17.36,9.54,73.55,16.19,140.55,16.31,66.38-.04,122.84-7.78,140.3-17.27,1.24.31,3.41,2.16,4.96,3.85-30.75,15.41-88.3,19.59-145.55,19.91-57.25.32-107.39-1.55-145.2-18.77h0Z"/>
    <path class="cls-8" d="M429.68,229.32c1.54-.93,1.22-4.96.91-6.35,41.32.35,198.37.36,259.13-19.46-.46,1.86-.6,5.11.18,7.27-18.25,4.69-67.42,14.89-132.71,18.48-65.91,3.44-103.05,2.15-127.66.67h0l.15-.62Z"/>
  </g>
  <path class="cls-3" d="M382.5,462.5l25,9,23.39,6c10.01,2.57,20.62,1.12,29.58-4.04l8.83-5.09c6.76-3.89,12.91-8.78,18.23-14.49l20.15-21.62c8.38-8.99,19.14-15.42,31.02-18.54l9.98-2.62c21.27-5.58,43.79-3.9,64,4.76l66.82,28.64,59.36,30.41,33.64,357.59c1.73,22.26,3,55-26,67-108.45,44.88-235.01,41.29-359,5-41-12-40.65-44.02-39-68l34-374Z"/>
</svg>