<?xml version="1.0" encoding="UTF-8"?>
<svg id="Calque_1" data-name="Calque 1" xmlns="http://www.w3.org/2000/svg" viewBox="0 0 1080 1080">
  <defs>
    <style>
      .cls-1 {
        stroke-width: 4px;
      }

      .cls-1, .cls-2, .cls-3 {
        stroke: #000;
        stroke-miterlimit: 10;
      }

      .cls-1, .cls-3 {
        fill: none;
      }

      .cls-4 {
        fill: #fff8f3;
      }

      .cls-4, .cls-5 {
        stroke-width: 0px;
      }

      .cls-2, .cls-5 {
        fill: #168726;
      }

      .cls-2, .cls-3 {
        stroke-width: 3px;
      }

      .cls-6 {
        fill: #fff;
        font-family: Fredoka-Bold, Fredoka;
        font-size: 44px;
        font-variation-settings: 'wght' 700, 'wdth' 100;
        font-weight: 700;
      }
    </style>
  </defs>
  <path class="cls-4" d="M387.5,420.5l17.8,256.36c1.24,17.82,16.05,31.64,33.92,31.64h197.32c17.55,0,32.21-13.35,33.85-30.83l24.11-257.17,58.65-1.98c6.57-.22,8.05-9.33,1.89-11.62l-111.48-41.52c-3.35-1.25-6.9-1.89-10.47-1.89h-196.7c-3.9,0-7.75.76-11.36,2.23l-100.61,41.16c-5.99,2.45-4.39,11.33,2.07,11.55l61,2.06Z"/>
  <path class="cls-5" d="M387,421h308l58-2c6.57-.22,8.21-10.3,2.05-12.6l-111.48-41.52c-3.35-1.25-6.9-1.89-10.47-1.89h-196.7c-3.9,0-7.75.76-11.36,2.23l-100.61,41.16c-5.99,2.45-4.89,12.39,1.57,12.61l61,2Z"/>
  <path class="cls-3" d="M386.5,420.5l17.8,256.36c1.24,17.82,16.05,31.64,33.92,31.64h197.32c17.55,0,32.21-13.35,33.85-30.83l24.11-257.17,58.65-1.98c6.57-.22,8.05-9.33,1.89-11.62l-111.48-41.52c-3.35-1.25-6.9-1.89-10.47-1.89h-196.7c-3.9,0-7.75.76-11.36,2.23l-100.61,41.16c-5.99,2.45-4.39,11.33,2.07,11.55l61,2.06Z"/>
  <line class="cls-1" x1="386.5" y1="420.5" x2="693.5" y2="420.5"/>
  <polygon class="cls-2" points="672 649 402 647 392 494 686 494 672 649"/>
  <text class="cls-6" transform="translate(454 556.75)"><tspan x="0" y="0">YAOURT</tspan><tspan x="0" y="52.8">NATURE</tspan></text>
</svg>