<?xml version="1.0" encoding="UTF-8"?>
<svg id="Calque_1" data-name="Calque 1" xmlns="http://www.w3.org/2000/svg" viewBox="0 0 1080 1080">
  <defs>
    <style>
      .cls-1 {
        fill: #fdebc7;
      }

      .cls-1, .cls-2 {
        stroke: #000;
        stroke-width: 3px;
      }

      .cls-2 {
        fill: #a36707;
        stroke-linecap: round;
        stroke-linejoin: round;
      }
    </style>
  </defs>
  <path class="cls-2" d="M116.13,695.36v-45.2h916.87v45.2H116.13Z"/>
  <path class="cls-1" d="M201.76,407.98c2.03-2.52,6.3-5.46,13.44-8.51,6.99-2.99,16.13-5.84,27.22-8.51,22.17-5.34,51.56-9.84,85.87-13.47,68.58-7.25,156.22-10.94,243.78-11,87.56-.06,174.86,3.5,242.76,10.72,33.97,3.61,62.93,8.12,84.58,13.5,10.83,2.69,19.67,5.56,26.34,8.57,6.83,3.08,10.68,6,12.37,8.41,9.37,13.35,14.44,34.99,16.35,60.93,1.9,25.72.64,54.76-1.92,82.15-2.55,27.37-6.39,52.94-9.59,71.68-1.6,9.36-3.03,17.01-4.07,22.31-.29,1.46-.54,2.73-.76,3.82H201.85c-.26-1.12-.55-2.46-.89-3.99-1.17-5.32-2.8-13-4.6-22.4-3.61-18.81-7.95-44.46-10.83-71.86-2.89-27.44-4.31-56.46-2.17-82.08,2.16-25.83,7.87-47.22,18.4-60.26Z"/>
</svg>