<?xml version="1.0" encoding="UTF-8"?>
<svg id="Calque_1" data-name="Calque 1" xmlns="http://www.w3.org/2000/svg" viewBox="0 0 1080 1080">
  <defs>
    <style>
      .cls-1 {
        fill: #f9b03a;
        stroke: #000;
        stroke-miterlimit: 10;
        stroke-width: 3px;
      }

      .cls-2 {
        fill: #fbc35f;
        stroke-width: 0px;
      }
    </style>
  </defs>
  <path class="cls-1" d="M804.49,802.05c9.91-3.5,17.01-12.95,17.01-24.05,0-12.19-8.57-22.39-20.01-24.9,11.94-2.12,21.01-12.55,21.01-25.1,0-10.77-6.68-19.99-16.13-23.71,8.91-3.96,15.13-12.9,15.13-23.29,0-11.63-7.79-21.45-18.44-24.5,10.65-3.05,18.44-12.87,18.44-24.5s-7.79-21.45-18.44-24.5c10.65-3.05,18.44-12.87,18.44-24.5s-7.29-20.8-17.41-24.18c9.59-3.65,16.41-12.94,16.41-23.82,0-12.19-8.57-22.39-20.01-24.9,11.94-2.12,21.01-12.55,21.01-25.1,0-11.63-7.79-21.45-18.44-24.5,10.65-3.05,18.44-12.87,18.44-24.5,0-10.57-6.44-19.64-15.6-23.5,9.16-3.86,15.6-12.93,15.6-23.5,0-12.19-8.57-22.39-20.01-24.9,11.94-2.12,21.01-12.55,21.01-25.1,0-11.25-7.29-20.8-17.41-24.18,9.59-3.65,16.41-12.94,16.41-23.82s-7.04-20.47-16.88-24c9.84-3.53,16.88-12.94,16.88-24,0-11.84-8.08-21.81-19.03-24.67,11.95-4.13,20.53-15.48,20.53-28.83,0-16.84-13.66-30.5-30.5-30.5-12.3,0-22.91,7.29-27.73,17.79-3.68-9.53-12.94-16.29-23.77-16.29s-20.17,6.82-23.82,16.41c-3.38-10.12-12.93-17.41-24.18-17.41s-19.99,6.68-23.71,16.13c-3.96-8.91-12.9-15.13-23.29-15.13s-18.89,5.92-23,14.48c-4.11-8.56-12.86-14.48-23-14.48-11.06,0-20.47,7.04-24,16.88-3.53-9.84-12.94-16.88-24-16.88s-20.17,6.82-23.82,16.41c-3.38-10.12-12.93-17.41-24.18-17.41-9.95,0-18.58,5.71-22.77,14.02-4.36-7.77-12.68-13.02-22.23-13.02-10.57,0-19.64,6.44-23.5,15.6-3.86-9.16-12.93-15.6-23.5-15.6-11.51,0-21.25,7.64-24.41,18.12-4.63-10.94-15.46-18.62-28.09-18.62-16.84,0-30.5,13.66-30.5,30.5,0,11.68,6.57,21.84,16.23,26.95-9.23,3.82-15.73,12.93-15.73,23.55,0,11.63,7.79,21.45,18.44,24.5-10.65,3.05-18.44,12.87-18.44,24.5,0,12.36,8.8,22.67,20.47,25-11.67,2.33-20.47,12.64-20.47,25,0,10.88,6.82,20.17,16.41,23.82-10.12,3.38-17.41,12.93-17.41,24.18s7.29,20.8,17.41,24.18c-9.59,3.65-16.41,12.94-16.41,23.82s6.82,20.17,16.41,23.82c-10.12,3.38-17.41,12.93-17.41,24.18,0,12.55,9.07,22.98,21.01,25.1-11.44,2.51-20.01,12.71-20.01,24.9s8.8,22.67,20.47,25c-11.67,2.33-20.47,12.64-20.47,25,0,11.06,7.04,20.47,16.88,24-9.84,3.53-16.88,12.94-16.88,24s7.55,21.14,17.94,24.36c-10.9,2.89-18.94,12.83-18.94,24.64s8.36,22.15,19.6,24.81c-10.98,2.84-19.1,12.82-19.1,24.69,0,11.06,7.04,20.47,16.88,24-9.84,3.53-16.88,12.94-16.88,24,0,11.88,8.13,21.87,19.13,24.7-11.21,4.5-19.13,15.48-19.13,28.3,0,16.84,13.66,30.5,30.5,30.5,12.3,0,22.91-7.29,27.73-17.79,3.68,9.53,12.94,16.29,23.77,16.29,11.45,0,21.14-7.55,24.36-17.94,2.89,10.9,12.83,18.94,24.64,18.94,9.95,0,18.58-5.71,22.77-14.02,4.36,7.77,12.68,13.02,22.23,13.02,10.88,0,20.17-6.82,23.82-16.41,3.38,10.12,12.93,17.41,24.18,17.41,10.34,0,19.25-6.16,23.24-15.01,4.19,8.31,12.81,14.01,22.76,14.01,11.63,0,21.45-7.79,24.5-18.44,3.05,10.65,12.87,18.44,24.5,18.44,9.95,0,18.57-5.7,22.76-14.01,3.99,8.85,12.9,15.01,23.24,15.01s19.33-6.22,23.29-15.13c3.72,9.45,12.94,16.13,23.71,16.13,11.96,0,21.99-8.23,24.75-19.34,4.81,10.52,15.43,17.84,27.75,17.84,16.84,0,30.5-13.66,30.5-30.5,0-12.96-8.1-24.04-19.51-28.45ZM786.1,412.5c-9.16,3.86-15.6,12.93-15.6,23.5,0,11.63,7.79,21.45,18.44,24.5-10.65,3.05-18.44,12.87-18.44,24.5s8.57,22.39,20.01,24.9c-11.94,2.12-21.01,12.55-21.01,25.1,0,11.25,7.29,20.8,17.41,24.18-9.59,3.65-16.41,12.94-16.41,23.82,0,11.63,7.79,21.45,18.44,24.5-10.65,3.05-18.44,12.87-18.44,24.5s7.79,21.45,18.44,24.5c-10.65,3.05-18.44,12.87-18.44,24.5,0,10.77,6.68,19.99,16.13,23.71-8.91,3.96-15.13,12.9-15.13,23.29,0,12.19,8.57,22.39,20.01,24.9-11.94,2.12-21.01,12.55-21.01,25.1,0,10.25,6.05,19.09,14.77,23.13-11.12,3.1-19.68,12.36-21.77,23.87-4.29-8.03-12.76-13.5-22.5-13.5-10.39,0-19.33,6.22-23.29,15.13-3.72-9.45-12.94-16.13-23.71-16.13-9.95,0-18.57,5.7-22.76,14.01-3.99-8.85-12.9-15.01-23.24-15.01-11.63,0-21.45,7.79-24.5,18.44-3.05-10.65-12.87-18.44-24.5-18.44-10.34,0-19.25,6.16-23.24,15.01-4.19-8.31-12.81-14.01-22.76-14.01-10.88,0-20.17,6.82-23.82,16.41-3.38-10.12-12.93-17.41-24.18-17.41-9.95,0-18.58,5.71-22.77,14.02-4.36-7.77-12.68-13.02-22.23-13.02-11.45,0-21.14,7.55-24.36,17.94-2.89-10.9-12.83-18.94-24.64-18.94-9.6,0-17.96,5.31-22.31,13.14-3.24-10.69-12.2-18.9-23.32-21.07,8.64-4.08,14.63-12.88,14.63-23.07,0-11.06-7.04-20.47-16.88-24,9.84-3.53,16.88-12.94,16.88-24,0-12.05-8.36-22.15-19.6-24.81,10.98-2.84,19.1-12.82,19.1-24.69s-7.55-21.14-17.94-24.36c10.9-2.89,18.94-12.83,18.94-24.64,0-11.06-7.04-20.47-16.88-24,9.84-3.53,16.88-12.94,16.88-24,0-12.36-8.8-22.67-20.47-25,11.67-2.33,20.47-12.64,20.47-25s-9.07-22.98-21.01-25.1c11.44-2.51,20.01-12.71,20.01-24.9,0-10.88-6.82-20.17-16.41-23.82,10.12-3.38,17.41-12.93,17.41-24.18s-7.29-20.8-17.41-24.18c9.59-3.65,16.41-12.94,16.41-23.82s-6.82-20.17-16.41-23.82c10.12-3.38,17.41-12.93,17.41-24.18,0-12.36-8.8-22.67-20.47-25,11.67-2.33,20.47-12.64,20.47-25,0-11.63-7.79-21.45-18.44-24.5,10.65-3.05,18.44-12.87,18.44-24.5,0-9-4.66-16.91-11.71-21.44,10.14-3.24,17.98-11.65,20.42-22.13,4.18,8.34,12.82,14.07,22.79,14.07,10.57,0,19.64-6.44,23.5-15.6,3.86,9.16,12.93,15.6,23.5,15.6,9.95,0,18.58-5.71,22.77-14.02,4.36,7.77,12.68,13.02,22.23,13.02,10.88,0,20.17-6.82,23.82-16.41,3.38,10.12,12.93,17.41,24.18,17.41s20.47-7.04,24-16.88c3.53,9.84,12.94,16.88,24,16.88,10.14,0,18.89-5.92,23-14.48,4.11,8.56,12.86,14.48,23,14.48,10.77,0,19.99-6.68,23.71-16.13,3.96,8.91,12.9,15.13,23.29,15.13s20.17-6.82,23.82-16.41c3.38,10.12,12.93,17.41,24.18,17.41,9.6,0,17.96-5.31,22.31-13.14,3.22,10.61,12.07,18.79,23.08,21.02-9.32,3.79-15.89,12.94-15.89,23.62s7.04,20.47,16.88,24c-9.84,3.53-16.88,12.94-16.88,24s7.29,20.8,17.41,24.18c-9.59,3.65-16.41,12.94-16.41,23.82,0,12.19,8.57,22.39,20.01,24.9-11.94,2.12-21.01,12.55-21.01,25.1,0,10.57,6.44,19.64,15.6,23.5Z"/>
  <rect class="cls-2" x="351" y="179" width="451" height="661" rx="33.8" ry="33.8"/>
</svg>