<?xml version="1.0" encoding="UTF-8"?>
<svg id="Calque_1" data-name="Calque 1" xmlns="http://www.w3.org/2000/svg" viewBox="0 0 1080 1080">
  <defs>
    <style>
      .cls-1 {
        fill: #000;
      }

      .cls-1, .cls-2, .cls-3, .cls-4, .cls-5, .cls-6 {
        stroke: #000;
        stroke-miterlimit: 10;
        stroke-width: 3px;
      }

      .cls-2 {
        fill: #da772f;
        isolation: isolate;
      }

      .cls-3 {
        fill: #a67c52;
      }

      .cls-4 {
        fill: #fff2d3;
      }

      .cls-5 {
        fill: #fff;
      }

      .cls-6 {
        fill: none;
      }
    </style>
  </defs>
  <g>
    <path class="cls-4" d="M806.24,85.03l-515.97,4.33-25.99,56.37v789.1c0,78.06,56.37,78.06,56.37,78.06h481.29c27.26,0,40.34-21.23,46.57-39.45,3.85-11.26,5.47-23.09,5.42-35.01-.49-87.18-4.28-752.2-4.28-792.73l-43.4-60.68Z"/>
    <path class="cls-2" d="M264.5,321.5l34.45,28.01s442.24,17.36,515.97-4.33c0,0,21.69,4.33,34.68-13v437.91s-26.02,17.35-65.03,21.69c-39.02,4.33-385.87,21.69-481.29-4.33,0,0-34.68-13-39.01-21.69-4.33-8.69.23-443.26.23-443.26v-1Z"/>
    <path class="cls-5" d="M264.28,332.16l18.37,13.12c7.85,5.61,17.13,8.89,26.77,9.45,72.03,4.19,387.07,21,494.98,1.31,6.04-1.1,12.11-2.04,18.22-2.65,9.3-.93,24.08-3.78,27-12.55,4.33-13,0-56.37,0-56.37,0,0-21.69,13-39.02,13s-468.26,26.02-520.3-4.33l-26.02-17.35v56.37Z"/>
    <path class="cls-5" d="M264.28,812.38h0c19.94,14.25,43.53,22.53,68,23.86,100.34,5.46,373.21,18.07,472.12.03,6.04-1.1,12.1-2.04,18.21-2.64,9.3-.93,24.08-3.78,27-12.55,4.33-13,0-56.37,0-56.37,0,0-21.69,13-39.02,13s-468.26,26.02-520.3-4.33l-26.02-17.35v56.37Z"/>
    <path class="cls-6" d="M264.28,145.72l26.1,7.39,514.18-1.03,45.05-6.36"/>
    <path class="cls-5" d="M569.92,919.68c50.29,0,91.05-40.77,91.05-91.05s-40.77-91.05-91.05-91.05-91.05,40.77-91.05,91.05,40.77,91.05,91.05,91.05Z"/>
    <path class="cls-3" d="M584.79,806.02s-7.42-.57-14.84.79c-9.83,1.79-14.35,5.47-23.15,10.26l-12.64,2.73c-1.41.14-11.72,1.92-15.24,2.68-11.48,2.46-24.83,8.36-23.31,22.47.89,8.18,5.61,13.94,13.65,16.68,6.44,2.19,15.08,2.38,23.64.54,2.33-.52,6.42-1.68,8.45-2.44l70.59-15.27.22-.08c.32-.05,2.41-.51,2.82-.59,5.82-1.25,20.17-4.96,28.16-12.29,4.96-4.55,6.63-9.77,4.96-15.54-3.28-11.35-13.54-15.49-29.7-11.99-4.52.97-18.28,3.55-20.55,4.33l-13.05-2.25.03-.03Z"/>
    <path class="cls-1" d="M547.26,817.61c.59-.14,1.25.57,1.65.92.6.49,1.14,1,1.71,1.52,1.08,1.03,2.12,2.14,3.06,3.28.43.54,1.22-.25.76-.76-1.06-1.28-2.22-2.5-3.44-3.63-.59-.57-1.22-1.11-1.87-1.63-.65-.52-1.33-.95-2.17-.73-.68.16-.38,1.19.3,1.06v-.03Z"/>
    <path class="cls-1" d="M597.72,809.1c2.17,1.55,3.93,3.61,5.15,5.96.32.63,1.25.08.95-.54-1.3-2.52-3.23-4.72-5.53-6.37-.24-.16-.6-.05-.73.19-.16.27-.05.57.19.73l-.03.03Z"/>
    <path class="cls-1" d="M570.88,807.81c1.9,2.3,3.5,4.85,4.8,7.54.3.62,1.25.08.95-.54-1.33-2.79-3.01-5.37-4.99-7.75-.43-.54-1.22.24-.76.76Z"/>
  </g>
  <path class="cls-5" d="M416.42,528.6c-6.53,0-10.5,4.1-10.5,11.4v5.51h21.39c4.35,0,6.92,2.43,6.92,6.53s-2.56,6.41-6.92,6.41h-21.39v41.63c0,4.74-2.56,7.56-7.04,7.56s-7.04-2.82-7.04-7.56v-59.7c0-15.5,8.84-24.72,23.83-24.72,9.87,0,17.17,3.72,21.01,10.38.64,1.28,1.03,2.56,1.03,3.97,0,3.97-2.56,6.53-6.41,6.53-2.31,0-4.23-1.03-5.38-2.69-2.31-3.46-5.12-5.25-9.48-5.25ZM494.59,544.74c4.48,0,7.17,2.95,7.17,7.56v47.78c0,4.74-2.69,7.56-7.17,7.56-4.23,0-6.92-2.82-6.92-7.56v-.64h-.26c-4.74,5.76-12.04,8.97-21.26,8.97-18.06,0-29.98-12.81-29.98-32.15s11.91-32.28,29.98-32.28c9.22,0,16.52,3.2,21.26,8.97h.26v-.64c0-4.61,2.69-7.56,6.92-7.56ZM468.97,595.47c11.02,0,18.7-7.94,18.7-19.21s-7.68-19.34-18.7-19.34-18.45,7.81-18.45,19.34,7.56,19.21,18.45,19.21ZM549.98,544.36c4.23,0,7.04,2.69,7.04,7.05s-2.82,7.04-7.04,7.04c-12.3,0-19.47,6.53-19.47,21.52v20.11c0,4.74-2.56,7.56-7.04,7.56s-7.05-2.82-7.05-7.56v-47.78c0-4.61,2.69-7.56,7.05-7.56s7.04,2.95,7.04,7.56v2.31h.26c3.84-6.66,10.38-10.25,19.21-10.25ZM572.5,535.14c-5,0-8.33-3.33-8.33-8.46s3.33-8.45,8.33-8.45,8.45,3.33,8.45,8.45-3.33,8.46-8.45,8.46ZM572.5,544.74c4.48,0,7.04,2.95,7.04,7.56v47.78c0,4.74-2.56,7.56-7.04,7.56s-7.04-2.82-7.04-7.56v-47.78c0-4.61,2.69-7.56,7.04-7.56ZM628.82,543.97c16.91,0,26.01,9.99,26.01,28.57v27.54c0,4.74-2.56,7.56-7.05,7.56s-7.04-2.82-7.04-7.56v-26.01c0-11.14-5.38-17.16-15.5-17.16s-16.91,7.3-16.91,19.09v24.08c0,4.74-2.56,7.56-7.04,7.56s-7.04-2.82-7.04-7.56v-47.78c0-4.74,2.69-7.56,7.04-7.56s7.04,2.82,7.04,7.56v.39h.26c4.35-5.51,11.27-8.71,20.24-8.71ZM698.65,556.53c-8.97,0-16.14,5.25-18.06,13.45h35.74c-1.92-8.2-8.71-13.45-17.68-13.45ZM724.53,597.78c-5.64,6.79-14.48,10.63-25.24,10.63-20.24,0-33.56-13.07-33.56-32.15s13.32-32.28,32.92-32.28c17.81,0,31.39,12.81,31.39,28.44v.64c0,4.99-3.33,8.2-8.33,8.2h-41.12c1.66,8.97,8.84,14.6,18.7,14.6,6.66,0,11.79-2.69,14.86-6.28,1.54-1.79,3.2-2.56,5.25-2.56,4.1,0,6.66,2.56,6.66,6.53,0,1.54-.51,2.95-1.54,4.23Z"/>
</svg>