<?xml version="1.0" encoding="UTF-8"?>
<svg id="Calque_1" data-name="Calque 1" xmlns="http://www.w3.org/2000/svg" viewBox="0 0 1080 1080">
  <defs>
    <style>
      .cls-1 {
        fill: #ff3939;
      }

      .cls-1, .cls-2 {
        stroke: #000;
        stroke-width: 3px;
      }

      .cls-2 {
        fill: #8cc63f;
      }
    </style>
  </defs>
  <path class="cls-1" d="M897.82,495.88c-1.13,60.12-16.01,111.03-40.69,159.47-50.38,98.89-109.39,191.82-190.47,268.71-20.57,19.51-44.59,35.88-68.68,51.05-29.11,18.32-60.2,17.22-91.2,2.45-43.02-20.49-77.86-51.36-109.07-86.41-76.68-86.1-136.85-182.31-172.2-292.61-18.93-59.08-21.93-119.01,3.86-177.38,41.57-94.1,140.16-143.42,247.73-121.47,52.07,10.62,103.05,9.77,154.78.95,37.84-6.46,75.99-8.59,113.95-.72,82.59,17.13,138.35,78.44,148.87,163.4,1.56,12.61,2.44,25.31,3.13,32.56ZM576.56,382.43c-.11-14.92-10.44-28.45-21.84-28.63-11.55-.18-21.96,13.03-22.19,28.16-.24,16.13,10.16,29.64,22.51,29.22,11.71-.39,21.63-13.65,21.52-28.74ZM576.55,907.27c-.2-15.06-10.96-28.54-22.51-28.2-11.51.34-21.7,14.14-21.55,29.18.16,15.23,10.68,28.31,22.5,27.95,11.75-.35,21.76-13.78,21.56-28.93ZM493.83,470.59c.24-15.32-9.8-29.28-20.96-29.12-10.48.15-20,13.49-20.16,28.22-.17,15.59,9.76,29.46,20.84,29.14,10.67-.31,20.03-13.35,20.27-28.25ZM656.28,470.54c.11-15.61-9.84-29.45-20.9-29.07-10.54.36-20.05,13.68-20.18,28.26-.14,15.39,9.97,29.44,20.97,29.16,10.47-.27,20.02-13.72,20.12-28.36ZM458.62,658.09c.24,15.16,9.32,27.93,20.04,28.19,11.3.28,21.18-13.38,20.96-28.99-.21-14.88-9.52-27.84-20.22-28.14-11.39-.32-21.04,13.12-20.78,28.93ZM650.45,658c.16-16.04-9.32-29.19-20.75-28.81-10.85.36-19.83,13.06-19.95,28.18-.12,15.92,9.47,29.18,20.88,28.86,10.79-.3,19.67-12.95,19.82-28.23ZM574.66,564.3c.12-15.64-8.32-28.21-19.36-28.81-11.65-.63-21.13,12.34-21.04,28.78.09,15.44,9.16,28.03,20.2,28.03,11.06,0,20.08-12.51,20.2-28ZM574.64,745.27c0-16.45-9.27-29.17-20.86-28.61-10.96.53-19.36,12.87-19.39,28.49-.04,16.37,9.26,29.12,20.82,28.54,10.9-.54,19.43-13.02,19.43-28.42ZM718.92,372.09c-3.41-5.26-8.23-14.87-15.29-22.37-2.32-2.47-14-1.26-15.25,1.3-4.61,9.36-9.34,20.1-8.93,30.11.47,11.42,6.57,23.93,21.27,22.59,14.67-1.34,16.3-14.16,18.2-31.62ZM430.71,374.97c.21-15.13-7.66-27.07-18.12-27.52-11.71-.5-21.61,13.25-21.66,30.07-.04,15.17,8.13,26.76,18.8,26.66,10.95-.1,20.77-13.77,20.98-29.21ZM487.15,844.92c5.43-12.11,1.36-26.44-9.22-34.46-7.25-5.5-8.43-10.96-15.21-9-10.12,2.93-9,20.16-8.96,30.35.05,11.15,6.22,23.63,19.58,22.81,7.23-.44,11.28-4.05,13.81-9.7ZM760.66,443.17c-6.72,11.38-6.15,25.68.9,36.86,2.15,3.4,4.45,6.73,7.04,9.83,1.78,2.12,12.59.95,13.68-1.35,4.52-9.5,8.45-19.87,9.45-30.22.56-5.83-3.89-13.21-8.09-18.19-6.68-7.92-15.46-7.5-21.53.86-.52.71-1,1.46-1.46,2.23ZM780.62,656.41c.08-15.27-8.3-27.49-18.64-27.19-10.49.3-20.4,14.95-19.6,30.51.62,11.96,3.09,24.17,17.68,26.33,10.37,1.53,20.48-13.96,20.55-29.65ZM357.98,680.78c9.58-10.03,10.56-25.53,2.86-37.07-3.04-4.57-6.05-8.69-9.49-12.42-2-2.17-14.02.08-14.78,2.45-3.38,10.48-6.49,21.92-5.55,32.66.93,10.67,8.65,22.39,20.8,18.57,2.25-.71,4.26-2.2,6.17-4.2ZM618.15,827.21c-.34,14.82,8.08,27.9,18.02,27.98,10.05.08,19.66-13.43,20.34-28.61.66-14.69-7.35-27.95-17.23-28.54-10.87-.65-20.75,13-21.12,29.17ZM386.86,727.58c-4.32,9.58-3.12,20.76,2.67,29.53,3.43,5.19,6.98,10.26,11.1,14.82,1.85,2.05,12.99.18,13.74-2,3.59-10.4,7.25-21.64,6.71-32.38-.53-10.75-7.53-21.54-20.26-20.31-7.58.74-11.42,4.7-13.96,10.34ZM724.06,739.04c-.94-9.03-2.52-20.75-17.03-22.09-10.99-1.02-21.38,15.01-21.34,31.14.04,15.11,7.9,26.14,18.17,25.48,11.13-.71,20.37-15.36,20.2-34.53ZM354.15,463.46c.4-14.69-7.59-27.85-17.35-28.58-10.71-.81-20.59,13.15-20.78,29.33-.16,14.34,8.71,27.85,18.31,27.88,10.35.03,19.4-13.03,19.82-28.62ZM433.95,575.01c1.45-5.87,1.71-12,.69-17.96-.47-2.76-1.14-5.25-2.61-7.11-4.51-5.7-11.36-13.49-16.96-13.29-5.53.2-14.63,8.8-15.25,14.47-1.19,10.8.14,23.31,4.84,32.96,6.16,12.65,20.77,10.84,26.95-2.15,1.04-2.2,1.76-4.55,2.35-6.92ZM673.59,566.07c.32,2.29.54,6.31,1.58,9.42,3.33,10,7.33,15,14.71,15.53,15.65,1.12,14.62-4.53,18.35-13.47,1.21-2.9,2.44-6.85,2.86-10.46,1.92-16.64-5.69-30.77-16.72-31.49-10.98-.71-20.48,12.58-20.79,30.46ZM285.05,581.19c3.59,4.91,10.94,10.79,15.7,10.06,4.8-.73,11.86-9.02,11.9-14.06.11-11.56-1.19-24.25-6.13-34.43-5.45-11.22-17.07-9.14-23.24,2.06-4.78,8.68-2.03,31.17,1.77,36.37ZM829.5,554.5c0-6.42-9.72-17.19-14.62-17.82-4.76-.61-10.99,5.91-15.6,10.31-2.37,2.26-3.5,6.94-3.56,10.17-.22,11.33.32,22.67,7.69,32.3,3.09,4.03,9.09,5.03,15.09,2.03,9.43-4.71,11-28,11-37Z"/>
  <path class="cls-2" d="M238.11,238.4c50.55-19,98.19-18.99,146.21,4.26-29.45-28.67-36.24-65.13-42.38-104.31,63.59,3.96,121.87,12.92,149.71,84.31,12.93-55.78,45.7-90.71,86.61-96.82,11.34,32.42,22.64,64.74,33.9,96.94,16.3-23.77,34.53-49.98,65.91-63.16,30.9-12.97,62.4-6.77,95.27-8-.4,42.42-26.25,66.54-56.07,89.55,51.55-17.64,100.46-13.77,149.05,12.31-21.88,29.2-48.67,48.57-83.06,53.6-12.72,1.86-26.64-5.3-40.12-7.75-42.93-7.8-85.79-4.04-128.11,3.66-47.35,8.61-93.84,6.29-140.41-4.16-43.12-9.68-85.13-4.33-126.96,8.48-9.24,2.83-20.98,2.35-30.24-.67-35.01-11.42-57.21-38.52-79.33-68.24Z"/>
</svg>