<?xml version="1.0" encoding="UTF-8"?>
<svg xmlns="http://www.w3.org/2000/svg" viewBox="0 0 1080 1080">
  <defs>
    <style>
      .cls-1 {
        fill: #b44932;
      }

      .cls-1, .cls-2, .cls-3, .cls-4 {
        stroke: #000;
        stroke-width: 3px;
      }

      .cls-2 {
        fill: #e5d0bd;
      }

      .cls-3 {
        fill: #922f0f;
      }

      .cls-5 {
        fill: #fff;
        font-family: Fredoka-Bold, Fredoka;
        font-size: 72px;
        font-variation-settings: 'wght' 700, 'wdth' 100;
        font-weight: 700;
      }

      .cls-4 {
        fill: #632312;
      }
    </style>
  </defs>
  <g id="Calque_1" data-name="Calque 1">
    <path class="cls-3" d="M162.84,566.17c-10.62-19.76-19.61-40.23-25.28-62-3.02-11.6-5.41-23.36-5.9-35.41-.54-3.03-.13-6.09-.23-9.13-.02-.61-.29-1.51.66-1.65.94-.14,1.48.63,1.63,1.41.48,2.5,1.98,4.56,2.87,6.88,5.08,13.17,14.01,23.21,25.15,31.63,9.86,7.46,20.2,14.11,31.18,19.72,16.85,8.61,34.56,15.06,52.62,20.68,7.34,2.28,14.74,4.29,22.11,6.45,7.25,2.12,14.66,3.66,22.01,5.42,12.74,3.05,25.56,5.82,38.48,7.94,14.38,2.36,28.72,5.05,43.26,6.48,7.41.73,14.72,2.51,22.19,2.85,9.05.42,17.96,2.21,27.01,2.52,1.74.06,34.88,2.84,36.13,2.89,11.18.48,22.37.82,33.56,1.23,19.1.7,38.21,1.63,57.32,1.17,17.63-.43,35.29-.38,52.9-1.39,15.23-.87,30.51-1.16,45.67-3.12,2-.26,30.89-3.09,36.04-3.45,12.09-.84,24.01-3.08,36.03-4.48,9.22-1.07,18.29-2.97,27.44-4.42,11.95-1.89,23.86-4.18,35.58-7.07,11.27-2.78,22.67-5.02,33.8-8.52,11.52-3.63,23.22-6.67,34.53-10.94,7.3-2.75,14.53-5.71,21.6-9.01,1.55-.72,3.19-1.17,4.81-1.67,1.46-.46,3.55-1.57,5.05-2.5,4.24-2.62,8.89-4.45,13.1-7.15,9.71-6.23,19.51-12.31,27.88-20.39,8.08-7.81,14.38-16.73,18.17-27.43,2.36-6.64,2.86-13.41,2.74-20.33-.02-1.39-.04-2.8,1.8-3.13,4,18.17,2.06,35.99-2.09,53.97-5.43,23.52-15.07,45.25-26.71,66.12-11.86,21.24-25.81,41.12-41.38,59.88-12.23,14.73-25.05,28.88-38.76,42.23-13.44,13.09-27.78,25.17-42.34,36.99-.42.34-1.01.47-1.52.7-2.27,6.14-8.35,8.27-12.81,12.08-6.94,5.93-15.07,10.19-22.56,15.36-7.76,5.36-16.04,9.97-24.26,14.63-6.16,3.49-12.18,7.34-18.58,10.24-7.14,3.24-13.99,7.05-21.23,10.08-8.83,3.69-17.55,7.68-26.6,10.79-3.78,1.3-47.69,14.78-49.06,14.81-14.66,4.47-29.79,6.51-44.91,8.48-18.99,2.47-38.11,3.05-57.18,2.05-13.51-.71-27.02-2.03-40.45-4.16-6.46-1.02-12.83-2.63-19.35-3.33-1.79-.19-14.24-3.16-15.52-3.39-10.39-3.44-20.99-6.25-31.31-9.89-10.39-3.66-20.63-7.7-30.62-12.36-2.27-1.06-4.52-2.11-7.15-1.57-.8.17-1.73.01-2.16-.7-2.56-4.22-7.33-5.08-11.16-7.28-7.43-4.28-14.94-8.43-22.43-12.59-8.08-4.49-15.64-9.74-23.52-14.49-5.24-3.16-5.22-3.19-9.52,1.11-2.48,2.48-4.95,4.98-7.46,7.43-.65.63-1.27,1.32-2.12,1.68-.87.37-1.82.49-2.48-.37-.64-.84-.35-1.76.21-2.51,1.29-1.73,2.93-3.15,4.44-4.68,1.99-2.02,4.04-3.97,5.99-6.02,2.25-2.37,1.99-3.01-.78-4.88-8.98-6.09-17.52-12.74-25.39-20.23-.71-.67-.98-1.47-1.41-2.24-16.76-14-32.37-29.19-47.2-45.19-7.97-8.61-15.59-17.53-22.84-26.75-.84-2.02-29.26-40.75-39.65-60.08Z"/>
    <path class="cls-1" d="M878.47,379.62c9.31,2.49,18.19,6.43,26.21,11.78.06.04.12.08.17.12,7.56,5.05,15.2,9.9,21.93,16.26,9.59,9.06,15.36,19.78,17.96,32.48-.37,3.79-.02,7.59-.34,11.41-.69,8.28-3.38,15.71-7.38,22.95-8.22,14.89-21.12,24.79-34.89,33.83-6.4,4.2-12.94,8.23-19.92,11.41-2.88,1.31-6.33,2.66-9.75,4.26-9,4.23-18.22,7.97-27.6,11.27-9.56,3.36-19.35,5.99-29.04,8.93-10.04,3.04-20.32,5.02-30.44,7.67-9.58,2.51-19.32,4.25-29.01,6.15-6.72,1.32-13.52,2.51-20.35,3.45-5.77.79-11.53,1.96-17.34,2.76-11.86,1.62-23.66,3.65-35.61,4.52-4.5.33-8.98.9-13.48,1.35-.97.1-25.84,2.47-30.13,2.91-8.32.85-16.67,1.34-25,1.68-18.06.75-36.14,1.39-54.22,1.73-11.64.22-23.29.46-34.93.33-15.93-.17-31.88-.46-47.77-1.46-7.21-.46-61.39-3.86-65.75-4.42-15-1.93-30.07-3.26-45.07-5.28-16.65-2.24-33.22-4.93-49.71-7.99-6.51-1.21-13.03-2.73-19.54-4.07-8.81-1.81-17.54-4.02-26.25-6.16-8.29-2.04-16.57-4.3-24.71-7.04-8.88-2.99-17.85-5.72-26.57-9.13-7.31-2.86-14.71-5.53-21.69-9.23-4.38-2.33-8.94-4.32-13.25-6.81-7.8-4.51-15.39-9.33-22.66-14.68-5.38-3.96-10.24-8.46-14.88-13.24-6.87-7.08-10.55-16.04-14.73-24.71-.46-.95-.34-2.19-1.1-3.31,0,3.14,0,6.28,0,9.42-.7-1.15-.47-2.42-.48-3.65-.04-6,.01-11.99-.05-17.99-.13-12.92,4.46-24.26,11.77-34.61,8.5-12.05,19.47-21.45,31.48-29.93.07-.05.14-.1.21-.14,12.41-8.72,26.53-14.68,41.32-18.03,215.67-48.77,436.38-45.21,662.57,15.22Z"/>
    <path class="cls-3" d="M177.74,401.9c-4.04,2.88-7.28,6.78-9.25,11.34-7.8,18.08-4.1,36.49,10.54,52.26,9.43,10.15,20.66,17.88,32.74,24.44,29.97,16.27,62.3,26.08,95.12,34.47,28.52,7.29,57.39,12.95,86.43,17.64,30.84,4.98,61.81,8.89,92.97,11.4,29.5,2.38,59.03,3.45,88.6,2.87,33.41-.66,66.69-3.23,99.77-8.19,30.82-4.62,61.17-11.29,91.07-20.02,22.39-6.54,44.34-14.41,65.57-24.08,20.13-9.17,39.59-19.59,55.77-35.1,6.34-6.08,11.75-12.88,15.11-21.1,4.51-11,4.06-21.65-.74-31.96-1.2-2.58-2.86-4.95-4.92-6.92-76.75-73.04-617.76-79.18-718.79-7.06Z"/>
    <path class="cls-4" d="M502.07,796.05c14.59,1.48,29.19,1.56,43.76,1.05,14.98-.52,29.9-2.37,44.73-4.83,6.01-1,66.11-17.59,68.13-18.22,9.27-2.85,18.11-6.74,27.07-10.34,5.83-2.35,11.42-5.27,17.12-7.93,5.11-2.38,10.41-4.54,15.19-7.36,5.02-2.97,10.32-5.46,15.2-8.71,5.13-3.42,10.75-6.11,15.91-9.49,3.63-2.38,7.53-4.33,10.89-7.2,2.7-2.3,5.85-4.15,9-5.82,4.51-2.4,8.29-5.77,12.3-8.82,3.55-2.7,7.55-4.85,10.56-8.24-2.49,14.02-4.24,28.21-8.37,41.86-3.26,10.76-9.72,19.83-17.44,27.96-13.83,14.58-30.51,24.95-48.45,33.7-15.52,7.57-31.67,13.34-48.17,18.15-20.33,5.93-41.08,9.95-62.07,12.84-31.82,4.37-63.79,5.52-95.85,4.49-10.72-.35-21.43-1.33-32.14-2.13-16.38-1.22-32.53-3.72-48.67-6.49-7.34-1.26-14.56-3.27-21.85-4.85-2.04-.44-9.32-2.44-12.36-3.28-20.79-5.74-40.89-13.23-59.9-23.51-14.09-7.62-27.16-16.6-38.3-28.23-7.93-8.28-14.42-17.57-17.68-28.56-3.3-11.14-4.83-22.72-6.66-34.2-.51-3.23-.99-6.46-1.48-9.69,8,6.27,15.97,12.57,24.01,18.78,1.69,1.31,30,20.42,33.32,22.03,6.03,2.92,11.69,6.6,17.56,9.87,6.21,3.45,12.48,6.78,18.73,10.15.59.32,24.33,10.8,31.72,13.42,9.32,3.31,18.63,6.69,28.17,9.45,4.63,1.34,58.52,12.39,76.03,14.16Z"/>
    <text class="cls-5" transform="translate(332.41 668.42)"><tspan x="0" y="0">Mascarpone</tspan></text>
  </g>
  <g id="Calque_2" data-name="Calque 2">
    <g>
      <path class="cls-2" d="M201.32,367.87c3.88-13.72,13.06-23.56,23.79-32.2,7.96-6.41,16.65-11.7,25.71-16.4,1.11-.58,2.12-1.06,2.71-2.35,5.38-11.69,15.18-18.9,25.86-25.12,11.98-6.98,24.73-12.25,37.93-16.42,1.91-.6,3.13-1.68,4.21-3.52,4.42-7.51,11.54-11.99,19.04-15.84,19.41-9.97,40.3-15.4,61.53-19.75,14.08-2.89,28.29-5.03,42.55-6.87,1.89-.24,2.73-1.22,3.61-2.6,13.15-20.68,27.92-40.13,44.89-57.82,16.8-17.5,34.39-34.16,55.36-46.73,7.53-4.51,15.46-8.08,24.61-7.62,11.25.57,19.86,9.09,20.63,20.47.37,5.45.05,10.87-1.1,16.19-2.24,10.36.65,19.22,7.51,27.02,6.12,6.96,13.53,12.33,21.27,17.27,19.61,12.51,40.58,22.41,61.75,31.92,8.15,3.66,16.23,7.43,24.17,11.55,2.85,1.48,6.24,1.94,9.4,2.77,17.74,4.67,35.33,9.8,52.29,16.88,6.79,2.84,13.43,6.03,19.11,10.87,4.75,4.04,8.04,8.66,6.2,15.33-.51,1.85,1,1.69,1.92,2.09,10.73,4.59,21.47,9.15,31.04,15.97,6.01,4.28,11.68,8.93,14.92,15.89,1.08,2.33,1.79,4.7,1.67,7.19-.1,2.18.87,3.14,2.62,4.18,11.14,6.59,21.71,13.92,30.02,24.06,6.55,8,10.28,16.99,9.82,27.49,1.13,2.06.93,4.2.11,6.24-1.24,3.1-.3,5.41,2.05,7.55,5.07,4.62,9,10.14,12.54,15.98,3.54,5.85,5.49,12.27,5.93,18.97.52,7.94-1.46,15.51-5.42,22.48-8.54,15.02-21.56,25.47-35.82,34.52-23.97,15.21-50.12,25.68-76.83,34.93-16.18,5.61-32.61,10.35-49.19,14.51-18.89,4.74-37.96,8.78-57.24,11.62-15.4,2.27-30.79,4.91-46.33,5.99-12.3.85-24.58,1.91-36.91,2.43-17.88.75-35.75,1.64-53.63,1.1-13.79-.41-27.58-.84-41.36-1.76-13.09-.87-26.18-1.81-39.25-3.01-9.12-.84-18.2-2.22-27.3-3.28-21.82-2.54-43.51-5.98-65.12-9.9-20.17-3.66-40.28-7.63-60.18-12.59-33.24-8.29-66.06-17.86-96.71-33.58-13.87-7.11-26.91-15.45-37.56-27.07-9.51-10.38-15.73-22.2-15.32-36.63.37-13.15,6.11-24.18,14.49-34.01,5.31-6.23,11.37-11.66,17.86-16.6,2.33-1.77,3.59-3.93,3.69-6.9.07-1.91.33-3.9,2.43-4.87Z"/>
      <path class="cls-2" d="M223.5,390.5c184.98,96.15,398.62,106.24,650,3"/>
      <path class="cls-2" d="M270.5,326.5c174.22,65.45,360.69,73.11,563,6"/>
      <path class="cls-2" d="M335.5,280.5c147.16,47.97,296.65,53.82,449,8"/>
      <path class="cls-2" d="M459.5,233.5c60.08,32.04,137.22,34.04,228,12"/>
    </g>
  </g>
</svg>