<?xml version="1.0" encoding="UTF-8"?>
<svg id="Calque_1" data-name="Calque 1" xmlns="http://www.w3.org/2000/svg" viewBox="0 0 1080 1080">
  <defs>
    <style>
      .cls-1 {
        fill: #666;
      }

      .cls-1, .cls-2 {
        stroke: #000;
        stroke-miterlimit: 10;
        stroke-width: 3px;
      }

      .cls-2 {
        fill: #7c7c7c;
      }
    </style>
  </defs>
  <path class="cls-2" d="M211.54,846.53c-29.56,1.15-49.73-24.43-40.18-50.89,5.29-14.65,2.29-20.57-13.46-23.23-33.63-5.67-45.33-29.71-30.15-60.63,6.32-12.89,2.68-19.5-9.87-25.06-30.87-13.66-37.21-37.94-17.3-64.32,8.79-11.64,8.46-19.02-5.68-27.06-24.94-14.18-27.16-46.66-4.64-64.3,13.31-10.42,14.89-17.99,2.45-30.52-21.03-21.18-14.81-51.21,12.64-63.94,11.97-5.55,14.51-11.7,7.92-23.5-19.11-34.23-10.11-57.18,26.73-66.8,12.95-3.38,11.86-9.94,9.14-19.39-10.69-37.15-.3-53.75,38.79-60.05,13.54-2.18,16.24-7.77,13.66-20.63-5.74-28.7,17.03-52.4,45.78-47.54,15.43,2.61,21.35-.18,22.3-17.58,1.66-30.24,28.37-46.59,56.12-35.72,13.96,5.47,20.65,3.25,25.04-11.91,9.26-31.97,34.99-40.42,64.2-21.92,9.45,5.99,15.39,4.84,21.33-5.05,19.97-33.28,40.85-36.54,71.76-11.12,8.89,7.31,14.83,6.02,22.15-1.95,25.46-27.71,48.06-26.3,70.14,4.37,6.48,9.01,12.63,10.01,22.06,4.3,36.05-21.82,50.48-17.27,69.16,19.07,2.25,4.38,12.19,8.87,16.67,7.42,41.52-13.41,57.17-6.02,67.35,34.1,2.78,10.96,8.33,13.75,19.26,10.48,32.88-9.85,56.41,7.55,55.45,41.4-.39,13.73,2.26,19.7,17.89,18.1,30.08-3.08,50.21,20.44,42.5,49.93-4.28,16.37-1.42,23.46,16.32,25.8,27.44,3.61,41.37,29.97,28.32,54-9.57,17.62-4.02,25.13,12.82,31.6,24.04,9.25,31.92,38.18,15.5,58.2-11.86,14.46-11.95,23.09,5.16,33.28,20.14,11.99,22.12,44.21,4,59.25-14.53,12.07-17.72,21.2-2.5,35.76,16.82,16.09,12.61,45.64-8.27,57.31-16.56,9.26-19.77,17.59-10.57,34.84,14.1,26.45,1.64,51.11-27.96,58.08-14.4,3.39-14.3,11.45-11.09,22.56,10.28,35.62-2.44,55.01-38.33,57.19-13.39.81-15.2,7.67-14.29,18.75,2.99,36.62-13,52.62-49.3,48.99-11.82-1.18-16.62,1.6-17.78,14.66-3.15,35.53-25.13,49.84-58.61,38.71-13.07-4.34-18.34-.36-21.79,12.07-8.39,30.3-33.7,41.34-60.51,25.8-12.78-7.41-19.7-6.32-27.4,6.94-16.32,28.11-41.85,31.72-67.4,10.21-9.93-8.36-16.64-8.03-25.32,1.9-21.65,24.76-48.48,23.68-67.3-2.84-8.54-12.04-15.8-13.86-27.97-4.75-26.42,19.76-51.6,12.05-63.57-18.7-4.05-10.39-8.91-15.45-21.2-10.79-39.32,14.89-55.23,6.14-63.26-34.07-2.55-12.77-10.74-11.86-19.94-9.34-17.11,4.69-33.11,1.6-44.43-11.67-6.36-7.46-11.95-19.04-11.3-28.3,1.31-18.63-3.76-25.92-21.25-21.5Z"/>
  <circle class="cls-1" cx="540" cy="540" r="376"/>
</svg>