<?xml version="1.0" encoding="UTF-8"?>
<svg id="Calque_1" data-name="Calque 1" xmlns="http://www.w3.org/2000/svg" viewBox="0 0 1080 1080">
  <defs>
    <style>
      .cls-1 {
        fill: #fbb03b;
      }

      .cls-1, .cls-2, .cls-3 {
        stroke-width: 0px;
      }

      .cls-2 {
        fill: #000;
      }

      .cls-3 {
        fill: #f7931e;
      }
    </style>
  </defs>
  <path class="cls-2" d="M317.6,809.32c-4.55,3.27-10.37,5.76-16.19,6.86-11.01,2.09-20.03,7.36-26.47,16.66-9.09,13.13-17.93,26.44-27.21,39.44-14.38,20.16-30.02,39.25-49.1,55.25-10.01,8.4-20.71,15.86-33.1,20.2-6.67,2.34-13.77,3.62-20.79,4.63-2.34.34-5.46-1.12-7.44-2.72-3.77-3.03-6.97-6.77-10.41-10.2-2.83-2.82-3.08-6.33-2.58-9.98,1.33-9.83,4.38-19.12,9.03-27.86,8.33-15.69,19.8-28.91,32.58-41.08,21.08-20.08,45.07-36.32,69.08-52.54,6.8-4.6,13.89-8.89,18.68-15.91,5.06-7.43,7.75-15.52,7.6-24.55-.02-.93.59-2.06,1.25-2.78,1.6-1.75,3.4-3.32,5.39-5.21-.97-1.07-1.71-1.94-2.52-2.75-5.32-5.34-10.67-10.67-16-16.01-6.58-6.59-6.61-14.37-.03-20.95,39.78-39.8,79.57-79.6,119.36-119.39,72.99-72.99,145.98-145.97,218.97-218.95,56.42-56.43,112.84-112.86,169.26-169.29,6.92-6.92,14.68-6.89,21.65.07,5.41,5.4,10.81,10.81,16.21,16.21.62.62,1.29,1.18,2.43,2.23,3.24-7.01,9.61-6.62,15.74-7.54,10.89-1.64,19.66-7.29,26.02-16.31,7.66-10.87,15.02-21.94,22.64-32.84,13.1-18.73,27.04-36.79,43.55-52.7,12.43-11.98,25.85-22.69,42.13-29.02,5.97-2.32,12.32-3.76,18.6-5.11,4.86-1.05,9.2.79,12.8,4.18,2.02,1.9,3.92,3.94,5.91,5.88,4.34,4.21,5.8,9.22,4.77,15.18-2.77,16.05-10.01,29.98-19.79,42.78-16.16,21.12-36.31,37.95-57.7,53.38-13.43,9.69-27.25,18.86-40.91,28.24-9.57,6.58-15.35,15.59-17.45,26.98-.71,3.84-4.49,13.05-6.82,16.18.61.67,1.23,1.41,1.9,2.09,5.32,5.34,10.67,10.66,15.99,16.01,6.93,6.97,6.95,14.79.06,21.68-45.76,45.76-91.52,91.51-137.28,137.27-90.33,90.32-180.66,180.64-270.98,270.96-32.99,32.98-65.96,65.98-98.94,98.97-7.39,7.39-14.89,7.32-22.24-.11-5.09-5.15-10.23-10.27-15.35-15.39-.75-.75-1.56-1.45-2.29-2.13ZM865.78,309.46c-.23-.14-.47-.27-.7-.41.17-3.97-2.54-6.28-5-8.74-28.28-28.29-56.55-56.58-84.82-84.88-5.37-5.38-9.73-5.45-15.03-.16-72.01,72-144.02,144.01-216.03,216.02-85.13,85.13-170.26,170.27-255.4,255.4-12.21,12.21-24.44,24.41-36.64,36.64-4.29,4.3-4.45,9.46-.48,13.42,29.07,29.04,58.14,58.08,87.21,87.11,5.09,5.08,9.74,5.15,14.68.21,70.26-70.25,140.52-140.49,210.77-210.74,81.2-81.2,162.4-162.4,243.6-243.61,17.9-17.9,35.82-35.76,53.63-53.75,1.78-1.79,2.81-4.32,4.19-6.51ZM811.8,228.44c11.75,12.01,24.17,24.71,36.61,37.42,2.99-13.25,4.86-18.21,11.45-25.07,4.01-4.18,8.79-7.69,13.52-11.1,17.05-12.31,34.48-24.11,51.27-36.76,15.65-11.79,29.81-25.29,41.64-41.04,8.92-11.88,15.83-24.7,18.54-39.52.85-4.64.17-8.64-3.46-11.93-1.98-1.8-3.81-3.76-5.69-5.68-2.8-2.85-6.27-3.99-10.06-3.16-5.02,1.1-10.06,2.33-14.89,4.06-13.56,4.88-25.02,13.24-35.74,22.64-16.97,14.87-31.1,32.28-44.2,50.53-9.48,13.22-18.55,26.73-27.8,40.12-4.21,6.08-9.53,11.04-16.21,14.11-5.15,2.37-10.69,3.87-14.96,5.37ZM265.55,773.38c-1.8,13.39-8.09,24.24-19.19,32.17-4.36,3.11-8.77,6.14-13.22,9.13-20.18,13.57-40.14,27.42-58.29,43.7-13.43,12.04-25.71,25.08-34.97,40.69-5.46,9.2-9.32,19.01-10.98,29.66-.58,3.72-.03,6.76,3.02,9.33,2.5,2.1,4.79,4.48,6.95,6.93,2.36,2.67,5.04,3.31,8.52,2.79,15.34-2.3,28.61-9.14,40.91-18.18,15.96-11.73,29.58-25.92,41.45-41.62,13.15-17.4,25.59-35.35,38.06-53.25,5.96-8.55,12.61-16.14,22.49-20.1,4.16-1.67,8.58-2.7,12.96-4.05-12.51-12.33-25.04-24.69-37.72-37.19ZM847.55,271.84c-14.58-14.21-28.96-28.23-43.06-41.98-1.31,1.1-2.81,2.36-3.66,3.07,14.13,14.53,28.14,28.92,42.19,43.37,1.49-1.47,2.74-2.69,4.53-4.46ZM313.85,805.37c-14.39-14.06-28.75-28.09-43.29-42.3-1,1.03-2.34,2.42-3.08,3.19,14.08,14.52,28.06,28.92,42.34,43.64,1.45-1.63,2.61-2.93,4.03-4.53Z"/>
  <path class="cls-1" d="M865.78,309.46c-1.38,2.19-2.41,4.71-4.19,6.51-17.81,17.99-35.73,35.85-53.63,53.75-81.2,81.2-162.4,162.41-243.6,243.61-70.25,70.25-140.51,140.5-210.77,210.74-4.94,4.94-9.6,4.87-14.68-.21-29.07-29.04-58.14-58.07-87.21-87.11-3.96-3.96-3.8-9.12.48-13.42,12.2-12.23,24.42-24.42,36.64-36.64,85.13-85.13,170.26-170.27,255.4-255.4,72.01-72.01,144.02-144.02,216.03-216.02,5.29-5.29,9.65-5.22,15.03.16,28.27,28.3,56.54,56.59,84.82,84.88,2.46,2.46,5.17,4.76,5,8.74.23.14.47.27.7.41Z"/>
  <path class="cls-1" d="M811.8,228.44c4.26-1.5,9.81-3,14.96-5.37,6.68-3.08,12-8.03,16.21-14.11,9.25-13.39,18.32-26.9,27.8-40.12,13.1-18.25,27.23-35.66,44.2-50.53,10.72-9.4,22.18-17.76,35.74-22.64,4.83-1.74,9.87-2.97,14.89-4.06,3.79-.83,7.27.31,10.06,3.16,1.88,1.91,3.71,3.88,5.69,5.68,3.63,3.3,4.31,7.29,3.46,11.93-2.71,14.82-9.62,27.64-18.54,39.52-11.83,15.75-25.99,29.25-41.64,41.04-16.79,12.65-34.22,24.45-51.27,36.76-4.72,3.41-9.51,6.92-13.52,11.1-6.59,6.86-8.46,11.83-11.45,25.07-12.44-12.71-24.86-25.41-36.61-37.42Z"/>
  <path class="cls-1" d="M265.55,773.38c12.68,12.51,25.21,24.86,37.72,37.19-4.39,1.35-8.8,2.38-12.96,4.05-9.88,3.96-16.53,11.55-22.49,20.1-12.47,17.9-24.92,35.84-38.06,53.25-11.87,15.71-25.49,29.89-41.45,41.62-12.3,9.04-25.57,15.88-40.91,18.18-3.48.52-6.16-.12-8.52-2.79-2.16-2.45-4.46-4.83-6.95-6.93-3.05-2.56-3.6-5.61-3.02-9.33,1.66-10.64,5.52-20.45,10.98-29.66,9.26-15.61,21.54-28.65,34.97-40.69,18.15-16.28,38.11-30.13,58.29-43.7,4.44-2.99,8.86-6.02,13.22-9.13,11.09-7.93,17.39-18.77,19.19-32.17Z"/>
  <path class="cls-3" d="M847.55,271.84c-1.79,1.77-3.04,2.99-4.53,4.46-14.05-14.45-28.06-28.84-42.19-43.37.85-.72,2.35-1.97,3.66-3.07,14.1,13.75,28.48,27.77,43.06,41.98Z"/>
  <path class="cls-3" d="M313.85,805.37c-1.43,1.6-2.58,2.9-4.03,4.53-14.28-14.72-28.26-29.13-42.34-43.64.74-.77,2.08-2.16,3.08-3.19,14.54,14.21,28.9,28.24,43.29,42.3Z"/>
</svg>