<?xml version="1.0" encoding="UTF-8"?>
<svg id="Calque_1" data-name="Calque 1" xmlns="http://www.w3.org/2000/svg" xmlns:xlink="http://www.w3.org/1999/xlink" viewBox="0 0 1080 1080">
  <defs>
    <style>
      .cls-1 {
        fill: #acebfe;
      }

      .cls-1, .cls-2, .cls-3, .cls-4 {
        stroke: #000;
        stroke-miterlimit: 10;
        stroke-width: 3px;
      }

      .cls-5 {
        clip-path: url(#clippath);
      }

      .cls-6, .cls-7 {
        stroke-width: 0px;
      }

      .cls-6, .cls-4 {
        fill: none;
      }

      .cls-7 {
        fill: #000;
      }

      .cls-2, .cls-3 {
        fill: #fff;
      }

      .cls-3 {
        isolation: isolate;
      }
    </style>
    <clipPath id="clippath">
      <rect class="cls-6" x="257.35" y="116.42" width="588.74" height="922.24"/>
    </clipPath>
  </defs>
  <g class="cls-5">
    <path class="cls-1" d="M796.85,118.55l-510.49,4.29-25.72,55.77v780.72c0,77.23,55.77,77.23,55.77,77.23h476.17c26.98,0,39.91-21,46.08-39.03,3.8-11.14,5.41-22.85,5.36-34.64-.48-86.26-4.23-744.21-4.23-784.31l-42.94-60.03Z"/>
    <path class="cls-3" d="M261.5,352.5l33.46,27.75s437.55,17.17,510.49-4.29c0,0,21.46,4.29,34.31-12.86v433.26s-25.74,17.17-64.34,21.46c-38.6,4.29-381.78,21.46-476.17-4.29,0,0-34.31-12.86-38.6-21.46-4.29-8.6.86-439.58.86-439.58h0Z"/>
    <path class="cls-2" d="M260.65,363.07l16.85,12.04c8.64,6.17,18.85,9.78,29.44,10.39,76.89,4.45,404.07,21.69,498.51-.97,0,0,30.03,0,34.31-12.86,4.29-12.86,0-55.77,0-55.77,0,0-21.46,12.86-38.6,12.86-16.01,0-406.06,22.44-499.59.97-7.43-1.71-14.47-4.78-20.81-9.01l-20.12-13.42v55.77Z"/>
    <path class="cls-2" d="M260.65,838.16l30.03,21.46s407.52,25.74,514.78,0c0,0,30.03,0,34.31-12.86,4.29-12.86,0-55.77,0-55.77,0,0-21.46,12.86-38.6,12.86s-463.29,25.74-514.78-4.29l-25.74-17.17v55.77Z"/>
    <path class="cls-4" d="M260.65,178.6l25.82,7.31,508.72-1.02,44.57-6.3"/>
  </g>
  <path class="cls-7" d="M424.51,571.1c0,3.68,3.3,5.2,14.2,5.2,19.64,0,26.99,5.96,26.99,19.01,0,12.29-10.01,19.64-26.62,19.64-12.93,0-20.78-2.15-27.12-7.48-1.39-1.27-2.15-3.04-2.15-4.82,0-4.05,2.66-6.72,6.34-6.72,1.27,0,2.66.38,4.05,1.39,4.94,3.68,10.52,5.32,17.74,5.32,8.62,0,13.81-2.79,13.81-7.48,0-4.06-3.55-5.96-14.83-5.96-19.14,0-26.49-5.7-26.49-18.25s10.27-19.77,26.74-19.77c10.39,0,17.11,1.77,23.07,6.21,1.9,1.39,2.79,3.29,2.79,5.32,0,4.06-2.66,6.72-6.34,6.72-1.9,0-3.55-.89-4.94-1.9-3.55-2.66-8.37-4.06-13.69-4.06-8.24,0-13.56,2.91-13.56,7.61ZM527.68,551.96c4.31,0,6.97,2.91,6.97,7.48v47.78c0,4.05-2.91,6.97-7.1,6.97s-6.84-2.91-6.84-6.97v-.89h-.25c-4.31,5.45-11.03,8.62-19.77,8.62-16.6,0-25.6-9.88-25.6-28.14v-27.38c0-4.56,2.66-7.48,6.97-7.48s6.97,2.91,6.97,7.48v25.86c0,11.03,5.32,16.86,15.08,16.86,10.27,0,16.6-7.1,16.6-18.89v-23.83c0-4.56,2.66-7.48,6.97-7.48ZM605.65,600c0,1.52-.51,2.91-1.39,4.05-5.7,6.97-14.57,10.9-24.97,10.9-19.39,0-32.57-12.93-32.57-31.81s13.18-31.94,32.57-31.94c9.13,0,17.11,3.04,23.19,9,1.27,1.27,1.9,2.91,1.9,4.69,0,3.93-2.54,6.59-6.46,6.59-1.65,0-3.3-.63-4.56-1.77-3.8-3.68-8.49-5.7-14.07-5.7-10.9,0-18.38,7.73-18.38,19.14s7.48,19.01,18.38,19.01c6.08,0,11.28-2.15,14.45-6.21,1.27-1.52,3.04-2.54,5.2-2.54,4.06,0,6.72,2.66,6.72,6.59ZM649.41,551.58c4.18,0,6.97,2.66,6.97,6.97s-2.79,6.97-6.97,6.97c-12.17,0-19.26,6.46-19.26,21.29v19.9c0,4.69-2.53,7.48-6.97,7.48s-6.97-2.79-6.97-7.48v-47.27c0-4.56,2.66-7.48,6.97-7.48s6.97,2.91,6.97,7.48v2.28h.25c3.8-6.59,10.27-10.14,19.01-10.14ZM691.05,563.62c-8.87,0-15.97,5.2-17.87,13.31h35.36c-1.9-8.11-8.62-13.31-17.49-13.31ZM716.65,604.43c-5.58,6.72-14.32,10.52-24.97,10.52-20.03,0-33.21-12.93-33.21-31.81s13.18-31.94,32.57-31.94c17.62,0,31.05,12.67,31.05,28.14v.63c0,4.94-3.29,8.11-8.24,8.11h-40.68c1.65,8.87,8.74,14.45,18.5,14.45,6.59,0,11.66-2.66,14.7-6.21,1.52-1.78,3.17-2.54,5.2-2.54,4.05,0,6.59,2.54,6.59,6.46,0,1.52-.51,2.91-1.52,4.18Z"/>
</svg>