<?xml version="1.0" encoding="UTF-8"?>
<svg xmlns="http://www.w3.org/2000/svg" viewBox="0 0 1080 1080">
  <defs>
    <style>
      .cls-1 {
        fill: #e6f0ff;
        stroke-linejoin: round;
      }

      .cls-1, .cls-2, .cls-3 {
        stroke: #000;
        stroke-width: 3px;
      }

      .cls-2 {
        fill: #fff;
      }

      .cls-2, .cls-3 {
        stroke-miterlimit: 10;
      }

      .cls-3 {
        fill: none;
      }
    </style>
  </defs>
  <g id="Calque_1" data-name="Calque 1">
    <path class="cls-1" d="M477.5,841.5c.63,0,1.26-13.8,1.64-24.07.27-7.25-.51-14.49-2.3-21.51-27.97-109.53-95.47-333.28-97.34-505.81-.05-4.92-.49-9.83-1.31-14.66s-2.07-9.86-3.71-14.63l-5.54-16.24c-2.27-6.66-3.27-13.68-2.94-20.71l5.13-109c16.37,29.63,366.37,38.63,384.35-1l6.28,112.44c.49,8.72-.6,17.47-3.21,25.81l-1.54,4.92c-1.88,6.02-3.04,12.23-3.5,18.5-.24,3.37-.29,6.75-.12,10.14,6.08,128.06-38.83,307.84-95.72,499.77-2.78,9.38-4.18,19.11-4.18,28.88v39.5c0,11.31,5.29,21.99,14.34,28.78,9.94,7.45,23.78,14.45,39.49,21.22,13.37,5.76,24.81,15.39,32.22,27.92,28.27,47.82-35.04,77.91-103.16,91.47-23.64,4.71-47.8,6.25-71.86,4.91-113.74-6.36-194.19-25.35-181.75-79.58,3.45-15.06,13.16-27.95,26.36-35.99,27.77-16.92,62.61-23.36,68.37-71.06Z"/>
    <path class="cls-3" d="M753.52,275.53c-30.02-29.03-93.02-11.03-104.02,22.97-35-53-134-42-162,2-21-43-85-56-109.31-25.05"/>
    <path class="cls-3" d="M487.5,300.5c5.56,153.9,25.67,343.18,53,550-30.27,14.68-52.05,13.16-63-9"/>
    <path class="cls-3" d="M649.5,298.5c.61,146.69-22.18,342.42-53,555,22.15,8.4,43.69,14.86,56.55-5.89"/>
    <path class="cls-3" d="M540.5,850.5c20.72,15.15,39.01,13.55,56,3"/>
  </g>
  <g id="Calque_2" data-name="Calque 2">
    <path class="cls-2" d="M751.79,108.59c-83.27-27.42-302.19-25.67-374.24-1.84-7.29,2.41-7.44,12.39-.24,15.04,71.78,26.4,330.43,26.62,375.85-2.4,4.34-2.77,3.56-9.18-1.37-10.8Z"/>
  </g>
</svg>