<?xml version="1.0" encoding="UTF-8"?>
<svg id="Calque_1" data-name="Calque 1" xmlns="http://www.w3.org/2000/svg" viewBox="0 0 1080 1080">
  <defs>
    <style>
      .cls-1 {
        fill: #e1f4ff;
      }

      .cls-1, .cls-2, .cls-3, .cls-4, .cls-5 {
        stroke: #000;
        stroke-width: 3px;
      }

      .cls-1, .cls-3, .cls-5 {
        stroke-miterlimit: 10;
      }

      .cls-6 {
        fill: #fff;
        font-family: Fredoka-Bold, Fredoka;
        font-size: 61px;
        font-variation-settings: 'wght' 700, 'wdth' 100;
        font-weight: 700;
      }

      .cls-2 {
        fill: #f7f2dc;
      }

      .cls-2, .cls-4 {
        stroke-linecap: round;
        stroke-linejoin: round;
      }

      .cls-3 {
        fill: #69f;
      }

      .cls-4 {
        fill: #f7edc4;
      }

      .cls-7 {
        fill: #fffef8;
        stroke-width: 0px;
      }

      .cls-5 {
        fill: none;
      }
    </style>
  </defs>
  <path class="cls-1" d="M90.5,332.5l38,397c21,79,718,81,754,11l45-406c-108,44-753,45-837-2Z"/>
  <path class="cls-3" d="M927.5,334.5l21.1-9.28c5.84-2.57,10.67-7.1,13.26-12.93.61-1.38,3.15-39.26,4.6-61.64,1.33-20.44-4.87-40.8-17.97-56.55-17.92-21.54-46.66-34.01-86-37.6-241.1-18.88-470.04-22.89-679.75-3.37-10.75,1-21.44,2.59-32,4.86-17.95,3.86-34.64,8.56-49.41,14.55-17.97,7.29-32.06,21.76-38.98,39.88h0c-7.83,20.5-8.82,44.15-7.87,66.08l1,20c.46,10.68,3.76,17.11,13.16,22.19l21.84,11.81c78,42,687,51,837,2Z"/>
  <path class="cls-5" d="M70.5,230.5c51,61,806,62,876,3"/>
  <path class="cls-3" d="M240.12,773.07l-5.62-386.57c87.6,6.87,170.49,10.21,246,8l-3,395.5c-81.74-.5-160.95-5.99-237.38-16.93Z"/>
  <text class="cls-6" transform="translate(277.89 510.41)"><tspan x="0" y="0">Glace </tspan><tspan x="-19.34" y="73.2">Vanille</tspan></text>
  <g>
    <path class="cls-4" d="M585.05,537.96c-1.48-1.69-4.64-1.33-5.7.65-1.7-4.78-9.28-3.14-12.41.85s-4.76,9.49-9.24,11.87c-5.41,2.87-12.92-.06-17.7,3.76-4.37,3.49-5.38,11.78-10.97,11.77,3.42,7.32.54,15.83-.71,23.81s.66,18.22,8.43,20.46c1.3,3.82-5.5,5.73-6.15,9.71-.48,2.93,2.56,5.11,5.18,6.51,6.55,3.5,13.11,7,19.66,10.51.99,4.67,2.61,9.21,4.81,13.44,6.72,1.12,12.38,6.95,13.3,13.71,4.83.54,9.86-1.24,13.28-4.7-.23,5.96,1.01,13.83,6.91,14.7,1.84.27,3.68-.29,5.48-.73,8.03-1.92,16.68-1.17,24.26,2.11-.31,1.78.53,3.71,2.05,4.7,3.13-5.77,10.75-6.97,17.3-7.49,6.68-.54,13.57-1.05,19.93,1.07,6.45,2.14,12.05,6.9,18.8,7.62,4.99.53,9.89-1.22,14.8-2.24,9.39-1.94,14.5-2.12,23.47,1.26.33-1.09,10.93,2.62,15.61,1.45,4.68-1.17,8.81-3.86,13.17-5.91,13.28-6.25,29.28-6.38,42.66-.36-.67-1.89-1.34-3.79-2.01-5.68,3.04-.25,6.19-.53,8.82-2.07s4.56-4.72,3.66-7.63c9.33-3.13,14.74-2.57,25.64-6.31-3.4-3.76-4.04.18-3.97-3.06s5.51-4.44,6.94-1.52c2.33,1.33,3.73,4.11,3.42,6.76,4.16-2.53,8.31-5.05,12.47-7.58-2.01-3.14-1.94-8.28.88-10.73,3.83-3.33,5.27-7.13,5.64-10.85.44-4.46-2.18-9-.99-12.06,2.64-6.78,4.68-12.61,1.75-18-6.28-11.54,9.43-21.57-1.52-32.38-4.99-1.35-10.35-1.29-15.3.19-.99-5.48-5.39-9.85-10.4-12.27-5.01-2.42-10.63-3.22-16.14-3.98"/>
    <path class="cls-2" d="M810.87,557.26c-18.01-178.59-236.62-134.57-226.61,6.5.37,5.18,4.49,11.11,8.33,14.6,3.84,3.5,9.8,5.22,14.33,2.67,1.54,2.53,2.32,5.51,2.22,8.46,5.16.5,10.31,1,15.47,1.5,2.85,3.14,5.2,6.73,6.93,10.6,9.73-.09,17.95,10.91,27.34,8.34,1.62-.44,3.32-1.28,4.88-.66,1.06.42,1.75,1.42,2.38,2.36,2.58,3.87,5.17,7.74,7.75,11.61,3.63.84,7.63-.07,10.54-2.41,2.07,4.38,8.09,5.6,12.63,3.91,4.54-1.7,7.91-5.48,11.1-9.13,2.92-3.35,5.84-6.7,8.76-10.04,8.24-2.9,16.49-5.81,24.73-8.71,1.82-.64,3.68-1.29,5.61-1.28,4.93.02,8.72,4.16,11.85,7.96,9.13-.81,18.38-.23,27.34,1.7-2.79-4.82,2.24-10.31,6.73-13.6,6.27-4.6,12.55-9.2,18.82-13.8-3.99-5.6-4.58-14.62-1.12-20.57Z"/>
    <path class="cls-7" d="M599.84,506.81c4.52,8.62,17.07,8.21,25.59,9.59,4.41.51,9.23.35,13.45,2.46,4.5,2.17,7.35,6.38,11.85,8.17,6.55,2.4,13.4.65,20.16-.54,3.24-.6,6.54-1.19,9.86-1.24,5.47.27,10.88.83,16.35.91,15.13.36,30.35.25,45.48-.26,4.7.09,7.4-3.45,11.54-5.5,3.99-1.91,8.41.55,12.32.03.31-.04.34-.13.4-.09l1.01-1.12c5.89-7.13,8.19-13.61,18.96-13.83,1.86-.01,3.95.11,5.79.32,0,0-.01.5-.01.5-6.34.52-12.6,1.45-16.17,7.29-1.98,3.11-3.92,6.78-6.35,9.74-2.72,2.74-6.6,1.71-9.78,1.55-1.26-.08-2.66-.27-3.62.06-.03.02,0-.02-.09.04l-.3.18c-3.47,2.17-7.17,5.67-11.72,6.12-2.92.17-5.52.11-8.39.12-13.12-.02-26.27-.57-39.27-2.42-4.38-.44-15.03-2.57-19.32-1.91-8.09.69-16.2,4.74-24.45,4.16,0,0-.89-.06-.89-.06l-.89-.16c-4.57-.53-8.57-3.99-12.01-6.54-3.39-2.57-6.96-3.07-11.17-3.49-9.37-1.62-25.93-3.08-28.79-13.92,0,0,.47-.18.47-.18h0Z"/>
    <path class="cls-7" d="M621.36,478.33c2.02,7.35,10.64,7.76,17.02,8.33,3.55.5,6.97.08,10.54.84,5.36,1.07,7.69,7.15,12.88,8.23,7.7,1.25,14.8-4.26,22.6-4.42,11.32.93,22.53,2.16,33.9,2.22,3.39.08,12.27.28,15.56.39,2.58-.17,5.02-3.23,7.66-4.74,2.02-1.19,4.65-.45,6.68.07,1.1.34,2.74.63,3.44.61-.06,0-.1.18,0,0,6.24-9.09,6.49-15.66,19.97-12.65,0,0-.07.5-.07.5-12.7-.4-11.12,4.56-16.31,13.81-2.15,4.19-7.37,1.79-10.83,1.63-.18,0-.36.02-.49.05.05.01.1-.01.12-.05,0,0-.11.08-.11.08-2.85,2.11-5.9,5.88-10.12,5.84-1.78-.01-3.51-.06-5.26-.1-10.48-.3-20.96-1.25-31.37-2.49-4.23-.42-8.54-1.29-12.74-1.63-7.83.08-15.16,5.35-23.26,3.5-5.39-.98-8.07-7.62-12.78-8.89-2.33-.69-5.1-.56-7.61-.91-7.21-1.08-17.95-1.28-19.93-10.09,0,0,.49-.12.49-.12h0Z"/>
    <path class="cls-7" d="M593.34,546.83c4.4,9.52,18.23,9.89,27.32,11.51,5.77.71,12.19.69,17.1,4.35,2,1.33,3.8,2.8,5.67,4.02,3.64,2.41,8.06,3.15,12.51,2.76,7.97-.57,16.02-3.63,24.2-3.7,5.88.26,11.62,1,17.47,1.28,13.84.9,27.69.7,41.54.34.33,0,7.87-.21,7.8-.19,4.7-.09,8.01-3.77,12.3-5.74,4.09-1.65,8.61.55,12.63,0,.32-.06.53-.13.78-.27.02,0,.09-.09.13-.13l.28-.3c.95-1,1.9-2.05,2.76-3.14,5.17-6.92,8.73-11.48,18.12-11.98,1.98-.09,4.19-.04,6.17.09,0,0,0,.5,0,.5-4.39.42-9.23.96-13,3.3-4.18,2.42-6.38,7.53-9.5,11.66-.64.91-1.41,1.84-2.14,2.7-.7.72-1.72,1.25-2.66,1.47-3.76.88-7.39-.28-10.97.12,0,0-.24.06-.24.06-.2.03-.24.09-.33.12-4.05,2.27-8.04,6.21-13.15,6.62-7.62.4-15.2.46-22.83.33-9.33-.21-18.67-.73-27.96-1.57-6.78-.37-13.81-2.03-20.51-1.63-8.95.64-17.91,4.11-27.08,2.57-2.75-.51-5.39-1.66-7.68-3.21-3.78-2.67-6.91-5.98-11.43-7.12-4.33-1.1-9.21-1.31-13.63-2.3-6.78-1.33-14.16-2.37-19.84-6.7-1.87-1.47-3.39-3.42-4.25-5.63l.46-.19h0Z"/>
  </g>
</svg>