<?xml version="1.0" encoding="UTF-8"?>
<svg id="Calque_1" data-name="Calque 1" xmlns="http://www.w3.org/2000/svg" viewBox="0 0 1080 1080">
  <defs>
    <style>
      .cls-1 {
        fill: #b0d0ea;
        stroke-linecap: round;
        stroke-linejoin: round;
      }

      .cls-1, .cls-2 {
        stroke: #000;
        stroke-width: 3px;
      }

      .cls-2 {
        fill: #fff;
        stroke-miterlimit: 10;
      }
    </style>
  </defs>
  <polygon class="cls-1" points="795.5 939.5 409.5 967.5 407.5 201.5 804.5 194.5 795.5 939.5"/>
  <polygon class="cls-1" points="360.5 173.5 407.5 201.5 409.5 967.5 360.5 899.5 360.5 173.5"/>
  <polygon class="cls-1" points="738.5 161.5 804.5 194.5 407.5 201.5 360.5 173.5 738.5 161.5"/>
  <g>
    <path class="cls-2" d="M522.02,513.36c-3,0-5.09-.45-6.26-1.35-1.17-.9-1.82-2.07-1.93-3.5-.12-1.43-.1-2.88.06-4.35l5.43-51.7c.15-1.47.44-2.9.85-4.3.41-1.4,1.3-2.55,2.66-3.45,1.36-.9,3.57-1.35,6.64-1.35s5.17.45,6.31,1.35c1.14.9,1.77,2.05,1.89,3.45.12,1.4.1,2.87-.06,4.4l-4.75,45.2h24.4c1.27,0,2.47.1,3.62.3,1.15.2,2.04.85,2.7,1.95.65,1.1.84,2.95.57,5.55-.27,2.53-.86,4.35-1.77,5.45-.92,1.1-1.97,1.77-3.16,2-1.19.23-2.42.35-3.69.35h-33.5Z"/>
    <path class="cls-2" d="M635.16,500.66l-19.65-51.9c-.42-1.13-1.01-2.1-1.79-2.9-.79-.8-1.67-1.42-2.66-1.85-.99-.43-2.08-.65-3.28-.65-1.67,0-3.34.48-5,1.45-1.67.97-2.99,2.25-3.96,3.85l-30.56,52c-1.22,2-1.93,3.7-2.14,5.1-.22,1.4.11,2.63.96,3.7.85,1.07,2.26,2.1,4.23,3.1,2.97,1.53,5.35,2.02,7.14,1.45,1.79-.57,3.66-2.42,5.59-5.55l5.63-9.6h24.54l3.64,9.5c1.19,3.27,2.62,5.18,4.29,5.75,1.68.57,4.19.08,7.55-1.45,2.18-1.07,3.79-2.13,4.84-3.2,1.04-1.07,1.61-2.3,1.69-3.7.08-1.4-.27-3.1-1.06-5.1ZM598.81,483.26l5.69-9.7,3.72,9.7h-9.41Z"/>
    <path class="cls-2" d="M647.82,513.36c-3,0-5.09-.45-6.26-1.35-1.17-.9-1.82-2.07-1.93-3.5-.12-1.43-.1-2.88.06-4.35l5.43-51.7c.15-1.47.44-2.9.85-4.3.41-1.4,1.3-2.55,2.66-3.45,1.36-.9,3.57-1.35,6.64-1.35s5.17.45,6.31,1.35c1.14.9,1.77,2.05,1.89,3.45.12,1.4.1,2.87-.06,4.4l-5.43,51.7c-.15,1.47-.44,2.9-.85,4.3-.41,1.4-1.3,2.55-2.66,3.45-1.36.9-3.58,1.35-6.64,1.35Z"/>
    <path class="cls-2" d="M722.09,443.26c1.27,0,2.45.1,3.57.3,1.11.2,2,.83,2.65,1.9.65,1.07.85,2.9.57,5.5-.27,2.53-.84,4.35-1.72,5.45-.88,1.1-1.92,1.75-3.1,1.95-1.19.2-2.42.3-3.68.3h-13.8l-4.81,45.8c-.15,1.47-.44,2.88-.85,4.25-.41,1.37-1.28,2.48-2.6,3.35-1.33.87-3.52,1.3-6.59,1.3s-4.99-.45-6.16-1.35c-1.17-.9-1.8-2.03-1.89-3.4-.09-1.37-.06-2.78.1-4.25l4.8-45.7h-13.9c-1.2,0-2.37-.12-3.51-.35-1.14-.23-2.04-.88-2.69-1.95-.66-1.07-.85-2.9-.57-5.5s.84-4.33,1.72-5.4c.88-1.07,1.93-1.7,3.15-1.9,1.22-.2,2.43-.3,3.63-.3h45.7Z"/>
  </g>
  <path class="cls-2" d="M629.09,559.94c-4.92,19.76-17.51,43.51-35.5,69.46-13.29,19.19-4.65,46.25,17.6,53.28.48.15.96.29,1.44.42,25.63,6.89,47.49-19.7,36.79-43.99-13.29-30.17-23.77-57.24-20.34-79.17Z"/>
  <polygon class="cls-1" points="407.5 201.5 376.5 239.5 360.5 173.5 407.5 201.5"/>
  <polygon class="cls-1" points="360.5 899.5 382.5 877.5 409.5 967.5 360.5 899.5"/>
</svg>