<?xml version="1.0" encoding="UTF-8"?>
<svg xmlns="http://www.w3.org/2000/svg" viewBox="0 0 1080 1080">
  <defs>
    <style>
      .cls-1 {
        fill: #999;
      }

      .cls-1, .cls-2, .cls-3, .cls-4, .cls-5, .cls-6 {
        stroke: #000;
        stroke-width: 3px;
      }

      .cls-1, .cls-2, .cls-3, .cls-4, .cls-6 {
        stroke-miterlimit: 10;
      }

      .cls-2 {
        fill: #e6f0ff;
      }

      .cls-3 {
        fill: #73a1ea;
      }

      .cls-4 {
        fill: #545454;
      }

      .cls-5 {
        stroke-linecap: round;
        stroke-linejoin: round;
      }

      .cls-5, .cls-6 {
        fill: none;
      }
    </style>
  </defs>
  <g id="Calque_1" data-name="Calque 1">
    <path class="cls-3" d="M289.5,114.5c1-7,8.81-3.6,14-5l45,6,.69,3.77"/>
    <path class="cls-2" d="M352.5,119.5c123.07,16.62,244.17,11.34,364-8-23.02,208.79-44.32,357.11-63.37,426.18-5.04,18.26-9.92,30.98-14.63,37.82-72.29,33.45-148.45,27.43-227-3-37.51-95.94-53.41-245.83-66-407-13-4-34-22-36-32-18-5-21.94-11.58-20-19l63,5Z"/>
    <path class="cls-2" d="M710.5,166.5c151,33,135,294-56,367l13-58c109-38,154-239,38-265l5-44Z"/>
    <path class="cls-4" d="M414.67,574.23l3.83,11.27c69,40,167,35,221-1l-1-9c-71.55,32.16-146.44,28.74-223.83-1.27Z"/>
    <path class="cls-1" d="M418.5,585.5l-4.24,4.24c-4.45,4.45-7.8,9.87-9.75,15.85-34.33,105.5-60.55,217.19-72.08,322.69-1.58,14.44,3.72,28.75,14.29,38.71,71.46,67.33,271.49,93,372.43-1.85,7.27-6.84,11.06-16.6,10.24-26.55-8.48-102.79-37.66-227.32-79.13-343.16-1.15-3.21-3.31-5.96-6.14-7.85l-4.63-3.09c-68.97,40.25-143.05,37.04-221,1Z"/>
    <line class="cls-5" x1="529.5" y1="811.5" x2="529.5" y2="850.5"/>
    <path class="cls-4" d="M389.5,996.5v35c12.27,5.34,25.17,6.06,39,0l.04-19.71"/>
    <path class="cls-4" d="M669.54,1000.5v35c-12.27,5.34-25.17,6.06-39,0l-.04-19.71"/>
  </g>
  <g id="Calque_2" data-name="Calque 2">
    <circle class="cls-4" cx="530.5" cy="849.5" r="50"/>
    <g>
      <path class="cls-4" d="M302.5,99.5c-12.37,2.12-11.18,5.35-5,9l49,7,13.02,4.72c120.6,13.48,239.64,11.03,356.98-8.72l25-4c3.32-3.62,3.28-6.76-3-9l-66-9-25-14-53-8c14.38-6.23,10.41-10.34-6-13-42.86-7.28-86.22-5.76-130,3-7.47,2.41-7.52,5.74,0,10-35.54,3.2-57.72,10.56-70,21l-86,11Z"/>
      <path class="cls-6" d="M458,67.5c16.5,7,104.5,8,136.5,0"/>
    </g>
  </g>
</svg>